/* XPM */
static char *xpm_[] = {
/* columns rows colors chars-per-pixel */
"50 50 136 2 ",
"   c #171626",
".  c #181727",
"X  c #1A1B2B",
"o  c #1C202F",
"O  c #1D2232",
"+  c #22263A",
"@  c #222C3C",
"#  c #23303F",
"$  c #272C42",
"%  c #243342",
"&  c #293047",
"*  c #263847",
"=  c #2C334B",
"-  c #273A49",
";  c #283E4D",
":  c #2F3751",
">  c #333C57",
",  c #333D59",
"<  c #2A414F",
"1  c #2B4453",
"2  c #2D4957",
"3  c #2E4C5A",
"4  c #33405D",
"5  c #31515F",
"6  c #344362",
"7  c #344768",
"8  c #354A6C",
"9  c #315361",
"0  c #345A67",
"q  c #355D6B",
"w  c #354E73",
"e  c #365176",
"r  c #36557C",
"t  c #38577E",
"y  c #37587F",
"u  c #38587E",
"i  c #37606D",
"p  c #38616F",
"a  c #386471",
"s  c #3C6D7A",
"d  c #365780",
"f  c #375982",
"g  c #385C83",
"h  c #375E8B",
"j  c #385E8A",
"k  c #38618D",
"l  c #3F7583",
"z  c #3A6692",
"x  c #3B6A95",
"c  c #3C6D99",
"v  c #3E729C",
"b  c #3F75A1",
"n  c #407783",
"m  c #417986",
"M  c #447F8C",
"N  c #40769F",
"B  c #437CA4",
"V  c #447FA8",
"C  c #44808F",
"Z  c #478593",
"A  c #488996",
"S  c #4A8E9B",
"D  c #4B919D",
"F  c #4684AB",
"G  c #488AAE",
"H  c #4D95A3",
"J  c #4E98A4",
"K  c #4D96A8",
"L  c #4F9AAC",
"P  c #498CB1",
"I  c #4C94B5",
"U  c #4F9BB3",
"Y  c #4D95B8",
"T  c #4F9ABB",
"R  c #519EB5",
"E  c #519FB8",
"W  c #53A2AD",
"Q  c #54A5B4",
"!  c #56AAB6",
"~  c #52A2BB",
"^  c #56ABBD",
"/  c #58AFBA",
"(  c #5AB3BE",
")  c #53A6C3",
"_  c #55A9C5",
"`  c #56ABC7",
"'  c #56ABC6",
"]  c #57AFC7",
"[  c #57ACC2",
"{  c #57ADC8",
"}  c #57ADC9",
"|  c #58AFCA",
" . c #58B0C1",
".. c #5BB5C0",
"X. c #5BB6C0",
"o. c #5AB5C4",
"O. c #5CB9C5",
"+. c #5BB6CD",
"@. c #5BB7CD",
"#. c #5AB5CF",
"$. c #58B0CC",
"%. c #5DBACB",
"&. c #5EBEC8",
"*. c #5EBEC9",
"=. c #5DBCCC",
"-. c #5BB8CE",
";. c #5BB9D1",
":. c #5DBCD2",
">. c #5DBDD3",
",. c #5EBCD3",
"<. c #5DBDD4",
"1. c #5EBED1",
"2. c #5FC0D1",
"3. c #5FC1D4",
"4. c #5FC1D6",
"5. c #5FC1D5",
"6. c #5FC2D8",
"7. c #5FC2D8",
"8. c #60C1CB",
"9. c #60C2D7",
"0. c #60C3D8",
"q. c #62C7D8",
"w. c #61C5DA",
"e. c #60C3D9",
"r. c #63CADC",
"t. c #64CCDD",
"y. c #65CDDE",
"u. c #65CDDD",
"i. c #66D1DB",
"p. c #65CFE0",
"a. c #67D3E0",
"s. c #67D1E2",
"d. c #68D5E0",
"f. c #6ADBE8",
"g. c #6ADBE9",
"h. c #6EE2ED",
/* pixels */
"> > > > > > > > > > > > > , > > > > > > > > > > > > > > > > > > > > > > > > > > > > > > > > > > > > ",
"> > > > > > > > > > > > > > > > > > > > > > > > > > > > > > > > > > > > > > > > > > > > > > > > > > ",
"> > > > > > > > > > > > > > > > > > > > > > > > > > > > > > > > > > > > , > > > > > > > > > > > > > ",
"> > > > > > > > > > > > > > > > > > > > > > > > > > > > > > > > > > > > > > > > > > > > > , > > > > ",
"> > > > > > > > > > > > > > > > > , > > > > > > > > > > > > > > > > > > > > > > > > > > > > > > > > ",
"> > > > > > > > > > > > > > > > > > > > > > > > > > > > > > > > > > > > > , > > > > > > > > > > > > ",
"> > , > > > > > > > > , > > > > > > > > > > > > > > > > > > > > > > > > > > > > , > > > > > > > > > ",
"> > , > > > > > > > > > > > > > > > > > > > > > > > > > > > > > > > > > > > > > > > > > > > > > > > ",
"> > > > , > > > > > > > > > > > > > > , 6 6 4 6 , 4 4 6 4 , 6 6 4 , > > > > > > > > > > > > > > > > ",
"> > > > > > > > > > > > > > > > > > 6 w e r e e r r e r r r r e 7 4 , > > > > > > > > > > > > > > > ",
"> , > > > > > > > > > > > > > > > 6 w f c B B B B B B B B B N N d 7 4 , > > > > > > > > > > > > > > ",
"> > > > > > > > > > > > > > > > , w d x G _ ,.,.,.,.=.,.,.#.E B k f 7 , > > > > > > > > > > > , > , ",
"> > > > > > > > > > > > > > > > 6 t c F R ^ ......( ..( ..( ^ I B z w 4 > > > > , > > > > > > > > > ",
"> > > > > > > > > > > > > > > , 6 t G ` H a 1 2 2 2 2 2 1 3 s Q } c e , > > > > > > > > > > > > > > ",
"> > > > > > > > > > > > > > > 6 e f I <.H 2 X o o o O o X + 9 Q 9.B e 4 > > > > > > > > > > > > > > ",
"> > > > > > > > > > > > > > 6 w h c Y  .M ; . . X X . X X @ q Q #.N w , > > > > > > > > > > > > > > ",
"> > > > > > > > > > > > > 6 w g c Y T A 0 # . X X o X X # 0 A E I c w , > > > , > > > > > > > > > > ",
"> > > > > > > 4 6 6 6 6 7 w g v P 7.O.l 2 O X X X X X . < Z =._ V x e 7 6 6 6 , , > > > > > > > > > ",
"> > > > > , 6 w t t d y t g x G @.f.i.W i # X X X X o . 1 H a.7.I v k d d d r w , , > > > > > > > > ",
"> > > > > 7 w h v F F F F F G ~ o.8.8.( l - . X X X X . - l ..8.^ P G F F B x f 8 , > > > > > > > > ",
"> > > > 6 e k x I 4.r.r.y.y.9.H 9 5 3 3 * O X X X X X X O * 2 9 m =.r.i.t.[ F k g 8 , > > > > > > > ",
"> > > > 6 r v I U K J J J J A i O o o O o o X o X X X X o o O O 2 Z J J J L I F z w > > > > > > > > ",
"> > > > 7 g F -.H 5 1 < 1 < ; @ o . . X X X X X o X X o X . X X O < < ; 1 l ~ ` N w > > > > > > > > ",
"> > > > 6 g P q.D % o X X X X X X X X X X X X X X X X X X X X X X X X X O p ! <.N 7 > > > > > > > > ",
"> > > > 7 g F -.H 9 1 ; ; 1 < 1 1 < - O X X X X X X X X O % < 1 1 < < ; < n Q } c w 4 > > > > > > > ",
"> > > > 6 y v Y L H S S S S S S S D s - O X X X o X X X % q A D S D S S D H I P z w , > > > > > > > ",
"> > > > 6 e k x I 4.y.y.y.y.y.y.i.h.Q 5 O   o X X X X . 1 D a.g.y.y.y.s.r.` F k f 8 , > > > > > > > ",
"> > > > > 6 e k b G P P P P P P T a.^ 9 O . X X X X X . 1 H 7.$.P P P P P V c d 8 4 > > > > > > > > ",
"> > > > > 4 6 e d d d d d y d h b 7.! 9 O . X X X X X   1 D 3.Y k d d d d y r w 4 > > > > > > > > > ",
"> > > > > > 4 4 6 6 6 6 6 6 7 r b 7.Q 9 o X X X o X X   1 D 2.I d 8 6 6 6 6 6 4 > > > > > > > > > > ",
"> > > > > > > > > > > > > > 6 e v 7.! 5 o . X X X X X . 1 D 2.I t 6 > > , > > > > > > > > > > > > > ",
"> > > > > > > > > > > > > > 2 e v 7.! 5 o   X X . X .   1 D 2.I y 4 > > > > > > > > > > > > > > > > ",
"> > > > > > > > > > > > > > 6 e N 4.! 9 O X O o O O o X 1 D 2.I t 4 > > > > > > > > > > > > > > > > ",
"> > > > > > > > > > > > > > , w N 4.Q 9 % - 1 2 1 1 1 + 3 S 2.Y r 6 > > > > > > > > > > , > > > > > ",
"> > > > > > > > > > > > , , 4 w N 4.Q q p S ( ! ! / W i q S ;.I d 6 > > , > > > > > > > > > > > > > ",
"> > > > > > > > > > > > > > , e c ) R C S [ 9.9.7.7.:.S Z K ) F d 6 > > > > > > > > > > > > > > > > ",
"> > > > > > > > > , > > > > , w z b I [ E G B B B B F ~ [ U B x r 6 > > > > > > > > > > > > > > > > ",
"> > > > > > > > > > > > > > > 7 e h B Y P B j r t g x G Y F x d 8 , > > > > > > > > > > > , > > > > ",
"> > > > > > > > > > > > > > > , 7 t k v x j w 6 6 8 f x v x d 8 6 > > > > > > > > > > > > > > , > > ",
"> > > > > > > > > > > > > > > > , 8 w w w w 7 > > 4 w w w w 8 6 > > > > > > > > > > > > > > > > > > ",
"> > > > > , > > > > > > > > > > > > > > 4 , > > > > 4 > 4 > > > > , > > > > > > > > > > > > > > > > ",
"> > > > > > > > > > > > > > > > > > > > > > > > > > > > > > > > > > > > > > > > > > > > > > > > > > ",
"> > > > > > > > > > > > > > > , > > > > > = = & = = = : > > > > > > > > > > > > > > > > > > > > > > ",
"> > > > > > > > > > > > > > > > > > > > $ @ + + O O + & : > > > > > > > > > > > > > , > > > > > > > ",
"> > > > > > > > > , > > > > > > > > > > : $ + X X O @ = > > > > > > > > > > > > > > > > > > > > > > ",
"> > > > > > > > > > > > > > > > > > > > > = + + O + = : > > > > > > > > , > > > > > > > > > > > , > ",
"> > > , > > > > > > > > > > > > > > > > > : = $ $ = > > > > > > > > > > > > > > > > > > > > > , > > ",
"> > > > > > > > > > > > > > > > > > > > > > > : : : > > > , > > > > > > > > > > > > > > > > > > > > ",
"> > > > > > > > > > > > > , > > > > > > > > , > , > > , , , > > > > > > > > > > > > > > > > > > > > ",
"> > > > > > > > > > > > > > > > > > > > > > > > > > > > > > > > > > > > , > > > > > > > > > > > > > "
};
