/* XPM */
static char *xpm_[] = {
/* columns rows colors chars-per-pixel */
"50 50 151 2 ",
"   c #282526",
".  c #2A2729",
"X  c #2D2B2C",
"o  c #312E30",
"O  c #343133",
"+  c #393538",
"@  c #3D3A3D",
"#  c #423F42",
"$  c #464246",
"%  c #4A464A",
"&  c #4D4A4D",
"*  c #4F4C51",
"=  c #524F53",
"-  c #555157",
";  c #575358",
":  c #5A565B",
">  c #5D595E",
",  c #5F5B61",
"<  c #625E64",
"1  c #656167",
"2  c #676268",
"3  c #68646A",
"4  c #6C686F",
"5  c #6D6A70",
"6  c #716D73",
"7  c #757077",
"8  c #77737A",
"9  c #78747B",
"0  c #7E7982",
"q  c #837E86",
"w  c #847F88",
"e  c #868189",
"r  c #89848D",
"t  c #8D8992",
"y  c #918C96",
"u  c #948F98",
"i  c #95909A",
"p  c #9A959F",
"a  c #9C97A1",
"s  c #9F9AA4",
"d  c #A29DA7",
"f  c #A49FA9",
"g  c #A6A1AC",
"h  c #A9A3AE",
"j  c #ABA6B1",
"k  c #ADA8B3",
"l  c #B1ABB6",
"z  c #B4AEBA",
"x  c #B6B1BC",
"c  c #B8B3BD",
"v  c #BDB7C3",
"b  c #BEB9C5",
"n  c #C2BCC5",
"m  c #C2BCC9",
"M  c #C7C1CF",
"N  c #C8C2CF",
"B  c #C9C3D1",
"V  c #CFC8D5",
"C  c #D3CDD6",
"Z  c #D3CDDA",
"A  c #D6D0DC",
"S  c #DAD4DE",
"D  c #DBD5E4",
"F  c #DED8E6",
"G  c #DFD8E8",
"H  c #E1DBE6",
"J  c #E3DCEB",
"K  c #E7E0ED",
"L  c #E8E1EE",
"P  c #E7E0F0",
"I  c #E8E2F2",
"U  c #E9E2F2",
"Y  c #EAE3F3",
"T  c #E8E0F0",
"R  c #EBE4F1",
"E  c #EBE5F1",
"W  c #EAE4F3",
"Q  c #ECE5F1",
"!  c #ECE6F0",
"~  c #EEE7F0",
"^  c #ECE5F2",
"/  c #ECE5F5",
"(  c #EDE6F4",
")  c #ECE6F5",
"_  c #EDE6F5",
"`  c #EEE7F4",
"'  c #EDE6F6",
"]  c #EDE7F6",
"[  c #EDE6F7",
"{  c #ECE6F2",
"}  c #EFE9F6",
"|  c #EFE8F6",
" . c #EEE7F8",
".. c #EEE7F8",
"X. c #EFE8F8",
"o. c #EFE8F8",
"O. c #F2EBF5",
"+. c #F0E9F7",
"@. c #F0EAF7",
"#. c #F1EAF7",
"$. c #F2EBF6",
"%. c #F0E9F9",
"&. c #F1EAF8",
"*. c #F1EBF8",
"=. c #F1EAF9",
"-. c #F1EBF9",
";. c #F2EBF9",
":. c #F0E9FA",
">. c #F0EAFA",
",. c #F1EAFA",
"<. c #F1EAFB",
"1. c #F2EBFA",
"2. c #F2EBFB",
"3. c #F3ECFA",
"4. c #F4ECFA",
"5. c #F4ECFB",
"6. c #F4EDFB",
"7. c #F5EEFB",
"8. c #F3ECFC",
"9. c #F3EDFD",
"0. c #F4EDFC",
"q. c #F4EDFD",
"w. c #F5EDFD",
"e. c #F5EEFD",
"r. c #F6EEFC",
"t. c #F7EFFC",
"y. c #F4EDFE",
"u. c #F4EEFE",
"i. c #F5EEFE",
"p. c #F5EEFF",
"a. c #F5EFFF",
"s. c #F6EFFE",
"d. c #F6EEFF",
"f. c #F6EFFF",
"g. c #F7EFFF",
"h. c #F5EEFE",
"j. c #F7F0FF",
"k. c #F7F0FF",
"l. c #F8F0FF",
"z. c #F8F1FF",
"x. c #F9F1FF",
"c. c #F9F2FF",
"v. c #FAF2FF",
"b. c #FAF3FF",
"n. c #FBF3FF",
"m. c #FBF4FF",
"M. c #FCF4FF",
"N. c #FCF5FF",
"B. c #FDF6FF",
"V. c #FEF7FF",
"C. c #FAF2FF",
/* pixels */
"; h 9.9.w.w.k.9.w.w.k.k.9.w.9.w.k.k.9.w.9.9.k.k.9.9.9.w.k.k.9.w.k.9.9.w.k.9.9.w.k.k.9.w.9.w.k.b.A k ",
"p N k.w.k.9.k.w.k.w.9.w.9.k.k.w.9.w.9.k.k.k.9.9.9.k.k.w.9.w.9.k.9.k.k.9.k.w.k.k.9.w.9.k.k.w.9.k.J B ",
"F Y w.w.9.k.9.k.b.k.k.k.k.c.b.b.b.c.k.k.c.c.k.k.k.c.b.b.k.b.k.b.c.c.c.c.k.c.k.c.k.b.k.w.k.9.9.k.:.! ",
"8.w.w.w.w.w.w.w.6.2.*.2.2.2.2.2.2.6.2.2.} k.} k.2.2.2.2.2.2.2.2.2.2.2.o.2.2.2.2.2.2.9.9.w.9.k.w.k.9.",
"k.k.w.w.k.k.2.V k p p p p a p p p p p p p p p p p p p p p p p p p p p p p p p p p s c P w.k.w.w.w.k.",
"9.9.k.k.k.c.o.v e , < 1 < , 1 1 1 1 1 1 < < < 1 < < 1 1 1 1 , 1 < 1 < 1 , 1 < 1 < 4 i F k.k.k.w.w.9.",
"w.k.w.w.6.k.} m u 7 8 9 9 8 8 8 8 8 8 8 8 9 9 9 8 9 9 9 9 9 8 8 9 9 9 8 9 9 9 8 8 9 g J 2.2.w.9.w.k.",
"w.9.w.:.A Z J K F A A A A S D A S S S S S S S S S S S S S S S S S S S S S S A A A A H } A Z K 9.k.9.",
"k.k.9.Y s y N } B.B.B.c.k.) ! ! [ ! ! ! Y ! ! Y ! ! E E E ! E E ! ! Y Y ! :.k.B.B.B.b.U s y B ! k.9.",
"9.k.w.J 5 - k K b.w.w.:.D x j j h h h j h j h j j j j h j h h j j h j h k N J k.w.w.w.J 5 - k L c.k.",
"9.k.w.J 4 - k L c.w.k.] v , $ $ $ $ $ $ $ $ $ $ $ $ $ $ $ $ $ $ $ $ $ $ % t V k.k.k.w.J 4 = k L c.k.",
"w.k.9.J 5 - k L c.w.k.:.V p r r r r r r r r r r r r r r r r r r r r r r t x D k.k.w.w.J 5 ; k Y c.w.",
"k.k.k.J 5 - k L *.D V J o.P K K J P P P P P P P P P P P P P P P P J P J K } P D V J w.J 5 - k J c.k.",
"9.w.9.J 5 - k ! D d 8 x w.k.w.k.9.8...] [ [ [ [ ] [ [ [ ) ) ] o.o.w.w.k.9.c.A d 9 x 9.J 5 ; k P c.w.",
"k.k.9.J 5 - k ! C r ; g k.k.k.k.8.M a w e e e e w e e e e e w r j K w.k.k.c.V r - h w.J 5 = k L c.k.",
"9.k.w.J 5 - k ! C e & s 9.w.k.c.:.x 0 ; : : : : : : : : : : : < t G k.b.k.B.V e & s w.J 5 ; k L c.k.",
"9.k.k.J 5 - k ~ C e * s w.w.:.:.} V j y u u i i u i y y i y y p z P 2.2.2.c.V e & d k.J 5 - j L c.9.",
"w.k.9.J 5 - k ~ C e * f w.:.B m F K K F H H H J K K K K K H H K K [ N m D k.C e * d w.J 5 - k K c.k.",
"w.k.w.J 4 - k ~ C e * s w.Y u w m } V.B.B.b.:.J S H H ~ O.B.N.N.b.P i 0 m O.C e * d w.J 5 - k K c.k.",
"9.k.w.J 5 - k ~ C e * f w.J 5 = k L c.w.w.8.Z s y t y c H k.7.7.9.J 4 - k ~ C e * f w.J 5 ; k K c.k.",
"w.9.w.J 5 - k ~ A e * d w.J 4 = k K c.k.k.} v < O . $ t C b.k.k.k.J 4 - l ~ C e * d w.J 5 - k Y c.w.",
"k.k.k.J 5 - k ~ C e = d 9.J 5 ; k K b.2.o.} A a % + 6 x J 2.:.2.w.J 5 - j ~ C e * d w.J 5 - k K c.k.",
"9.k.9.J 5 - k ~ C e & d w.J 5 - k L } Z b D 9.P i e m [ [ Z m D w.J 4 - l ~ C e * d w.J 5 - k P c.9.",
"w.k.9.J 4 - k ~ C e = d 9.J 5 - k ~ S i 2 f U o.F F Y o.B t 3 l k.J 4 - j ~ C e * d w.J 5 - k K c.k.",
"k.k.k.J 5 - k ! C e = d k.J 5 - k ~ S e o * a J :.w.+.m 9 # $ g w.J 5 - k ! C e * d 9.J 5 ; k K c.k.",
"w.9.9.J 5 - k ! C e * d 9.J 5 - k ~ C 9   @ t G k.B.2.c 4 o @ d 9.J 5 - k ! A e * f w.J 5 - k K c.k.",
"k.k.9.J 5 ; k ~ C e * d w.J 5 - k ~ A r $ 9 N U o.+.:.D g 2 & h k.J 4 - k ~ C e * d w.J 5 - k Y c.w.",
"9.k.w.J 5 - k ~ C e * f w.J 5 - k ! J x i b } :.v z D O.S k i N w.J 5 - k ! C e * d 9.J 5 - k K c.k.",
"9.k.9.J 5 - k ! C e * d w.J 4 - k L *.H C J [ m 6 < p Z L J A K k.J 4 - l L C e * d 9.J 5 - k K c.9.",
"w.k.w.J 4 - k ! C e * d w.J 4 - k K c.b.b.:.V w @ X > g F c.k.k.w.J 4 - j O.C e * f y.J 5 - k K c.k.",
"w.k.w.J 5 ; k ~ C e * f w.J 4 - k L c.k.b.] m 6 - % : p C k.k.k.w.J 3 - j ~ C e * d w.J 5 - k L c.k.",
"9.k.9.J 5 - k ~ C e * f 9.J 9 1 z L b.b.k.w.H c l l z V K k.b.k.b.J 9 1 z O.Z w * d y.J 5 ; k K c.k.",
"w.w.9.J 5 - k ~ C e * d w.[ f i B ] 6.:.:.4.:.w.w.w.k.2.2.*.:.2.9.Y f i B *.C e & d w.J 5 - k P c.k.",
"k.k.k.J 5 - k ~ C e * s w.9.Y J :.J D C Z Z Z Z Z Z Z Z Z C Z C F ..Y J } c.C e = d 9.J 5 - k K c.w.",
"9.k.9.J 4 - k ~ C e * d k.w.k.b.:.c q , < < < < 1 1 1 > < , , 3 u G w.k.k.c.V e & f w.J 5 = k L c.k.",
"w.k.9.J 5 - k ~ C e & d 9.w.w.k.+.c 0 : : > > > : > > > > > > 1 y F w.k.k.c.V w & d w.J 5 ; k L c.9.",
"k.k.k.J 5 - k ~ A t : h w.k.9.k.6.J Z N N N N N N N N N N N N N A o.w.w.k.b.C t : j w.J 4 - k P c.k.",
"9.w.9.J 5 - k L K m j V k.c.c.c.c.b.6.6.O.7.*.7.k.*.7.*.k.*.7.*.w.b.b.b.b.b.J m j V w.J 5 ; k J c.k.",
"k.k.9.J 5 - k Y k.K G P F b x x z x c c c c c c c c c c c c c c x x z z x V J Y G [ w.J 4 - k Y c.k.",
"9.k.w.J 4 - j K c.k.k.} N 9 1 1 1 1 1 1 2 2 1 1 1 1 1 1 1 1 1 1 1 1 1 1 4 s C b.k.k.w.J 4 - k L c.9.",
"9.k.w.J 4 = j K c.k.k.o.M e 6 5 6 4 6 6 4 6 6 6 7 4 6 6 6 5 6 6 4 6 6 4 7 f D w.w.k.w.J 4 = k L c.k.",
"w.k.w.J q 5 v ! V.c.b.9.K N n m n n n n n n n n n n n n n n n n n n n n m A R b.k.b.b.J q 5 c Y k.k.",
"w.k.w.[ l h Z ! *.! ! [ O.O.O.*.+.O.+.+.*.O.*.O.O.O.O.O.*.O.:.+.O.O.+.O.O.+.! ] ! ] } U l h Z ] k.w.",
"k.9.w.9...[ o.F B v v v c v v v n v v v v v v v v v v v v v v v v v v v n v v v v b V ] [ [ 8.w.k.w.",
"9.9.w.k.k.c.2.x 0 ; ; : : : : : : : : : : : : : : : : : : : : : > : : : : : : : ; , t G w.b.w.w.k.9.",
"w.k.w.9.9.b.+.v e < 3 3 3 3 3 3 2 3 3 3 3 3 3 2 2 2 3 3 2 2 2 3 3 3 3 2 2 2 3 2 2 5 p G 9.w.w.w.w.9.",
"k.w.k.9.w.w.w./ J D D D D F D D D D D D D D D D D F D D D D D D D F D D D D D D D F J 9.k.w.k.9.w.k.",
"9.9.k.w.w.w.w.w.w.:.8.8.:.w.:.4.w.:.9.2.w.:.9.2.2.2.2.2.8.8.8.9.:.w.:.4.9.9.:.9.9.9.9.w.9.9.k.w.w.9.",
"b D 9.k.w.9.w.k.k.k.w.k.w.k.k.k.w.k.k.k.w.k.w.k.k.k.w.k.w.k.k.k.w.w.k.k.k.k.k.w.k.k.k.w.k.9.k.k.Y D ",
"0 v w.w.w.k.k.9.w.9.k.9.k.9.w.9.k.9.w.9.k.9.k.9.w.9.k.9.k.9.w.9.k.w.w.w.w.w.k.9.w.9.9.w.k.w.9.k.F b "
};
