/* XPM */
static char *xpm_[] = {
/* columns rows colors chars-per-pixel */
"50 50 218 2 ",
"   c #1B1D2D",
".  c #171929",
"X  c #1B1E31",
"o  c #261F2F",
"O  c #1E2235",
"+  c #1D223B",
"@  c #21263A",
"#  c #262636",
"$  c #362835",
"%  c #2C222E",
"&  c #5A353C",
"*  c #572B3B",
"=  c #673C3C",
"-  c #72443E",
";  c #341F40",
":  c #1D2547",
">  c #292F45",
",  c #242B47",
"<  c #352042",
"1  c #3A2846",
"2  c #2D344D",
"3  c #26304B",
"4  c #343645",
"5  c #363846",
"6  c #37364B",
"7  c #222E5B",
"8  c #242E52",
"9  c #2F3853",
"0  c #2A3754",
"q  c #333C57",
"w  c #343D58",
"e  c #253261",
"r  c #27366D",
"t  c #28376E",
"y  c #2A396B",
"u  c #383B66",
"i  c #293871",
"p  c #283A78",
"a  c #571F57",
"s  c #4B284E",
"d  c #542657",
"f  c #5B255B",
"g  c #58295A",
"h  c #513C5A",
"j  c #512751",
"k  c #622B5B",
"l  c #703753",
"z  c #6A3B6B",
"x  c #37405A",
"c  c #39425C",
"v  c #3F4250",
"b  c #3D404D",
"n  c #3B4566",
"m  c #3B497C",
"M  c #3E5868",
"N  c #474855",
"B  c #56515B",
"V  c #6C454A",
"C  c #434B64",
"Z  c #484E65",
"A  c #4B536B",
"S  c #50586F",
"D  c #575664",
"F  c #565D73",
"G  c #5A5E70",
"H  c #454D7A",
"J  c #724472",
"K  c #774A77",
"L  c #67526D",
"P  c #5A6176",
"I  c #5B6378",
"U  c #63697C",
"Y  c #676B79",
"T  c #786670",
"R  c #943B4A",
"E  c #854B47",
"W  c #8D5146",
"Q  c #8F4C52",
"!  c #A44C4B",
"~  c #B65E50",
"^  c #B9634F",
"/  c #A26059",
"(  c #A86E7D",
")  c #A36565",
"_  c #8B6A66",
"`  c #CA6B53",
"'  c #D96555",
"]  c #D37151",
"[  c #C86F55",
"{  c #E37456",
"}  c #EC7B57",
"|  c #E47A5B",
" . c #E67659",
".. c #F37E57",
"X. c #C65154",
"o. c #F58057",
"O. c #DB8B72",
"+. c #2B3F83",
"@. c #2E438A",
"#. c #2E4694",
"$. c #304A9D",
"%. c #314993",
"&. c #354888",
"*. c #334EA5",
"=. c #334FAB",
"-. c #3553AC",
";. c #3A53A8",
":. c #3959BD",
">. c #3655B6",
",. c #3D69AE",
"<. c #495A95",
"1. c #4A5783",
"2. c #676D82",
"3. c #6B7184",
"4. c #6F7688",
"5. c #7B7B84",
"6. c #707689",
"7. c #73798C",
"8. c #7A7E8F",
"9. c #697295",
"0. c #4D5AAD",
"q. c #5264BA",
"w. c #596EB3",
"e. c #3A5BC5",
"r. c #3659C9",
"t. c #3B5DCA",
"y. c #3758C2",
"u. c #3D64CB",
"i. c #416BCD",
"p. c #4D6CCD",
"a. c #4766C8",
"s. c #506ECF",
"d. c #5A75CF",
"f. c #5973C2",
"g. c #477CD3",
"h. c #5A77D0",
"j. c #835D85",
"k. c #967697",
"l. c #89678A",
"z. c #AA7183",
"x. c #7C8192",
"c. c #78859B",
"v. c #7E808B",
"b. c #7180B2",
"n. c #4981D5",
"m. c #778DD5",
"M. c #7D91D3",
"N. c #6B86CD",
"B. c #58ABC5",
"V. c #61A5CE",
"C. c #5CB3E4",
"Z. c #57A5E0",
"A. c #64C9EC",
"S. c #6BDAF1",
"D. c #6AD8EE",
"F. c #8A8C93",
"G. c #868B9A",
"H. c #8A8E9B",
"J. c #92949D",
"K. c #8B909E",
"L. c #858DA7",
"P. c #8F95AB",
"I. c #8E92A2",
"U. c #9295A4",
"Y. c #9499A6",
"T. c #9D9EA4",
"R. c #9A9AAB",
"E. c #939CB9",
"W. c #A98EA9",
"Q. c #AA92AB",
"!. c #A391A9",
"~. c #9FA3B6",
"^. c #A3A5AB",
"/. c #A3A7B1",
"(. c #A6AAB5",
"). c #A9ABB6",
"_. c #A7ABB9",
"`. c #B3B4BD",
"'. c #B8ACBA",
"]. c #D2B8B2",
"[. c #909FCF",
"{. c #8B9DD5",
"}. c #8B9EDB",
"|. c #869ADB",
" X c #899ACF",
".X c #98A3C6",
"XX c #98A6D4",
"oX c #AEB5CC",
"OX c #B9BAC4",
"+X c #A7B2D5",
"@X c #B6BCD2",
"#X c #A5ACC0",
"$X c #9BACE1",
"%X c #BDC0C7",
"&X c #BEC1C8",
"*X c #B8C2D8",
"=X c #C4C5CC",
"-X c #C8C2CB",
";X c #CDCDD3",
":X c #C1C6D6",
">X c #CFD0D4",
",X c #D1D2D5",
"<X c #D9D9DD",
"1X c #D4D6D9",
"2X c #D5CAD0",
"3X c #CDD3E7",
"4X c #DDDEE2",
"5X c #D8DEF1",
"6X c #D4DBF1",
"7X c #C8CEE2",
"8X c #E2DBE1",
"9X c #DDE1ED",
"0X c #DEE1E5",
"qX c #DAE0F3",
"wX c #E2E3E5",
"eX c #E0E3EB",
"rX c #E8E4E8",
"tX c #EAD7D1",
/* pixels */
"q q q q q q w q q q q q q q q 9 x C U x.k.x.x.x.x.x.G.8.8.x.x.6.F c q w q q q q w q q q w q q q q q ",
"q q q q q q q q q q q q q q x 9 q S K.%X&X@X%X%X%X%XOXOXOX&X&X(.7.c 9 q q q q q q q q q q q q q q q ",
"q q q q q w q q q q q x q q x c A 4.).8X8X8X8X8X4X4X8X8X8X8X8X-XU.G n w q q q q q q q q q q q q q q ",
"q q w q q q q q q q q q q q c P G.U.!.Q.W.W.W.W.!.W.W.W.W.W.W.!.R.U.3.Z q q q q q q w q q q q q w q ",
"q w q q q q q q q q q q q q c x.=XOXk.z K z z K K z J J J J J j.Q.;XU.F w q q q q q q q q q w q q q ",
"q q q q q q w q q q q q q q C G.8X2Xk.a f f f f f f f f f f a J Q.rX_.I q q q q q q q q q w q q q q ",
"q q q q q q q q q q q q 9 q C G.<X-Xk.f f f k f f f f f k f f K Q.8X/.P w 9 q q q w q q q q q q q q ",
"q q q w q q q q q q q q x C P G.&X'.l.k f k f f d d d d d g z j.!.;XU.F w w q q q q q q q q q q q w ",
"q q q q w q q q q w q q Z 7.U.J.5.Y J f f f d < < < $ $ ; h k.Q.T.G.U C w q w q x 9 x 9 q q q q q q ",
"q w q q q q q q q q q q F (.>X^.N 4 s f k k j % % o o o o B -X,XY.Z q q q w q q 9 x 9 x q w q q q q ",
"q q q q q q q w q q q q F ).1X=X5.L h s l Q Q V l & * & l _ 2X1XY.C 9 x q q q q x q x 9 q q q q q w ",
"q w q q q q q q q q q q F (.<XwX-X^.L $ E ~ [ ^ ~ ! R ! ~ O.tX1XY.n 9 x q q q q q q 9 x q q q q q q ",
"q q w q q q q q q q C S 7.~.7X6X3X#XP $ W ] o.o.{ ' X.' ] O.].`.J.I A c q q q q q q q q q q w q q q ",
"q q q q q q q q q w I Y.oX[.m.m.m.w.n $ W ] o.o.{ { ' { } ] _ Y G.`.x.S w q q q q q q q q q q q q q ",
"q q q q q q w q 2 c 3.OX3X}.d.i.a.;.y $ E [ } | { | o.O.o.^ & B G.,XR.P q 9 q q q q q q q q q q q q ",
"w q q q q q q q 9 c 6.=XqX|.p.r.t.-.@.u V W / ( z.( z.) W - % b F.0X(.I w q w q q q q q q q q w w q ",
"w q q q q q q q 9 c 4.=X6X|.p.e.u.e.:.*.u 2 u 0.q.a.0.H 1 % # N F.<X/.P q 9 9 x 9 x 9 x q q q q w q ",
"q q q q q q q q 9 c 4.=X6X}.p.r.t.t.t.>.@.t p 0.t.t.y.#.i u N Y H.`.G.A q q x 9 x 9 x 9 q q q q q q ",
"q q q q q q q q 9 c 6.=XqX}.p.r.t.t.u.e.-.$.*.e.y.r.y.=.$.<.P./.J.6.F n q q q x 9 w 9 x q q q q q q ",
"q q q q w q q q 9 c 3.`.7X{.d.u.:.:.e.t.t.e.t.i.i.i.i.i.i.N.@X=XJ.P c x q q x 9 w q x 9 w q q q q q ",
"q q q q q q q q q x A 4.P..XXXb.m @.*.t.t.u.g.Z.C.C.C.C.C.V.c.v.H.T.6.A w w q q w w w q q q q q q q ",
"q q q w q q q q w q c C 2.(.&XY.w 7 %.t.t.u.n.A.S.S.S.S.S.B.M D F.>XY.P w 9 w q q w q q q q q q q q ",
"q q q q q q q q q q q 9 S (.>XT.5 8 @.t.t.u.g.C.A.A.D.A.A.B.x b F.<X(.P w 9 q q q q q q q q q q q q ",
"q q q q q q q q q q q q P (.>XT.5 8 %.t.t.t.i.g.n.n.n.n.u.,.: b F.0X/.P w w q q q q q q q q w q q w ",
"q w q q q q q q x 9 9 x P (.>XT.5 , p =.-.-.-.-.-.-.-.-.-.%.e M U.0X/.P x 9 w q q q q q w q q q q q ",
"q q w q q q q q 9 x x 9 P (.>XT.5 : 7 r i i r i r r r r i i m <.E.eX/.P x 9 q q q q q q q q q q q q ",
"q q q q q q w q x 9 9 x P (.>XT.5 O X + + + + + + + + + + 8 $.p.XXeX/.P w 9 w q q x q w q q q q q q ",
"q q q q q q q q q x 9 9 S (.>XT.5   . O 8 e r r r r r r r @.>.h.$XeX/.P q q w w q q q q q q w q w q ",
"q q q q q q w q x 9 9 x P ).>XT.5     + r #.=.*.*.*.*.*.*.=.r.h.XX9X/.P q q q q q q q q q q q q q q ",
"w q q q q q q q 9 x x 9 P _.>XT.5   . + i $.>.r.t.u.t.:.=.=.=.w.XX9X/.P q q q q q q q q q q q q q q ",
"q q q q q q q q x 9 x 9 F (.1XT.5   .   : 7 @.>.t.t.e.%.p e e H P.0X/.P q q q q q q q q q w q q q q ",
"q q q q w q q q 9 x x n 2.(.&XI.5 O # 4 4 q m q.p.s.p.&.u 2 , M I.0X/.P q q q q q q q q q q q q q w ",
"q q x q q q q q 9 x A 6.P..X.X9.> 4 D Y F.Y c. X}.}.}.L.8.U n 1.P.4X(.F w 9 w q q q q q q q q q q q ",
"q q q q q q q q 9 c 2.`.7X{.f.&.> N J.<X<X4X4X0X9X9X9X5X4X@Xf.f.XX9X/.I q q w q q q q q w q q q q q ",
"q q q q q q q x 9 x I /.@X[.N.w.S Y T.&X-X&X=X=X=X=X=X=X=XoXM.m.XXOXG.S q q q w q q q q q q q q q q ",
"q q q q q q q q q x A 2.L..XoXoX/.T.G.x.F.v.x.x.x.x.x.x.v.L.+X+XE.c.I C q q q q w q q q q w q q w q ",
"q q q q q q q q q q q q S T.>XwX<XOX4.x q q q q w w q q x I OX&XH.C q q q q q q q q q q q q q q q q ",
"q q q q q q q q q q q q C 3.G.Y.U.x.S x 9 q q q q q q 9 q Z x.x.I c q q q q q q q q q q q q q q q q ",
"q q q q q q q q q q q q c C A S A Z c q q q q q q q q q w c A A C w w q q q q q q q q w q q w q q q ",
"q q q q w q q q q q q q w q 9 q q q x q q q q q q q q q q q 9 q w w w q q q q q w q q q q q q q q w ",
"q q q q q w q q q q q q q q q q q q q q q q q q q q q q q q q q q q q q q q q q q q q q q q q q q q ",
"q q q q q q q q q q q w q q q q q q q q q q q q q q q q q q q q q q w q w q q q q q q q q q q w q q ",
"w q q w q q q q q q q q q q q q q q q q q q q q q q q q q q q q q q q q q q q q q q q q q q q q q q ",
"q q q q q q q w q q q q q q q q q q q q q 9 q q 9 q q q q q q q q q q q q q q w q q q w q q q q q q ",
"q q q w q q q q q q q q q q q q 9 9 2 > > > > > > > > 2 q q q q q q q q q q q q q w q q q q q q w q ",
"q q q q q q q q q q q w q q q q x 9 > O O O O O O O @ > q q q q q w q q q q q q q q q q w q q q q q ",
"q q q q q w q q q q q q q q q q 9 2 @ O O   .     O # > 2 q q q w q q q q q q q q q q q q w q q q q ",
"w q q q q q q q q w q q q q w q q x 2 > @       O @ > 2 q q q q q q q q q w q q q q q q q q q q q q ",
"q q q q w q q q q q q q q q q q q q q 0 > O O   @ > q q q q q q q q q q q q q q q q q q q q q q w q ",
"q q q q q q q q w q q q q w q q q q w 9 > O O O @ 2 q q q q q q q q q q w q q q q q w q q q q q q q "
};
