/* XPM */
static char *xpm_[] = {
/* columns rows colors chars-per-pixel */
"50 50 213 2 ",
"   c #151727",
".  c #16182A",
"X  c #1A1C2C",
"o  c #181927",
"O  c #1B1F32",
"+  c #241F32",
"@  c #201A2E",
"#  c #1E2134",
"$  c #1D223C",
"%  c #29222D",
"&  c #212232",
"*  c #212639",
"=  c #242A3E",
"-  c #2A2A39",
";  c #372936",
":  c #2F303F",
">  c #30313F",
",  c #402D33",
"<  c #4D2B36",
"1  c #58363B",
"2  c #633C37",
"3  c #7E483D",
"4  c #1F2543",
"5  c #1F2849",
"6  c #1F2C5C",
"7  c #262B41",
"8  c #21294C",
"9  c #2A2F46",
"0  c #2C344C",
"q  c #2A3147",
"w  c #383848",
"e  c #232D54",
"r  c #232E59",
"t  c #2E3751",
"y  c #2F3853",
"u  c #24305C",
"i  c #29355A",
"p  c #333C57",
"a  c #343E58",
"s  c #303750",
"d  c #27366A",
"f  c #28366C",
"g  c #263464",
"h  c #283872",
"j  c #2B3D7B",
"k  c #273974",
"l  c #323F6C",
"z  c #42234A",
"x  c #48264A",
"c  c #5B255B",
"v  c #552857",
"b  c #53354E",
"n  c #793F4B",
"m  c #663251",
"M  c #5D3360",
"N  c #622E62",
"B  c #37405A",
"V  c #3B435C",
"C  c #2A435F",
"Z  c #2E4D61",
"A  c #3E4661",
"S  c #314179",
"D  c #474958",
"F  c #4F505D",
"G  c #50515D",
"H  c #444C65",
"J  c #474F68",
"K  c #4B536B",
"L  c #50586F",
"P  c #565767",
"I  c #555D73",
"U  c #575E77",
"Y  c #4F506F",
"T  c #724673",
"R  c #7B507B",
"E  c #5D6479",
"W  c #5A6076",
"Q  c #6C6D77",
"!  c #6F707A",
"~  c #71727B",
"^  c #834A3E",
"/  c #843D4F",
"(  c #8F4A45",
")  c #AB5E4A",
"_  c #A55949",
"`  c #B65454",
"'  c #B3614F",
"]  c #8E726F",
"[  c #CC5A52",
"{  c #DA7253",
"}  c #D46B53",
"|  c #E27455",
" . c #EB7958",
".. c #F27E58",
"X. c #CB7961",
"o. c #F58058",
"O. c #C18A7B",
"+. c #E7977E",
"@. c #2B3E81",
"#. c #2C4183",
"$. c #2E438B",
"%. c #35498C",
"&. c #2E4590",
"*. c #2F479B",
"=. c #314895",
"-. c #314A99",
";. c #3F5396",
":. c #324DA3",
">. c #344FA8",
",. c #3551AA",
"<. c #3B54A3",
"1. c #3653B2",
"2. c #3959BB",
"3. c #314FB1",
"4. c #3C67A6",
"5. c #485A97",
"6. c #455385",
"7. c #7E5D80",
"8. c #56659A",
"9. c #676D81",
"0. c #6B7184",
"q. c #6F758F",
"w. c #777B88",
"e. c #797F90",
"r. c #777E99",
"t. c #425EB8",
"y. c #4964BB",
"u. c #536BB9",
"i. c #6478B8",
"p. c #6677AD",
"a. c #3A5BC4",
"s. c #3B5DCA",
"d. c #3659C8",
"f. c #3C5FD0",
"g. c #3D62C8",
"h. c #4565CC",
"j. c #5A75C8",
"k. c #456BD0",
"l. c #5875D0",
"z. c #4A76CF",
"x. c #667FCF",
"c. c #855D85",
"v. c #8B668B",
"b. c #9A7E9C",
"n. c #7E8393",
"m. c #4B8CB1",
"M. c #7782A6",
"N. c #7F8AB0",
"B. c #52A0B7",
"V. c #4A85D7",
"C. c #5299DE",
"Z. c #6681D4",
"A. c #6983D3",
"S. c #748CD5",
"D. c #7F92CF",
"F. c #57A6DD",
"G. c #59ACE4",
"H. c #5DB5E5",
"J. c #64C7EB",
"K. c #69D6EF",
"L. c #67D0E9",
"P. c #6BDAF3",
"I. c #818697",
"U. c #8A8A98",
"Y. c #8C919E",
"T. c #919299",
"R. c #80818B",
"E. c #8E93A1",
"W. c #8D95AC",
"Q. c #9499A5",
"!. c #999BA6",
"~. c #8E94AE",
"^. c #A994AC",
"/. c #A99DB0",
"(. c #9EA2AC",
"). c #9AA0B2",
"_. c #A2A2AC",
"`. c #A7AAB4",
"'. c #ADADB4",
"]. c #A6AAB7",
"[. c #BFABBE",
"{. c #B2ABB7",
"}. c #AEB1B9",
"|. c #B3B6BE",
" X c #B5B6BA",
".X c #E3C3B9",
"XX c #8498D9",
"oX c #98A4CE",
"OX c #93A3D6",
"+X c #A5ADCB",
"@X c #A8B3D4",
"#X c #ADB4CE",
"$X c #849BE4",
"%X c #9EAEE0",
"&X c #B3BEE5",
"*X c #A9B7E2",
"=X c #C1B0C1",
"-X c #BEC1C7",
";X c #B9C4E9",
":X c #C9CACE",
">X c #C7C5CB",
",X c #CACBD2",
"<X c #CFD1DB",
"1X c #D5D4DA",
"2X c #D9DADC",
"3X c #E3CDC6",
"4X c #DCDDE1",
"5X c #D3D8E9",
"6X c #C9CFE3",
"7X c #DDE0EB",
"8X c #E5E3E6",
"9X c #E6E6EC",
"0X c #E3E6F2",
/* pixels */
"p p p p p p p p p p p a p p p a p p p p p p p p p p p p p p p p p p p p p p p p p p p p p p p p p p ",
"p p p p p p p p p p p p p p p p p p p p p p p p p p p p p p p p p p p p p p p p p p p p p p a p p p ",
"p p p p p p p p p p p p p p p p p p p y p p p p p s p p p p p s p p p p p p p p p p p p p p p p p p ",
"p p p p p p p p p p p p p p p p p p a a p s p s p p p p s p p p p p p p p p p p p p p p p p p p p p ",
"p p p p p p p p p p p a p p p p p y V H J J J K K J J K J K J K H H p p y a p p p a p a p p a p p p ",
"p p p p p p p p p p p p p p p a a y J w.E.!.Q.Q.Q.Q.Q.Q.Q.Q.Q.Q.U.E a p a p p a p p p p p p p p p p ",
"p p p p p p p p p p p p p p a a a B 9.#X4X9X8X8X8X8X8X8X8X8X8X8X,XY.L a a a a a p p p p p p p p a p ",
"p p p p p p p p p p p p a p y V L 0.U./.[.=X[.[.[.[.[.[.[.[.[.[.{.Q.n.E A a y a p p p p p p p p p p ",
"p p p p p p p p p p p p p p y H 0.].[.b.c.c.v.c.c.c.v.c.c.c.c.c.b.^.#XE.Y a y a p p p B p p p p p p ",
"B p p p p p p p p p p p p p y J I.4X>Xv.N c c c c c c c c c c c N ^.1X=XW b y a p p p p p p p p p p ",
"p p p p p p p p p p p p p p t H I.4X>Xv.N c c c c c c c c c c c N ^.1X#XU B p a p p p p p p p p p p ",
"p p p p p p p p p p p p p B B L I.,X=Xc.c c c c c v c c c v c N ] ^.>X].I C y a p p p p p p p p p p ",
"p p p p p p p p p p p p a A E n.Y.!.U.T N c c c x z z x z x M 7.T.^.^.n.J B p p p p p p p p p p p p ",
"p p p p p p p p B p p p p J !.>X!.P x v c c c x ; + + @ @ - P '.,XE.U A B p p p p p p p p p p p a p ",
"p p p p p p p p p p p p p K `.1X-X~ G b v m / / m 1 2 < < 2 ] >X4XE.K t p p p p p p p p p p p p p p ",
"p p p p p p p B p p p a B K `.4X2X>XU.P ; n ` ' ` _ ^ / / ) O.3X2XY.K s p p p p p p p p p p p p p p ",
"p a p p p p p p p p p B H E ).5X8X0X}.P ; ^ { o.o.} [ ` [ | +..X:XT.W A B B p p p p p p p B p p p p ",
"p p p p p a p p p p p E E.].oXXXXXXXp.A ; ^ { o.o. . .{  . .X.] w.T.(.n.F B s C p p p p p y p p p a ",
"p p p p p p p p p B A e.#X<XXXj.k.k.<.i % 3 } | { { { { { { ' 2 V R. X_.W A V B p p p p p B p p p p ",
"p p p p p p p p V L 9.W.@X*XS.h.s.s.*.g & 3 ( ) ) ) ' ) ) _ ( ; : Q !.(.n.E K B p p p p p p p p p p ",
"p p p p p p p y K n.#X#XS.l.h.h.s.s.:.r @ % ; , , ; ; , , ; ; % O : D w.|.}.q.y p p p p p p p p p p ",
"p p p p p p p p K Y.2X;XA.g.s.a.2.,.@.e O 7 e r t e t e i e 8 # X X - Q :X:Xn.B p p p p p p p p p p ",
"p p p p p p p p K E.8X&XZ.s.d.a.:.j e * O r @.&.&.&.$.&.=.&.h 5 o X * Q ,X,Xn.p s B p p p p p p p p ",
"p p p a p p p p K Y.2X&Xx.a.d.1.@.e O O 5 j 1.s.a.g.g.g.g.2.-.e o & > ~ >X>Xn.y B y p p p p p p a p ",
"p p p p p p p p L E.4X#X8.h k k u $ $ g #.,.g.g.C.G.G.G.G.F.m.i - P R.T.T.n.W B p p p p p p p p p p ",
"p p p p p p p y K E.4X].L 7 4 $ # X 8 $.1.g.g.C.H.K.P.P.P.L.B.Z w ~  X`.! L V p p p p p p p p p p p ",
"p p p p a p p y K E.4X}.U e $ X X o r -.g.g.g.V.H.J.J.J.J.J.B.C > ~ _._.w.E J p p p p p p p p p p p ",
"p p p a p p p y K E.4X@Xi.&.e O o o r -.d.f.f.g.z.V.V.V.V.V.4.i & w G e.}.).0.B p a p p p a p p p p ",
"p a p p p p p p K E.4X&XZ.2.S e $ X 5 #.:.,.>.>.,.,.,.,.,.>.#.e X X = ! :X>Xe.p p p p p p p p a p p ",
"p p p p p p p y K Y.4X;XZ.d.:.#.d $ $ u d k d d d d d d f d u $ X X - Q :X:XI.p p p p p p p p p p p ",
"p p p p p p p y L Y.2X&XZ.g.d.1.#.4 X $ # $ $ $ $ $ $ $ $ $ # # O X = ! ,X:XI.p p p p p p p p p p p ",
"p p p p p p a y K Y.4X;XZ.d.d.2.$.5 X o # 8 i d d d d d d d 6 $ O 5 l r.<X,Xr.p p p p p p p p p a p ",
"p p p p p p p y Y Y.2X&XA.h.g.2.$.8 X X # d =.,.,.,.,.,.3.:.@.8 $ h <.XX5X,Xn.a y a a a y a y a p p ",
"p p p p p p p p J q.#X+XD.A.Z.i.5.9 X X $ g *.3.a.d.s.d.2.:.@.8 4 @.t.XX5X,Xn.y y a y a a a p a p p ",
"p p p a p p p p V K 0.W.@X;X;X@Xr.w     . $ r @.3.d.d.d.*.d e O 4 @.t.$X5X,Xn.p a a a a a y p p p p ",
"p p p p p p p p B B V q.|.1X0X4X!.H = w w B V Y u.z.j.j.;.i 4 O $ k ;.XX5X,Xn.p y a y a a a p p p p ",
"p p p p p p p p a a a L n.(.,X4XoX5.6.q.U.T.Y.!.oX%X%XOXi.6.g 7 O e S M.1X,Xn.a y a a a p a y a p p ",
"p p p p p p p p p y p V H E }.<X@Xj.x.+X1X2X2X2X4X4X4X5XOXu.$.e O O q 0.:X>Xn.p a a y a p p p a p p ",
"p p p p p p a p p p p y y A n.).N.5.8.E.'.'.'.'.{.'.'._.p.5.j r $ $ : L !.Q.9.p p a a y p p p a p p ",
"p p a p p p p p p p p a B V L W K y i V G G F F J G G F D i e 0 0 0 t D I I H a a y a y a a a y p a ",
"p p p p p p p p p p p p p a B a 0 = # # & & & & & # & & # * 7 0 p p p a a a a p a a a a a a p p p p ",
"p p p p p p p p p p p p p p y t 0 q = #               o # 7 q t p a a y a y p p a y y a y a p p p p ",
"p p p p p p p p p p p p p p a a p p 0 * O O O O X # O # 7 0 p p p p p a a p p p a a a a p p a y p p ",
"a p p p p a p p a p p p p p p p p a t q = = = = = = = 7 q p p p p p p p p p p p a y y a p p a a p p ",
"p p p p p p p p p p y a a p p p p p y t t t s s t t s t y p p p p p p p p p p p p a p p p a a p p p ",
"p p p p p p p a a a a p p p p p p p B p y a p B a p a p a p p p p p p p a p p p p p p p a y p p p p ",
"p p p p p p a a y a p p a p p p p p p p B p p p p p p p p p a p p p p p p p p p p p p p p p p a p p ",
"a p p p a a y a y a a a y p p p p p p p p p p p p p p p p p p p p p p p p p p p p p p p p p p p p a ",
"p p p p p p p p p p p p p p p p a p p p p p p p p p p p p p p p p p p p p p p p p p a p p p p p p p ",
"p p p p p p p p p a p p p p p p p p p p p p p p a p p p p p p p p p a p p p p p p p p p p p p p p p "
};
