/* XPM */
static char *xpm_[] = {
/* columns rows colors chars-per-pixel */
"50 50 43 1 ",
"  c #333C57",
". c #323B56",
"X c #38445E",
"o c #4B5C76",
"O c #566B85",
"+ c #566C86",
"@ c #333B56",
"# c #353E59",
"$ c #38435E",
"% c #3F4C67",
"& c #4D607A",
"* c #414F6A",
"= c #4A5B76",
"- c #526680",
"; c #363F5A",
": c #3E4B66",
"> c #4A5D77",
", c #546A84",
"< c #475771",
"1 c #4B5D77",
"2 c #516680",
"3 c #566D87",
"4 c #536882",
"5 c #546983",
"6 c #556A84",
"7 c #576E88",
"8 c #576D87",
"9 c #50647E",
"0 c #475772",
"q c #4F637D",
"w c #353F5A",
"e c #3E4A65",
"r c #4A5B75",
"t c #323A55",
"y c #37415C",
"u c #485873",
"i c #51657F",
"p c #343D58",
"a c #36405B",
"s c #3C4863",
"d c #4C5E78",
"f c #556B85",
"g c white",
/* pixels */
" . XoO++++++++++++++++++++++++++++++++++++++OoX . ",
"@#$%&O++++++++++++++++++++++++++++++++++++++O&%$#@",
"@$*=-O++++++++++++++++++++++++++++++++++++++O-=*$@",
";:>,++++++++++++++++++++++++++++++++++++++++++,>:;",
"<12+3++++++++++++++++++++++++++++++++++++++++3+21<",
"456++++++++++++++++++++++++++++++++++++++++++++654",
"3++++++++++++++++++++++++++++++++++++++++++++++++3",
"++++++++++++++++++++++++++++++++++++++++++++++++++",
"++++++++++++++++++++++++++++++++++++++++++++++++++",
"++++++++++++++++++++++++++++++++++++++++++++++++++",
"++++++++++++++++++++++++++++++++++++++++++++++++++",
"++++++++++++++++++++++++++++++++++++++++++++++++++",
"++++++++++++++++++++++++++++++++++++++++++++++++++",
"++++++++++++++++++++++++++++++++++++++++++++++++++",
"++++++++++++++++++++++++++++++++++++++++++++++++++",
"++++++++++++++++++++++++++++++++++++++++++++++++++",
"++++++++++++++++++++++++++++++++++++++++++++++++++",
"++++++++++++++++++++++++++++++++++++++++++++++++++",
"++++++++++++++++++++++++++++++++++++++++++++++++++",
"++++++++++++++++++++++++++++++++++++++++++++++++++",
"++++++++++++++++++++++++++++++++++++++++++++++++++",
"++++++++++++++++++++++++++++++++++++++++++++++++++",
"++++++++++++++++++++++++++++++++++++++++++++++++++",
"++++++++++++++++++++++++++++++++++++++++++++++++++",
"++++++++++++++++++++++++++++++++++++++++++++++++++",
"++++++++++++++++++++++++++++++++++++++++++++++++++",
"++++++++++++++++++++++++++++++++++++++++++++++++++",
"++++++++++++++++++++++++++++++++++++++++++++++++++",
"++++++++++++++++++++++++++++++++++++++++++++++++++",
"++++++++++++++++++++++++++++++++++++++++++++++++++",
"++++++++++++++++++++++++++++++++++++++++++++++++++",
"++++++++++++++++++++++++++++++++++++++++++++++++++",
"++++++++++++++++++++++++++++++++++++++++++++++++++",
"++++++++++++++++++++++++++++++++++++++++++++++++++",
"++++++++++++++++++++++++++++++++++++++++++++++++++",
"++++++++++++++++++++++++++++++++++++++++++++++++++",
"++++++++++++++++++++++++++++++++++++++++++++++++++",
"++++++++++++++++++++++++++++++++++++++++++++++++++",
"++++++++++++++++++++++++++++++++++++++++++++++++++",
"++++++++++++++++++++++++++++++++++++++++++++++++++",
"++++++++++++++++++++++++++++++++++++++++++++++++++",
"++++++++++++++++++++++++++++++++++++++++++++++++++",
"++++++++++++++++++++++++++++++++++++++++++++++++++",
"++++++++++++++++++++++++++++++++++++++++++++++++++",
"78++++++++++++++++++++++++++++++++++++++++++++++87",
"9-5++++++++++++++++++++++++++++++++++++++++++++5-9",
"*0qO3++++++++++++++++++++++++++++++++++++++++3Oq0*",
"wer4++++++++++++++++++++++++++++++++++++++++++4rew",
"ty%ui++++++++++++++++++++++++++++++++++++++++iu%yt",
" pasdf++++++++++++++++++++++++++++++++++++++fdsap "
};
