/* XPM */
static char *xpm_[] = {
/* columns rows colors chars-per-pixel */
"85 85 168 2 ",
"   c #171626",
".  c #181727",
"X  c #181728",
"o  c #1A1C2C",
"O  c #1C1F31",
"+  c #1B202F",
"@  c #1D2232",
"#  c #1F2837",
"$  c #1F2938",
"%  c #202437",
"&  c #22263A",
"*  c #222B3B",
"=  c #22303F",
"-  c #262B40",
";  c #292F45",
":  c #243443",
">  c #2A3047",
",  c #263846",
"<  c #2C334C",
"1  c #273A49",
"2  c #283D4C",
"3  c #2F3750",
"4  c #333C57",
"5  c #333D59",
"6  c #29414F",
"7  c #2B4654",
"8  c #2C4956",
"9  c #2F4D5B",
"0  c #33415E",
"q  c #30515F",
"w  c #344363",
"e  c #344768",
"r  c #35496C",
"t  c #325562",
"y  c #345966",
"u  c #365E6B",
"i  c #354D72",
"p  c #365176",
"a  c #36547B",
"s  c #37587F",
"d  c #38587F",
"f  c #37616E",
"g  c #386471",
"h  c #3A6977",
"j  c #3C6D7A",
"k  c #3F727F",
"l  c #365781",
"z  c #375983",
"x  c #385B82",
"c  c #375D8A",
"v  c #385E88",
"b  c #3A6087",
"n  c #37608D",
"m  c #39628D",
"M  c #3F7381",
"N  c #3A6591",
"B  c #3C6A94",
"V  c #3D6E99",
"C  c #3E729C",
"Z  c #3F76A0",
"A  c #407783",
"S  c #417985",
"D  c #437C8A",
"F  c #40749C",
"G  c #4177A0",
"H  c #427BA4",
"J  c #437FA8",
"K  c #46828F",
"L  c #478594",
"P  c #488996",
"I  c #498C9B",
"U  c #4C919D",
"Y  c #4480A7",
"T  c #4A8FA1",
"R  c #4583AA",
"E  c #4789AE",
"W  c #4889AE",
"Q  c #4D96A3",
"!  c #4F99A5",
"~  c #4E97A8",
"^  c #4F9AAB",
"/  c #509CA7",
"(  c #509DAA",
")  c #498DB1",
"_  c #4C93B5",
"`  c #4E99B4",
"'  c #4D97B9",
"]  c #4D96B8",
"[  c #4E99BB",
"{  c #4E99BA",
"}  c #519FB3",
"|  c #519FB4",
" . c #519EB4",
".. c #509DBE",
"X. c #519FBE",
"o. c #509EBD",
"O. c #52A0AE",
"+. c #53A2AE",
"@. c #52A1B2",
"#. c #53A3B3",
"$. c #54A5B1",
"%. c #55A6B1",
"&. c #54A6B1",
"*. c #54A5B2",
"=. c #54A6B6",
"-. c #53A4B3",
";. c #56AAB5",
":. c #53A5BE",
">. c #52A2BC",
",. c #56AABB",
"<. c #58AEBD",
"1. c #59B1BB",
"2. c #519FC0",
"3. c #54A6C1",
"4. c #54A5C2",
"5. c #55A9C3",
"6. c #57ADC3",
"7. c #55A9C6",
"8. c #56ABC7",
"9. c #55AAC6",
"0. c #57ADC6",
"q. c #56AAC3",
"w. c #58AFC4",
"e. c #57AECA",
"r. c #59B3C3",
"t. c #5DBBC6",
"y. c #5AB4C8",
"u. c #58B0CC",
"i. c #59B2CC",
"p. c #5BB7CF",
"a. c #5AB4CE",
"s. c #59B3CB",
"d. c #5CB9CA",
"f. c #5DBBCF",
"g. c #5DBBCE",
"h. c #5DBCCE",
"j. c #5DBBCC",
"k. c #5AB6D0",
"l. c #5CB8D1",
"z. c #5CBAD1",
"x. c #5CB9D2",
"c. c #5CBAD2",
"v. c #5DBBD2",
"b. c #5DBCD3",
"n. c #5DBBD4",
"m. c #5DBBD3",
"M. c #5FC0CD",
"N. c #5FC1D3",
"B. c #5FC1D4",
"V. c #62C7D6",
"C. c #61C5D4",
"Z. c #63CAD6",
"A. c #61C5DA",
"S. c #63CAD9",
"D. c #64CBDA",
"F. c #65CDDA",
"G. c #65CEDA",
"H. c #65CEDB",
"J. c #66CFDB",
"K. c #64CCDA",
"L. c #66D1DD",
"P. c #68D5DF",
"I. c #66D1E3",
"U. c #68D5E2",
"Y. c #6AD9E6",
"T. c #6ADCE9",
"R. c #6DE2EF",
"E. c #6EE2F0",
/* pixels */
"4 4 4 4 5 4 4 4 4 4 4 4 4 4 4 4 4 4 4 4 4 4 4 4 4 4 4 4 4 4 4 4 4 4 4 4 4 4 4 4 4 4 4 4 4 4 4 4 4 4 4 4 4 4 4 4 4 4 4 4 4 4 4 5 4 4 4 4 4 4 4 4 0 4 4 4 4 4 4 4 4 4 4 4 4 ",
"4 4 4 4 4 4 4 4 4 4 4 4 4 5 4 4 4 4 4 4 4 4 4 4 4 4 4 4 4 4 4 4 4 4 4 4 4 4 4 4 4 4 4 4 4 4 4 4 4 4 4 4 4 4 5 4 4 4 4 4 4 4 4 4 4 4 4 4 4 4 4 4 4 4 4 4 4 4 4 4 4 4 4 4 4 ",
"4 4 4 4 4 4 4 4 4 4 4 4 4 4 4 4 4 4 4 4 4 4 4 4 4 4 4 5 4 4 5 4 4 4 4 4 4 4 4 4 4 4 4 4 4 4 4 4 4 4 4 4 4 4 4 4 4 4 4 4 4 4 4 4 4 4 4 4 4 4 4 4 4 4 4 4 4 4 4 4 4 4 4 0 4 ",
"4 4 4 4 4 4 4 4 4 4 4 4 4 4 4 4 4 4 4 4 4 4 4 4 4 4 4 5 4 4 4 4 4 4 4 5 4 4 4 4 4 4 4 4 4 4 4 4 4 4 4 4 4 4 4 4 4 4 4 4 4 4 4 4 4 4 4 4 4 4 4 4 4 4 4 4 4 4 4 4 4 4 4 4 4 ",
"4 4 4 4 4 4 4 4 4 4 4 4 4 4 4 4 4 4 4 4 4 4 4 4 4 4 4 4 4 4 4 4 5 4 4 4 4 4 4 4 4 4 4 4 4 4 4 4 4 4 4 4 4 4 4 4 4 4 4 4 4 4 4 4 4 4 4 4 4 4 4 4 4 4 4 4 4 4 4 4 4 4 4 4 4 ",
"4 4 4 4 4 4 5 4 4 4 4 4 4 4 4 4 4 4 4 4 4 4 4 4 4 4 4 4 4 4 4 4 4 4 4 4 4 5 4 4 4 4 4 4 4 4 4 4 4 4 4 4 4 4 4 4 4 4 4 4 4 4 4 4 4 4 4 4 4 4 4 4 4 4 4 4 4 4 4 4 4 4 4 4 4 ",
"4 4 4 4 4 4 4 5 4 4 4 4 4 4 4 4 4 4 4 4 4 4 4 4 4 4 4 5 4 4 4 4 4 4 4 4 4 4 4 4 4 4 4 4 4 4 4 4 4 4 4 4 4 4 4 4 4 4 4 4 4 5 4 4 4 4 4 4 4 4 4 4 4 4 4 4 4 4 4 4 4 4 4 4 4 ",
"4 4 4 4 4 4 4 4 4 4 4 4 4 4 4 5 4 4 4 0 4 4 4 4 4 4 4 4 4 4 4 4 4 4 4 4 4 4 4 4 4 4 4 4 4 4 4 4 4 4 4 4 4 4 4 4 4 4 4 4 4 4 4 4 4 4 4 4 4 4 4 4 4 4 4 4 4 4 4 4 4 4 4 4 4 ",
"4 4 4 4 4 4 4 4 4 4 4 4 4 4 4 4 4 4 4 4 4 4 4 4 4 4 4 4 4 4 4 4 4 4 4 4 4 4 4 4 4 4 4 4 4 4 4 4 4 4 4 4 4 4 4 4 4 5 4 4 4 4 5 4 4 4 4 4 4 4 4 4 0 4 4 4 4 4 4 4 4 4 4 4 4 ",
"4 4 4 4 4 4 4 4 4 5 4 4 4 4 4 4 4 4 4 4 4 4 4 4 4 4 4 4 4 4 4 4 4 4 4 4 4 4 4 4 4 4 4 4 4 4 4 4 4 4 4 4 4 4 4 4 4 4 4 4 4 4 4 4 4 4 4 4 4 4 4 4 4 4 4 4 4 4 4 4 4 4 4 4 4 ",
"4 4 4 4 4 4 4 4 4 4 4 4 4 4 4 4 4 4 4 4 4 4 4 4 4 4 4 4 4 4 4 4 4 4 4 4 4 4 4 4 4 4 4 4 4 4 4 4 4 4 4 4 4 4 4 4 4 4 4 4 4 4 4 4 4 4 4 4 4 4 4 4 4 4 4 4 4 4 4 4 4 4 4 4 4 ",
"4 4 5 4 4 4 4 4 4 4 4 4 4 4 4 5 4 4 4 4 4 4 4 4 4 4 4 4 4 4 4 4 4 4 4 4 4 4 4 4 4 4 4 4 4 4 4 4 4 4 4 4 4 4 4 4 4 4 4 4 4 4 4 4 4 4 4 4 0 4 4 4 4 4 4 4 4 4 4 4 4 4 4 4 4 ",
"4 4 4 4 5 4 4 4 4 4 4 4 4 4 4 4 4 4 4 4 4 4 4 0 4 4 4 4 4 4 4 4 4 4 4 4 4 3 4 4 4 4 4 4 4 4 4 4 4 4 4 3 4 4 4 4 4 4 4 4 4 4 4 4 4 4 4 4 4 4 4 4 4 4 4 4 4 4 4 4 4 4 4 4 4 ",
"4 4 4 4 4 4 4 4 4 4 4 4 4 4 4 4 4 4 4 4 4 4 4 4 4 4 4 4 4 4 4 4 4 4 4 0 4 4 4 4 4 4 4 5 4 4 4 4 4 4 4 4 5 5 4 4 4 5 4 4 4 4 4 5 4 4 4 4 4 4 4 4 4 4 4 4 4 4 4 4 4 4 4 4 4 ",
"4 4 4 5 4 4 4 4 4 4 5 4 4 4 4 4 4 4 4 4 4 4 4 4 4 4 4 4 4 4 4 4 0 0 0 w 0 w 0 w 5 0 0 0 0 0 0 w 0 0 0 0 w 0 0 0 0 4 4 4 4 4 4 4 4 4 4 4 4 4 4 4 4 4 4 4 4 4 4 4 4 4 4 4 4 ",
"4 4 4 4 4 4 4 4 4 4 4 4 4 4 4 4 4 4 4 4 4 4 4 4 4 4 4 4 4 4 4 0 w r r r r r r r r r r r r r r r r r r r r r e w 0 4 4 4 4 4 4 4 4 4 4 4 4 4 4 4 4 4 4 4 4 4 4 4 4 4 4 4 4 ",
"4 4 4 4 4 4 4 4 4 4 4 4 4 4 4 4 4 4 4 4 4 5 4 4 4 4 4 4 4 4 5 e r p a d d d z z x d x x x d x d z l z z l a p r w 0 4 5 4 4 4 4 4 4 4 4 4 4 4 4 4 4 4 4 4 4 4 4 4 4 5 4 4 ",
"4 4 4 4 5 4 4 4 4 4 4 4 4 4 4 4 4 4 4 4 4 4 4 4 4 4 4 4 4 0 w r a v m B V F F F F F F C F F F F F F F F B N z p e w 0 5 4 4 4 4 4 4 4 4 4 4 4 4 4 4 4 4 4 4 4 4 4 4 4 4 4 ",
"4 4 4 4 4 4 4 4 4 4 4 4 4 4 4 4 4 4 4 4 4 4 4 4 4 4 4 4 0 w r p x N C J W _ _ _ _ _ _ ) _ _ _ _ _ _ W W J V B z p r w 5 5 4 4 4 4 4 4 4 4 4 4 4 4 4 4 4 4 4 4 4 4 4 4 4 4 ",
"4 4 4 4 4 4 4 4 4 4 4 4 4 4 4 4 4 4 4 4 4 4 4 4 4 4 4 4 w r p z n C R ' 5.p.z.z.g.g.z.z.z.g.z.z.l.l.a.8.[ J V c z p r 0 5 4 4 4 4 4 4 4 4 4 4 4 4 4 4 4 4 4 4 4 4 4 4 4 4 ",
"4 4 4 4 4 4 4 4 4 4 4 4 4 4 4 4 4 4 4 4 4 4 4 4 4 4 5 5 e p c n B Z _ 5.g.S.G.L.K.G.G.G.G.G.G.G.J.J.V.g.5.) G B N v p w 0 4 4 4 4 4 4 4 4 4 4 4 4 4 4 0 4 4 4 4 4 4 4 4 4 ",
"4 4 4 4 4 4 4 4 4 4 4 4 4 4 4 4 4 4 4 4 4 4 4 4 4 4 4 5 e a c Z R ) `  .#.$.$.$.$.$.$.$.%.%.+.%.%.#.$.#. . .) J F c p e 0 4 4 4 4 4 4 4 4 4 4 4 4 4 4 4 4 4 4 4 4 4 4 4 4 ",
"4 4 4 4 4 4 4 5 4 4 4 4 4 4 4 4 4 4 4 4 4 4 4 4 4 4 5 5 w p N R >.:.` I A g u u f f f f f f f f u u h A L | 8...H m p w 4 4 4 4 4 4 4 4 4 4 4 4 4 4 4 4 4 4 4 4 5 4 4 4 4 ",
"4 4 4 4 4 4 4 4 4 4 4 4 4 4 4 4 4 4 4 4 4 4 5 4 5 5 5 w r a B ) i.y.^ K y 1 * : : : : : : : : : - > 2 t A @.C.u.R N p e 4 4 4 4 4 4 4 4 4 4 4 4 4 4 4 4 4 4 4 4 4 4 4 4 4 ",
"4 4 4 4 4 4 4 4 4 4 4 4 4 4 4 4 4 5 4 4 4 4 4 4 4 5 w r p l B _ z.h.+.D 9 $ o + @ @ @ + @ @ @ @ o o * 7 j %.D.x.W N a w 5 5 5 4 4 4 4 4 4 4 4 4 4 4 4 4 4 4 4 4 4 4 4 4 4 ",
"5 4 4 4 4 4 4 4 4 4 4 4 4 4 4 4 4 4 4 4 4 4 4 5 5 0 r a z c V ] v.d.^ M 8 @   o o o + o o + o o o o * 7 j #.D.l.W N a w 5 5 4 4 4 4 4 4 4 4 4 4 4 4 4 4 4 4 4 4 4 4 4 4 4 ",
"4 4 4 4 4 4 4 4 4 4 5 4 4 4 4 4 4 4 4 4 5 4 5 5 w r p x N V H ] 6.=.P g 2 +     . o o . o . . o o # > y S #.g.8.J m p w 4 4 4 4 4 4 4 4 4 4 4 4 4 4 4 4 4 5 4 4 4 4 4 4 4 ",
"4 4 4 4 4 4 4 5 4 4 4 4 4 4 4 4 4 4 4 4 5 5 5 w r p l m V R )  .^ I k q : +   o o o o o o o o o * 1 t A I | 3.] H m p w 5 4 4 4 4 4 4 4 4 4 4 4 4 4 4 4 4 4 4 4 4 4 4 4 4 ",
"4 4 4 4 4 4 4 4 4 4 4 4 4 5 5 5 4 4 5 5 5 5 w e p z n F J ] 5.>.Q S u 6 * o . o o o o o o o . + : t k I | X.] W G m a w 5 5 4 5 5 5 5 4 4 4 4 4 4 4 4 5 4 4 4 4 4 4 4 4 4 ",
"4 4 4 4 4 4 4 4 4 4 4 0 0 0 0 w 0 0 0 0 w w e p l m F H ] a.C.w.I k 9 , $ + o o o o + o o o . + 6 h I <.k.7.) H F v a e w w 0 0 0 0 0 0 5 4 4 4 4 4 4 4 4 4 4 4 4 4 4 4 4 ",
"4 4 4 4 4 4 4 4 4 4 0 0 w e e e e e r e e r p x m F H ) 7.D.Y.g.Q k 9 , % o o o o o o o + . . + 8 A +.N.D.a._ H F c x p i e e r r e w w 0 4 4 4 4 4 4 4 4 4 4 4 4 4 4 4 5 ",
"4 4 5 4 4 4 4 4 5 0 0 w p a d d d d x d x x x m F G ) 7.n.Y.T.J.t.U k q = + . o o + o o o o . + 8 A +.Z.T.A.7._ G B m x x x d x d a p r 0 5 4 4 4 4 4 4 5 4 4 4 4 4 4 4 4 ",
"4 4 5 4 4 4 4 4 5 5 e i z m N V V V V V V V V C G E o.g.G.P.P.P.Z.1.P g 6 +   o o o o o + o   @ 6 j Q M.U.L.h.3.W Z C V C V V B N m z p w w 5 5 4 4 4 4 4 4 4 4 4 4 4 4 4 ",
"4 4 4 4 4 4 4 4 w w i l c V Z E _ ' ' ' ' ' ] ' ` { @.$.;.%.;.;.;.! M y , +   o o o o o o o o @ , y A U ;.;.;.@.` ' _ ] ] ] _ E J V c l i e w 5 5 4 4 4 4 4 4 4 4 5 4 4 4 ",
"4 4 4 4 4 5 4 0 e i l c N Z ) e.z.C.A.A.B.A.A.C.z.6.Q A g g g g g f 8 1 $ + o o o + o o o o o o * 1 9 y g h k I <.z.A.A.A.A.n.5._ H N v l p e 5 5 4 4 4 4 4 4 4 4 4 4 4 4 ",
"4 4 4 4 4 4 4 w r a c B C J { g.C.V.Z.S.Z.F.G.C.t.;.D 9 : : = : = = $ # + o + o o o o o o o o o + # % = : 1 9 k #.M.Z.Z.K.K.N.i.o.E G B m z i w 5 4 4 4 4 4 4 5 4 4 4 4 4 ",
"4 4 4 4 4 4 4 w i z B Z W ` ` ^ ~ ! ! ~ ! / / Q U D u : @ @ @ @ + + + + + o o o o o o o o o o o + + + + + % , t D U ! ! ! Q ! ^  ._ W H V c i 0 5 4 4 4 4 4 4 4 4 4 4 4 4 ",
"4 4 4 4 4 4 4 w i x C ) 3.6.~ M h f f f f f f f y t 2 * o o o o o o o o o o o o o o o + o o o o o . o + + + % 1 9 u u f f f h K T @.3...G v i w 5 4 5 4 4 4 4 4 4 4 4 4 4 ",
"5 4 4 4 4 4 0 w i b Z ' p.j.U f 7 2 , , 1 1 1 , : : # o o   . . o o o o o o o o o o o o + o o + o o . . . . o @ : : , 1 : : 8 h P =.p.3.H c i 0 5 4 4 4 4 4 4 4 4 4 4 4 5 ",
"4 4 4 4 4 4 4 w r b G { B.M.U q = @ o + o @ + @ O o o X .   . . . o o o o o o + + o o o o o o o o . . . . . o o o + @ + o o : y K ,.b.u.Y v i w 5 5 4 4 4 4 4 4 4 4 4 4 4 ",
"4 4 4 4 4 4 5 0 r b H [ B.C.U 9 = @ + + + + + + + @ @ @ @ @ @ @ + + o o o o + o o o o + + o o o o + O @ @ @ @ @ @ @ @ + o o : y K ,.B.i.R x i w 0 4 4 4 4 4 4 4 4 4 4 4 4 ",
"4 4 4 4 4 4 5 w i b F ] s.j.Q f 7 6 1 2 1 2 2 2 1 2 2 2 2 6 1 : % @ + o o o o o o o o o o o o o @ % : 1 6 2 2 2 2 1 1 2 , , 8 h P =.a.3.J v i w 4 4 4 4 4 4 4 4 4 4 4 5 4 ",
"4 4 4 4 4 4 5 w i x C E 3.6.~ D h g f f g g f g g g g g g g u 9 , % + o o o o o + o o o o o o + * 1 9 y g g g g f f g f f f h D T | 2._ G v i w 4 4 4 4 4 4 4 4 4 4 4 4 4 ",
"4 4 4 4 4 4 5 w i z B Z W ` ` ~ ! Q Q Q Q Q Q Q Q Q Q Q ! / U k q : @ o . + o o o o o o o o   + : q j P / / ! Q ! Q ! Q Q ! ~ ^ ` ] ) J F l i 0 4 4 4 4 4 4 4 4 4 4 4 4 4 ",
"4 4 4 4 4 3 4 w r a n V C R { i.M.C.C.V.C.C.C.C.V.C.C.Z.G.P.C.! g 6 $ . . + o o o o o o o o   @ 6 j U t.H.H.A.V.C.C.C.C.Z.V.M.0.2.R G B A x i 0 0 4 4 4 4 4 4 4 4 4 5 4 4 ",
"4 5 4 4 4 4 5 0 e i z c N C ) e.B.A.A.A.A.A.A.S.A.A.A.A.I.R.Y.;.k 6 $ . . + + . o o o o o o   + 8 A +.G.E.T.A.A.A.A.A.A.A.S.b.8.] G B c l p e 0 4 4 4 4 4 4 4 4 4 4 4 4 4 ",
"4 4 4 4 4 4 4 5 w e i a c V H ) ] ' ' ] ' ..{ { ' { [ o.i.I.U.=.j 7 % . . . + + o o + o o o   + 8 A +.V.I.x...] ] ....' [ ' ' E G F n l i e 0 0 4 4 4 4 4 4 4 4 4 4 4 4 4 ",
"4 4 4 4 4 4 4 5 4 5 e i z n B B V V B F V V V V V C C G _ b.H.-.j 8 * . . + o o o o o o o o . + 8 A ( h.B.2.H V B F V V V V V V F m l p e 5 4 4 4 4 4 4 4 4 4 4 4 4 4 4 4 ",
"4 4 4 4 4 4 4 4 5 5 w e i a l l x a x x a l x l d x v F E z.S.$.j 7 $ o o o o o o o o o o o   + 8 A O.t.b.] F c z l z a z z d a d a p r 0 0 4 4 4 4 4 4 4 4 4 4 4 4 4 4 4 ",
"4 4 4 4 4 4 4 4 4 5 5 0 w r r e r r e r e r r r r p l N W l.S.$.j 7 $   X o o o o o o o o o   @ 8 A ( h.b.] B l p r r r e e r r r e w 0 0 0 4 4 4 4 4 4 4 4 0 4 4 4 4 4 4 ",
"4 4 4 4 4 4 4 4 4 4 5 5 0 0 w 0 0 0 0 5 0 5 0 w w e a N E l.F.#.j 7 $ o o o o o o o o o o o   @ 8 A ( j.z.' B a r w 0 5 0 5 w 0 0 0 0 0 4 4 4 4 4 4 4 4 4 4 4 4 4 4 4 4 4 ",
"4 4 4 4 4 4 4 4 4 4 4 5 4 5 5 5 5 5 5 5 5 5 5 5 5 e p N E l.S.+.j 7 % o   o o o o + o o o o   @ 8 A ( j.z.' N a e 0 5 5 5 5 5 5 4 4 4 4 4 4 4 4 4 4 4 4 4 4 4 4 4 0 4 4 4 ",
"5 4 4 4 4 4 4 4 4 4 4 4 4 4 4 4 4 4 4 3 4 4 4 4 5 e p N W x.F.#.j 7 $     o o o o o o o o o   @ 8 M ^ t.b.{ N p w 4 4 4 4 4 4 4 4 4 4 4 4 4 4 4 4 4 4 4 4 4 4 4 4 4 4 4 4 ",
"4 4 4 4 4 4 4 4 4 4 4 4 4 4 4 4 4 4 4 4 4 4 3 4 5 e p N W x.Z.#.j 7 $ o   o o X o o X o o .   o 9 A O.t.z._ B p e 4 4 4 4 4 4 4 4 4 4 4 4 4 4 4 4 4 4 4 4 4 4 4 4 4 4 4 4 ",
"4 4 4 4 4 4 5 4 4 4 4 4 4 4 4 4 4 4 4 4 4 4 4 4 5 e p N W z.F.#.h 8 $   . o o o o o o o o .   @ 8 A O.h.z.' N p w 5 4 4 4 4 4 4 4 4 4 4 4 4 4 4 4 4 4 4 4 4 4 4 4 4 4 4 4 ",
"4 4 4 4 4 4 4 4 4 4 4 4 4 4 4 4 4 4 4 4 4 3 4 4 0 w p N W z.F.#.j 7 * + o @ % @ % @ @ @ @ + o @ 8 M ! t.b.{ B p e 5 4 4 4 4 4 4 4 4 4 4 4 4 4 4 4 4 4 4 4 4 4 4 4 4 4 4 4 ",
"4 4 4 4 4 4 4 4 4 4 4 4 4 4 4 4 4 4 4 4 4 4 4 4 4 e p N W z.S.+.j 8 = % = = , , > 1 : : : : @ * 9 S / j.n.] N p e 5 5 4 4 4 4 4 4 4 4 4 4 4 4 4 4 4 4 4 4 4 4 4 4 4 4 4 4 ",
"4 4 4 4 4 4 4 4 4 4 4 4 4 4 4 4 4 4 4 4 4 4 4 4 0 e p N W z.S.#.j 9 6 6 9 f f f u u g u u t 2 , q S / g.n.] N a e 5 4 4 4 4 4 4 4 4 4 4 4 4 4 4 4 4 4 4 4 4 4 4 4 4 4 4 4 ",
"4 4 4 4 4 4 4 4 4 4 4 4 4 4 4 4 4 4 4 4 4 4 4 4 4 e p N E x.S.+.j t y h K ( +.+.+.+.+.$.+.P g 9 u S / d.x.] N a e 5 4 4 4 4 4 4 4 4 4 4 4 4 4 4 4 4 4 4 4 4 4 4 4 4 4 4 4 ",
"4 4 4 4 5 4 4 4 4 4 4 4 4 4 4 4 4 4 4 4 4 4 4 4 5 e p N R u.N.#.M h M P ;.Z.P.L.F.F.G.L.G.r.L h j K ~ r.i._ N p e 5 5 4 4 4 4 4 4 4 4 4 4 4 4 4 4 4 4 4 4 4 0 4 4 4 4 4 4 ",
"4 4 4 4 4 4 4 4 4 4 4 4 4 4 4 4 4 4 4 4 4 4 4 4 5 w p n H 2.4.` P P I ~ <.g.B.B.z.B.b.b.b.w.~ P P Q ^ X.2.J N a e 5 4 4 4 4 4 4 4 4 0 4 4 4 4 4 4 4 4 4 4 4 4 4 4 4 4 4 4 ",
"4 4 5 4 4 4 4 4 4 4 4 4 4 4 4 4 4 4 4 4 4 4 4 4 0 e p n V H E ` | =.>. .] _ _ ) ) _ _ _ _ _ | =.=.|  .) J V m a e 5 5 4 4 4 4 4 4 4 4 4 4 4 4 4 4 4 4 4 4 4 4 4 4 4 4 4 4 ",
"4 4 4 4 4 5 4 4 4 4 4 4 4 4 4 4 4 4 4 4 4 4 4 4 0 w p z N V F _ 3.8.4.] W H F F F F C C Z R { :.5.o.) H V N c p e 5 5 4 4 5 4 4 4 4 4 4 4 4 4 4 4 4 4 4 4 4 4 4 4 4 4 4 4 ",
"4 4 4 4 4 4 4 4 4 4 4 4 4 4 4 4 4 4 4 4 4 4 4 4 4 0 r p z m V Y ' ..] W G N c z d z x c N Z ) { { ] R F m l p r 0 5 4 4 4 4 4 4 4 4 4 4 4 4 4 4 4 4 4 4 4 4 4 4 4 4 4 4 4 ",
"4 4 4 5 4 4 4 4 4 4 4 4 4 4 4 4 4 4 4 4 4 4 4 4 5 0 0 r p x F F H R J F F l l r r r i a c N H H J H G N l p r w 4 4 4 4 4 4 4 5 4 4 4 4 4 4 4 4 4 4 4 4 4 4 4 4 4 4 4 4 4 ",
"4 4 4 4 4 4 4 4 4 4 4 4 4 4 5 4 4 4 4 4 4 4 4 4 4 5 0 w r p l v F F F F c p i w 0 0 w r a v F F F F N v a r w 5 0 4 4 4 4 4 4 4 4 4 4 4 4 4 5 4 4 4 4 0 4 4 4 4 4 4 4 4 4 ",
"4 4 4 4 4 4 4 4 4 4 4 4 4 4 4 4 4 4 4 4 4 4 4 4 4 5 4 0 w r p a x x x d p i e 0 4 4 0 w i a l l a l a p r e 5 5 4 4 4 4 4 4 5 4 4 4 4 4 4 4 4 4 4 4 4 4 4 4 4 4 4 4 4 4 4 ",
"4 4 4 4 4 4 4 4 5 4 4 4 4 4 4 4 4 4 4 4 4 4 4 4 4 4 4 4 0 w e r r i r r e e w 5 4 4 4 w r r r r r r r r e 0 5 4 4 4 4 4 4 4 4 4 4 4 4 4 4 4 4 4 4 4 4 4 4 4 4 4 4 4 4 4 4 ",
"4 4 4 4 4 4 4 4 4 4 4 4 4 4 4 4 4 4 4 4 4 4 4 4 4 4 4 4 5 5 0 w 5 0 0 0 0 5 4 4 4 4 4 4 4 0 5 0 0 0 0 0 5 5 5 4 4 0 4 4 4 4 4 4 4 4 4 4 4 4 4 4 4 4 4 4 4 4 4 4 4 4 4 4 4 ",
"4 4 4 4 4 4 4 5 4 4 4 4 4 4 4 4 4 4 4 4 4 4 5 4 4 4 4 4 5 5 4 4 4 4 4 4 4 4 4 4 4 4 4 4 4 4 3 4 4 4 4 4 5 5 4 4 4 4 4 4 4 4 4 4 4 4 4 4 4 4 4 4 4 4 4 4 4 4 4 4 4 4 4 4 4 ",
"4 4 4 4 4 4 4 4 4 4 4 4 4 5 4 4 4 4 4 4 4 4 4 4 4 4 4 4 4 4 4 4 3 4 4 3 4 4 4 4 4 4 4 4 4 4 4 4 4 4 4 4 4 4 4 4 4 4 4 4 4 4 4 4 4 4 4 4 4 4 4 4 4 4 4 4 4 4 4 4 4 4 4 4 4 ",
"4 5 4 4 4 4 4 4 4 4 4 4 4 4 4 4 5 4 4 4 4 4 4 4 4 4 4 4 4 4 4 4 4 4 4 4 4 4 3 4 3 4 3 4 4 3 4 4 4 4 4 4 4 4 4 4 4 4 4 4 4 4 4 4 4 4 4 4 5 4 4 4 4 4 4 4 4 4 4 4 4 4 4 4 4 ",
"4 4 4 4 4 4 4 4 4 4 4 4 4 4 4 4 4 4 4 4 4 4 4 4 4 4 4 4 4 4 4 4 4 4 3 < > > > > > < > ; ; < 3 3 4 4 4 4 4 4 4 4 4 4 4 4 4 4 4 4 4 4 4 4 4 4 4 4 4 4 4 4 4 4 4 4 4 0 4 4 4 ",
"4 4 4 4 4 4 4 4 4 4 4 5 4 4 4 4 4 4 5 4 4 4 4 4 4 4 4 4 4 4 4 4 4 4 < > & & & & & & & & & & ; 3 3 4 4 4 4 4 4 4 4 4 4 4 4 4 4 4 4 4 5 4 4 4 4 4 4 4 4 4 4 4 4 4 4 4 4 4 4 ",
"4 4 4 4 4 4 4 4 4 4 4 4 5 4 4 4 4 4 4 4 4 4 4 4 4 4 4 4 4 4 4 4 4 3 < > & % O O O O O % % & ; < 4 4 4 4 4 4 4 4 4 4 4 4 4 4 4 4 4 4 4 4 4 5 4 4 4 4 4 4 4 4 4 4 4 4 4 4 4 ",
"4 4 4 4 4 4 4 4 4 4 4 4 4 4 4 4 4 4 4 4 4 4 4 4 4 4 4 4 4 4 4 5 4 4 3 > > & % o o o o % & - > < 4 4 4 4 4 4 4 4 4 4 4 4 4 4 4 4 4 4 4 4 4 4 4 4 5 4 4 4 4 4 4 4 4 4 4 4 4 ",
"4 4 4 4 4 4 5 4 4 4 5 4 4 4 4 4 4 4 4 4 4 4 4 5 4 4 4 4 4 4 4 4 4 4 3 < < * & O o o O % * < < 3 3 4 4 4 4 4 4 4 4 4 4 4 4 4 4 4 4 4 4 5 4 4 4 4 4 4 4 4 4 4 4 4 4 4 4 4 4 ",
"4 4 4 4 4 4 4 4 4 4 4 4 4 4 4 4 4 4 4 4 4 4 4 4 4 4 5 4 4 4 4 4 4 4 4 3 3 < & & % O % * > < 4 4 4 4 4 4 4 4 4 4 4 4 4 4 4 4 4 4 4 4 4 4 4 4 4 4 4 4 4 4 0 4 4 4 4 4 4 4 4 ",
"4 4 4 4 4 4 4 4 4 4 4 4 4 4 4 4 4 4 4 4 4 4 4 4 4 4 4 4 4 4 4 4 4 4 4 4 3 3 > * & & * > < 4 4 4 4 4 4 4 4 4 4 4 4 4 4 4 4 4 4 4 4 4 4 4 4 4 4 4 4 4 4 4 4 4 4 4 4 4 4 4 4 ",
"4 5 4 4 4 4 4 4 4 4 4 4 4 4 4 4 5 4 4 4 4 4 4 4 4 4 4 4 4 4 4 4 4 4 4 4 4 3 < < > > < < 3 4 4 4 4 4 4 4 4 4 4 4 4 4 4 4 4 4 4 4 4 4 4 4 4 4 4 4 4 4 4 4 4 4 4 4 4 4 4 4 4 ",
"4 4 4 4 4 4 4 4 4 4 4 4 5 4 4 4 4 4 4 4 4 4 4 4 4 4 4 4 4 4 4 4 4 4 4 4 4 4 4 3 3 3 3 4 4 4 4 4 4 4 4 4 4 5 4 4 4 5 4 4 4 4 4 4 4 4 4 4 4 4 4 4 4 4 4 4 4 4 4 4 4 4 4 4 4 ",
"4 4 4 4 4 4 4 4 4 4 4 4 4 4 4 4 4 4 4 4 4 4 4 4 4 4 4 4 4 4 4 4 4 4 5 4 4 4 4 4 4 4 4 4 4 4 4 4 4 4 4 4 4 4 4 4 4 4 4 4 4 4 4 4 4 4 4 4 4 4 4 4 4 4 0 4 4 4 4 4 4 4 4 4 4 ",
"4 4 5 4 4 4 4 4 4 4 4 4 4 4 4 4 4 4 4 4 4 4 4 4 4 4 4 4 5 4 4 4 4 4 4 4 4 4 4 0 4 4 4 4 4 4 4 4 4 4 4 4 4 4 4 4 4 4 4 4 4 4 5 4 4 4 4 4 4 4 4 4 4 4 4 4 4 4 4 4 4 4 4 4 4 ",
"4 4 4 4 4 4 4 4 4 4 4 4 4 4 4 4 4 4 4 4 4 4 4 4 4 5 4 4 4 4 4 4 4 4 4 4 4 4 4 4 4 4 4 4 4 4 4 4 4 4 4 4 4 4 4 4 4 4 4 4 4 4 4 4 4 4 4 4 4 4 4 4 4 4 4 4 4 4 4 4 4 4 4 4 4 ",
"4 4 4 4 4 4 4 4 4 4 5 4 4 4 4 4 4 4 4 4 4 4 5 4 4 4 4 4 4 4 4 4 4 4 4 4 4 4 4 4 4 4 4 4 4 4 4 4 4 5 4 4 4 4 4 4 4 4 4 4 4 4 4 4 4 4 4 4 4 4 4 4 4 4 4 4 4 4 4 4 4 4 4 4 4 "
};
