/* XPM */
static char *xpm_[] = {
/* columns rows colors chars-per-pixel */
"85 85 152 2 ",
"   c #1F1C1D",
".  c #211F1F",
"X  c #232121",
"o  c #2A2728",
"O  c #2B282A",
"+  c #302D2F",
"@  c #353234",
"#  c #3A3739",
"$  c #3E3A3E",
"%  c #413E41",
"&  c #454245",
"*  c #49464A",
"=  c #4D4A4E",
"-  c #514E52",
";  c #535055",
":  c #575358",
">  c #5A575C",
",  c #5C585E",
"<  c #5E5A60",
"1  c #615E64",
"2  c #656167",
"3  c #666268",
"4  c #69656C",
"5  c #6C686E",
"6  c #6F6B71",
"7  c #726E75",
"8  c #747077",
"9  c #767279",
"0  c #79747C",
"q  c #7E7B83",
"w  c #827D85",
"e  c #847F88",
"r  c #848087",
"t  c #858089",
"y  c #8A858E",
"u  c #8C8790",
"i  c #8E8992",
"p  c #918D96",
"a  c #938F98",
"s  c #95909B",
"d  c #99949E",
"f  c #9C97A1",
"g  c #9E99A3",
"h  c #A19CA5",
"j  c #A49EA8",
"k  c #A6A1AC",
"l  c #A9A4AE",
"z  c #ACA6B1",
"x  c #AEA9B4",
"c  c #B1ABB6",
"v  c #B4AEB9",
"b  c #B6B1BD",
"n  c #B9B3BE",
"m  c #BBB5C2",
"M  c #BFB9C5",
"N  c #C1BBC6",
"B  c #C4BECB",
"V  c #C7C0CE",
"C  c #CAC4CF",
"Z  c #CCC6D3",
"A  c #CFC9D6",
"S  c #D2CBD4",
"D  c #D3CDDB",
"F  c #D6D0DE",
"G  c #D9D3DE",
"H  c #D7D1E0",
"J  c #DBD4E2",
"K  c #DFD9E5",
"L  c #DFD9E8",
"P  c #E1DBE7",
"I  c #E2DCEA",
"U  c #E7E0ED",
"Y  c #E8E1EB",
"T  c #E7E0F0",
"R  c #EAE3F3",
"E  c #E9E2F1",
"W  c #EAE4F0",
"Q  c #EBE5F1",
"!  c #ECE5F3",
"~  c #EDE5F3",
"^  c #ECE5F2",
"/  c #EBE5F4",
"(  c #ECE5F4",
")  c #ECE5F5",
"_  c #ECE6F5",
"`  c #EDE6F5",
"'  c #EDE7F5",
"]  c #EEE7F5",
"[  c #ECE5F6",
"{  c #EDE6F6",
"}  c #EDE7F6",
"|  c #EEE6F6",
" . c #EEE7F7",
".. c #ECE5F3",
"X. c #EFE8F5",
"o. c #EFE8F6",
"O. c #EFE8F7",
"+. c #EFE8F6",
"@. c #EEE7F8",
"#. c #EFE8F8",
"$. c #EFE8F9",
"%. c #F0E9F7",
"&. c #F2EBF6",
"*. c #F2EBF7",
"=. c #F2ECF7",
"-. c #F2EBF5",
";. c #F0E9F8",
":. c #F0E9F9",
">. c #F1EAF8",
",. c #F1EAF9",
"<. c #F2EBF8",
"1. c #F2EBF9",
"2. c #F0E9FA",
"3. c #F1EAFA",
"4. c #F1EAFB",
"5. c #F1EBFB",
"6. c #F2EBFB",
"7. c #F3ECF9",
"8. c #F3ECFA",
"9. c #F3ECFB",
"0. c #F4EDFB",
"q. c #F2EBFC",
"w. c #F3EBFC",
"e. c #F3ECFC",
"r. c #F3ECFD",
"t. c #F4EDFC",
"y. c #F4EDFD",
"u. c #F5EEFC",
"i. c #F6EFFD",
"p. c #F4EDFE",
"a. c #F5EEFE",
"s. c #F5EEFF",
"d. c #F5EFFF",
"f. c #F6EFFE",
"g. c #F6EEFF",
"h. c #F6EFFF",
"j. c #F7EFFF",
"k. c #F5EEFE",
"l. c #F7F0FD",
"z. c #F7F0FF",
"x. c #F7F0FF",
"c. c #F8F0FF",
"v. c #F8F1FF",
"b. c #F9F1FF",
"n. c #F9F2FF",
"m. c #FAF2FF",
"M. c #FAF3FF",
"N. c #FBF3FF",
"B. c #FBF4FF",
"V. c #FCF5FF",
"C. c #FDF6FF",
"Z. c #F9F2FF",
/* pixels */
"= 3 j P h.h.r.r.h.h.r.h.h.h.r.h.l.r.l.r.l.r.l.r.l.r.l.r.r.z.r.z.r.z.r.z.r.z.r.z.p.l.p.p.p.l.p.p.l.l.p.p.p.l.p.p.p.l.p.p.l.l.p.p.h.h.r.r.h.h.r.h.h.h.r.h.h.h.r.h.v.4.D b k ",
"1 0 x I h.h.h.h.h.r.h.h.r.h.r.h.r.l.r.l.r.l.r.l.r.l.r.l.z.r.z.r.z.r.z.r.z.r.z.r.p.l.p.l.p.p.l.p.p.p.p.l.p.l.p.l.p.p.l.p.p.p.p.l.r.h.h.h.h.r.h.h.r.h.r.h.r.h.h.h.v.-.H M v ",
"p j B R h.r.h.h.h.h.r.r.h.r.h.h.l.r.l.r.l.r.l.r.l.r.l.r.r.z.r.z.r.z.r.z.r.z.r.z.p.p.l.p.l.l.p.p.p.p.p.l.p.p.l.p.l.l.p.p.p.p.p.l.r.h.h.h.h.h.r.r.h.r.h.h.r.h.h.h.v.4.P S V ",
"V A L 4.h.h.r.r.r.h.h.h.h.h.h.r.r.l.r.l.r.l.r.l.r.l.r.l.z.r.z.r.z.r.z.r.z.r.z.r.l.p.p.d.p.p.p.l.l.l.p.p.l.p.p.l.p.p.p.l.l.l.p.p.h.h.h.h.r.h.h.h.h.h.h.r.h.h.r.h.v.h.) I L ",
"I I R h.h.r.h.h.h.h.h.h.h.v.v.v.B.B.z.z.n.n.l.l.n.n.z.B.z.B.l.B.B.v.l.M.z.z.B.z.l.l.n.n.M.l.l.C.l.M.M.l.M.M.M.l.M.l.M.M.l.M.l.M.v.v.v.v.C.v.v.v.h.h.r.h.h.r.r.h.l.z.$.[ R ",
"4.q.r.r.h.h.r.h.w.h.w.h.h.z.v.B.B.B.B.B.n.V.V.V.B.B.B.B.n.B.M.M.B.B.B.l.B.B.B.B.C.C.M.M.M.l.C.C.M.M.M.M.M.M.M.M.M.M.M.M.M.M.M.M.B.C.B.B.v.v.C.v.z.h.h.h.h.h.h.h.r.r.l.r.r.",
"z.z.h.h.r.r.h.h.h.h.h.w.| Y I P G K K K K K G K L K K J K K K K K K K K K K L K K K K K K K K K K K K K K K K K K K K K K K K K G P K P P K P P E @.q.r.r.h.r.r.l.r.z.l.z.",
"z.z.h.h.h.h.h.r.h.h.h.) J V b k k g k g k k k k j j k j j j k h j j j j j j j k j j j j j j h k j j j j j j j j j j j j j j j j j j j j h j l c B P 4.h.h.h.h.h.r.l.r.z.z.",
"h.h.h.h.h.w.h.h.h.h.v.I Z l p 9 6 8 8 7 7 7 6 8 7 7 7 8 7 7 7 8 7 6 8 8 8 7 7 7 7 7 7 7 7 7 7 7 7 7 7 7 7 7 7 7 7 7 7 7 7 7 7 7 7 7 7 7 7 7 0 r l D ) r.h.z.z.r.l.r.l.r.l.",
"h.q.h.q.h.h.h.j.v.v.C.I B h w 3 , 1 1 1 1 1 1 2 1 1 1 1 1 1 1 1 < 2 1 < 1 1 1 1 1 1 1 1 1 1 1 1 1 1 1 1 1 1 1 2 1 1 1 1 1 1 1 1 1 1 1 1 1 1 4 0 g A ) h.z.z.z.z.r.l.r.l.r.",
"q.h.h.h.h.w.h.j.v.N.v.E B j y 7 3 3 4 4 4 4 4 4 4 4 4 4 4 4 4 4 4 4 4 4 3 5 4 4 4 4 4 4 4 4 4 5 4 4 4 4 4 4 5 4 4 4 4 4 4 4 4 4 4 4 4 4 4 4 7 w j D +.z.z.z.z.z.l.r.l.r.l.",
"h.h.h.q.h.h.w.$.~ *.7.I S n h i y y u u y u i i i i i u i i i i i i i i i i i i i i i i i i i i i i i i i i i i i i i i i i i i i i y i y i i d b J R +.! +.$.$.r.l.r.l.r.",
"q.h.q.h.h.q.[ I D J I U I J S Z V V V V V C C C C C C C C Z Z Z C C Z C C C Z Z C C C C Z C C C C C C C C C C C Z C C C C C C C V C V C V C C A J E Q L D H L [ $.z.z.l.r.",
"h.h.h.h.h.q.I B v M D P | j.j.u.5.l.l.5.l.l.-.-.-.-.-.-.*.*.-.-.-.-.-.-.-.-.-.-.-.-.=.=.=.=.^ =.-.-.=.=.=.X.-.-.=.=.=.=.=.=.=.=.u.5.u.=.u.u.5.u.r.5.I V m M D L $.r.z.r.l.",
"q.h.h.q.h.@.H j e a v D Y N.C.C.B.B.B.B.l.l.X.Q Q Y ^ ^ ^ Y ^ Y Q Q Q Q Q Q Q Q W W W W W W W W W W W W W W W W W W W W W W Q =.h.v.B.B.C.B.B.B.v.4.H k q a m D E l.z.z.r.",
"h.h.h.h.h.@.Z e : 4 h B I v.v.j.r.l.l.l.+.L F Z C C C C V C C C C C V C C C C V C C C C C C C C C C C C C C V C C C C C V V A H I Q u.z.z.z.z.h.z.$.Z e ; 4 f B I z.z.z.l.",
"h.h.h.h.h.) V 9 % > p M P l.n.l.l.l.l.$.T A z f a a a s s a a a a s a a a a a a a a a a a a s s a p a a a a a a a a s s i p g b A P 4.v.z.z.z.r.h.+.V 9 % > a M L h.v.h.r.",
"h.q.h.q.h.) B 9 & , p M K l.n.l.l.l.r.} J v q < : - - - ; - : - ; - - : - : - - ; ; ; ; ; ; ; : ; ; ; ; ; ; ; ; ; ; ; : - - 2 y x D +.v.v.h.z.z.r.$.V 9 % > p m P z.B.z.h.",
"h.h.h.h.h.@.Z 0 & , p N P l.l.l.p.p.$.} J x 7 - * & & & * * & & * & * & * * & * * & * & & & & & & * * * & * * & & & & & & & > q z S ) v.z.r.z.r.r.$.V 0 & < a M P l.v.z.h.",
"h.q.h.h.h.@.B 0 & , a N P l.V.l.l.l.l.$.T V g u y e e e e e e y t t e e e e e e r r t t t t t t r r r r t t t t t t t t q t p z B L 4.z.z.z.z.h.r.} V 0 & < a M P u.B.z.r.",
"h.h.h.h.h.) V 0 & , p n Y B.V.-.[ / / [ [ T H A A Z Z A Z A Z A Z A Z Z A Z Z A A Z A Z Z Z Z Z Z Z Z Z Z A A Z Z A Z A Z Z A J I R @.@.R [ $.r.z.$.V 0 & , a M P u.B.h.h.",
"r.r.h.h.q.@.V 0 & , a V K =.^ G A B B J [ $.$.[ ) E E R R R R @.| | $.) [ @.[ [ +.) $.) +.X.R $.+.X.} } } } } } R R E Q Q R [ $.4.I J A B B J @.h.@.V 0 & , a M P l.v.h.h.",
"h.h.h.r.h.@.V 0 & , p V Y -.K N j i a m E l.p.$.4.u.u.4.q.q.h.w.w.h.h.w.q.h.q.h.h.h.h.h.l.5.B.=.l.p.p.p.$.$.l.$.h.4.5.u.5.5.l.z.4.J M j i s M R z.$.V 0 & > a M P l.B.z.r.",
"h.r.h.h.h.@.V 0 & , p n Y -.G z y 5 7 l T l.l.l.v.h.v.v.q.) I K J H D H H H H D H D H D G D G G F F F F J J J T ) h.z.v.v.z.z.B.q.S x u 4 7 x I z.$.V 0 & < a M P z.v.h.h.",
"h.h.h.r.h.) V 0 & , a M Y -.S j q < < g I v.z.z.z.z.v.v.) D m k a u i i p i i p i i i p i i i i p i i u p a g m K $.z.z.z.h.v.C.=.S j 0 , 1 j I n.$.V 0 & , a M P l.B.z.r.",
"r.h.h.h.h.) V 0 & < s N Y -.S h 8 ; < g P v.z.h.h.r.v.v.I N g 0 1 - : > > > > > > > > > > > > > > > > > > 1 7 d A ) r.h.z.h.v.B.-.C h 9 : , g P z.$.V 0 & , a M P u.v.h.h.",
"r.h.h.h.r.@.V 0 & , s M Y -.S h 8 - : f L z.l.z.v.v.C.v.I B g q 1 > < < < < < < > < < < < < < < < < < , < 2 9 g A @.h.v.v.z.v.C.*.C h 8 - > d P n.$.V 0 & , p M P l.v.h.h.",
"h.h.h.r.h.@.V 0 & , s M Y -.S d 8 - < f I z.r.z.j.v.C.v.E A c d t q q q q q q q w w w r r w q w q q q q w e a c D @.h.z.v.z.v.B.*.C g 9 - > h P z.$.V 0 & , s M P z.B.z.r.",
"h.r.h.h.h.) V 0 & , s M Y -.S h 9 ; < f L $.l.$.! I ^ | E G V n l k k k l l l l z l l z l l l l l k k k l l b V P ) ! I Y ) q.v.-.A g 9 ; , g L z.$.V 0 & , s M L h.v.h.h.",
"h.h.h.r.h.@.V 0 & , s M Y -.S k 9 ; < g L l.r.E D V Z J I I P P G D D D H F G G G G G G G G G G F F F F D G G I R E D B A J Y h.-.C h 8 ; , g I n.$.V 0 & , p M P z.B.h.h.",
"r.r.h.h.h.@.V 0 & , s M Y -.S d 9 ; < g L z.r.L m h l B J ! h.v.B.u.l.l.l.5.-.-.-.-.-.-.-.-.-.=.u.u.l.u.u.l.u.h.q.L m h z B K 4.-.A g 9 ; , g I v.$.V 0 & , a M P l.B.z.r.",
"h.h.h.h.r.) V 0 & , a M Y -.S h 9 ; : f L n.r.D d 9 e c S E v.C.C.C.B.B.B.z.X.U P G P G K P Y X.=.M.C.C.C.C.v.v.q.D d 8 t x S ! -.S g 9 ; , g I v.$.V 0 & , a M P l.v.z.h.",
"l.r.l.l.l.+.V 0 & > a N Y -.S h 0 ; , g I z.$.Z q - 2 d N P l.M.l.l.z.u.5.Q J N v v c x c n B J E 7.j.j.h.j.h.h.) Z q = 2 d B Y -.S h 9 ; > h P v.$.V 0 & < a M L h.B.z.h.",
"r.l.r.r.r.} V 0 & > a N Y -.S g 8 ; , g L z.$.V 9 % : p M K l.V.h.l.z.h.4.I V g e q q 8 0 u l B K $.N.j.h.h.h.h.@.B 9 % > p N U -.S g 9 ; > h I v.*.V 0 % < a M P h.v.h.h.",
"l.r.r.l.l.} V 0 & < a N Y -.S g 0 - , g I n.$.V 9 & , p M K l.l.z.z.z.u.$.J v q : & $ # % 1 y c D *.N.v.h.h.h.h.@.V 9 & > p N Y -.S h 9 ; > g P v.) V 0 & < a M P h.v.h.h.",
"r.l.l.l.r.} V 0 & > p N Y -.S h 9 ; , g L z.$.V 0 & , a M P l.V.u.h.l.5.[ J c q - O   X @ : w c D | v.j.w.h.h.w.) V 0 & > p N Y -.S g 9 ; > g P v.4.V 0 % < a M P h.B.h.r.",
"l.r.z.r.l.+.V 0 & > a N Y -.S g 9 ; , f L n.$.V 0 & , a N Y =.V.r.r.$.$.$.T Z z q = + # > w z A I *.q.q.@.q.h.h.+.V 0 & > a N Y -.S h 9 ; > g I v.4.Z 9 & , a M P h.v.h.h.",
"r.l.z.z.l.X.V 0 & < a N Y -.S g 9 ; , g I z.$.V 0 & , a n P =.l.Q I L L E $./ L m q : 2 p b H R @.E T L P R q.q.$.V 0 & , a N Y -.S g 8 ; , g I v.@.B 0 & , a M P z.B.z.h.",
"l.r.l.r.=.-.C 0 & > a N Y -.S g 9 ; , f I n.X.V 0 & , a N Y =.W D B b m D $.r.$.H z y s m D R r.E D B v m D [ h.+.V 0 & > a N Y -.S g 9 ; > g I v.$.V 0 * , a M P l.v.z.r.",
"r.l.z.r.-.-.C 0 & < a N Y -.S h 9 ; , g L B.$.V 0 & , a N Y =.G b f q e v L r.r.E D B Z J E 4.$.D v f q e m T h.$.V 0 & > a N Y -.S j 9 ; > g P v.$.V 0 % < a M P u.v.h.h.",
"l.r.z.r.l.$.V 0 & , a V Y ^ S h 9 ; , f L n.$.V 0 & 1 a N Y =.G k q : : t M L R } [ R / +.) E J v u 5 : 2 k I z.$.V 0 & < a M U -.S g 9 ; > h P l.$.M q & < a M P u.B.h.h.",
"r.l.z.r.r.$.V 0 & , a N Y -.S h 8 ; , g I n.$.V 0 & , a M Y =.S j 6 % @ ; q c H [ $.$.l.h.Q A z q : % % < j P v.$.V 0 & , s N Y -.S g 9 ; > h I l.$.V 9 & < a M P z.v.h.r.",
"l.r.z.l.r.} V 0 & , p V Y -.S g 0 ; , g I z.$.V 0 & , a N Y -.S g 6 @   @ < i C E r.l.n.z.I m i < @ o @ < h I v.$.V 0 & , a N Y -.S h 9 ; , g P l.} B q & < a M P l.B.z.h.",
"r.l.z.r.z.[ V 0 & , p N Y -.S h 8 ; , f L z.$.V 0 & , a N Y -.S g 5 @ X % 6 g Z } z.B.V.B.U V g 6 % + @ : h P v.$.V 0 & , a N Y -.S h 9 ; > g P z.$.M q % < a M P l.v.h.h.",
"z.r.z.z.r.} V 0 & , a N Y -.S h 9 ; , g I z.$.V 0 & , a N Y -.S j 6 % # 1 d M L $.z.z.B.z.} G m i 2 = % : g I v.$.C 0 & , a M Y -.S h 8 ; , g L z.$.V 0 & < a M P z.B.z.r.",
"r.r.z.r.z.$.V 0 & , a N Y -.S g 9 ; , g I n.$.V 0 & , a M Y -.G z e < , t m J E $.U L E Q } U F c u 6 < 6 l I v.$.V 0 & , a N Y -.S h 8 ; , g I n.$.V 0 & , p m P u.v.h.h.",
"z.r.z.r.r.$.V 0 & , p N Y -.S j 9 ; , g I z.$.V 0 & , a V Y -.P M k u u b J } r.E C b M F I +.X.D v g u s M E z.$.V 0 & > a N Y -.S g 8 ; , g I z.$.V 0 & < a M P l.v.h.h.",
"r.z.z.z.r.} V 0 & > a N Y -.S g 8 ; , g L n.$.V 0 & , s n K l.Y D N b m F Q r.} D k t s b S Y -.Y D B v n D $.z.+.V 0 & > a N Y -.S j 9 ; , g I z.$.V 0 & , a M P z.B.z.r.",
"z.r.z.z.z.$.V 0 & , s M U -.S g 9 - < g L z.$.V 0 & , s M Y l.X.I P G G I @.I A z 9 : 1 t j Z I E U P G G I 4.h.) V 0 & , a N U -.S h 8 ; > g U n.$.V 0 & < a M P h.v.h.r.",
"r.z.z.r.r.} V 0 & , s N Y -.S h 0 ; > g I z.$.V 0 & , s M P l.l.7.7.*.| $.E A j w - + # , w l Z I +.5.4.*.5.h.h.$.V 9 & , a N U -.S h 8 ; > d K z.+.V 0 & , a M P z.B.h.h.",
"z.r.z.r.z.$.V 0 & , a M Y -.S h 8 - < g L z.$.V 0 & : s M K l.B.j.N.N.j.7.I m p 1 % O + * 3 a M J *.C.B.v.v.h.h.) B 0 & > p N Y -.S h 9 ; > h Y z.$.V 0 & , s M P u.B.z.h.",
"r.r.z.z.r.} V 0 & , a M Y -.S h 0 - > g I z.$.V 8 & , i m L l.B.j.j.j.j.$.P n w 1 * % % = 1 u v D *.B.v.h.h.h.u.4.V 9 & > p N Y -.S h 8 ; > d Y n.$.V 0 & , s M P z.v.h.r.",
"z.r.z.r.z.$.V 0 & > a N Y -.S g 9 - < g P v.$.B 0 & , s M L l.n.j.j.j.h.$.I m i 7 5 5 1 4 0 f m J +.v.v.h.h.h.h.+.V 0 * , s V Y -.S g 8 ; > g I z.$.V 0 & , i M P u.B.h.h.",
"r.z.z.r.r.+.V 0 & > a N Y -.S g 0 ; > g I v.$.Z t : 4 f V U z.B.v.v.v.j.7.[ G N x x c c x v B G U h.v.v.z.v.h.h.$.C r : 4 d V Y -.S k 8 ; , g I n.$.V 0 & , s M P l.v.h.h.",
"z.r.z.z.r.) V 0 & > a N Y -.S h 9 - > g I z.4.S s 5 q z V U l.B.h.h.h.h.j.7.$.^ ~ I I ^ I E ) @.5.u.h.h.h.h.h.h.$.D s 5 0 l C W -.A g 9 ; , g I z.$.V 0 & , s M P l.B.z.r.",
"r.z.z.r.z.$.V 0 & < p N Y -.S h 9 - < g P z.q.K b d k N G E 5.5.*.4.) *.3.$.7.7.j.0.j.j.h.h.q.4.4.*.) 4.*.+.*.4.$.J b d l V G -.-.A g 9 ; > g I n.$.V 0 & < a M P l.v.h.h.",
"r.l.l.r.l.} V 0 & > a N Y -.S h 9 ; > g P z.h.) J S G P T R E T P L P I L L I I I I I I I I I I I P P P I I I R $.Q J D H P R v.X.C h 9 ; > g I n.$.V 0 & , s M P z.B.z.r.",
"l.r.l.l.l.} V 0 & , a N Y -.S h 9 ; > g P v.h.w.w.$.q.h.[ I S B m v v b m v b b n n v v v m v m v m v b b m N A E $.q.$.q.q.h.B.-.A h 9 ; > g I z.$.V 0 & , p M P u.v.h.h.",
"r.l.l.r.r.} V 0 & , a N Y -.S g 9 ; > f I j.h.h.h.h.v.v.T B j u 6 4 4 5 6 4 4 6 5 5 5 6 5 5 5 4 5 5 5 5 5 7 w j A $.r.z.h.h.v.C.-.C g 9 ; > g P n.$.V 0 & , a M P l.v.h.h.",
"l.r.l.r.l.} V 0 & , a V Y -.S h 9 - > g I h.h.h.h.h.v.j.P m u 2 & $ $ % % % % % % % % % % % % % % % % % % % , y V R r.z.h.h.z.B.-.A g 8 ; > g P z.$.V 0 & , a M P z.B.z.r.",
"r.l.l.r.n.} V 0 & > a N Y -.S d 7 - > f P j.h.h.w.h.j.j.I B j e 4 1 2 2 2 2 4 2 1 3 3 1 3 1 3 1 1 1 1 1 3 5 0 h S ) w.h.h.h.h.B.-.C g 8 ; : g I n.$.V 0 & , s M L h.v.h.h.",
"l.r.l.l.l.X.V 0 & > a N Y -.S h 9 : > g I v.h.h.h.h.v.j.) K A m c z z z z z z x z z x x x x x z x x x c z c m Z I @.h.h.h.h.v.N.+.Z j 0 ; , g L z.$.V 0 & , a M P z.B.h.h.",
"r.l.r.l.l.X.C 0 & < p N Y -.G z u 6 9 z I v.v.v.j.v.v.v.h.) I P J G H J J J H J J G H J J J J J H J H J J J P I $.h.h.v.j.v.v.C.-.F x u 6 9 x U z.$.V 0 & , a M P l.B.z.r.",
"l.r.l.r.=.^ C 0 & > p M Y -.Y C v g j V ) v.v.v.C.v.C.C.N.v.v.u.4.4.*.*.*.-.5.4.*.3.*.*.*.*.*.3.3.3.4.4.7.4.7.h.v.v.C.v.C.v.C.C.z.L V x g k V R z.$.V 0 & > a M L l.v.z.h.",
"r.l.l.r.r.} V 0 & , a M I u.X.L S V Z J *.4.) E ^ E E ^ E ^ ^ Y Y -.Y Y -.Y Y -.Y -.Y -.-.Y Y -.Y Y Y -.Y Y -.Y Y ~ ~ ~ Y ~ ~ -.-.I P S B A P | h.@.B 0 & < a M L h.v.z.h.",
"l.r.l.l.l.} V 0 & , a M P l.z.Q U I I E E G N n c v c c c v v v v v v v v v v v v v v c v v v v v v v v v v v v c v c c c c n C G I ~ I I T [ 4.h.@.V 0 & > a M P h.v.z.h.",
"r.l.l.r.r.} V 0 & , s M P u.v.u.5.5.$.+.P N d q 0 9 9 9 9 9 9 9 9 0 0 0 0 0 0 9 9 9 9 9 9 9 0 9 0 0 0 9 0 9 0 9 9 9 9 0 7 8 e j N G | 0.7.7.w.j.h.+.V 0 & < a M P z.B.z.r.",
"l.r.l.r.l.[ V 0 & > p M P l.B.v.v.B.z.$.P n t 4 1 1 1 1 1 1 1 1 1 1 1 1 1 1 1 1 1 1 1 1 1 1 1 1 2 1 1 1 1 1 1 1 1 1 1 1 < < 7 a n F -.N.N.j.j.j.r.@.V 9 & > a m P z.v.h.h.",
"r.l.z.r.r.$.B 8 % > i M P h.v.j.v.v.h.+.L m u 6 5 3 3 3 4 3 4 4 3 3 5 3 4 4 3 4 4 4 3 3 3 5 3 3 3 5 3 3 3 5 3 5 3 3 5 3 1 1 9 d m D *.N.j.j.j.j.r.+.B 8 % < a M L l.B.z.h.",
"l.r.l.r.l.} V q * 1 s N P j.C.j.z.z.h.+.U V k y r r r r y w y w r r r r w r t r r r r r r r r r r r r r r r r r r r r r e w p z B K *.v.j.j.v.j.h.$.V q * < a M P u.v.h.h.",
"r.l.l.l.l.$.Z u 1 7 j V I N.C.v.v.v.v.h.+.I A V N N m M M M N n N M M M N M N M N N N M N N N N N N N N N N N N m M M M N M B S P ! h.v.v.v.v.v.h.$.Z u < 7 j B I z.v.z.r.",
"l.r.l.z.r.$.J g q i b S Y l.v.j.z.l.l.l.5.-.X.^ -.Y -.^ ^ ^ ^ -.Y -.W W -.^ ! ! -.Y Y -.Y -.Y -.-.Y Y -.Y Y -.Y -.-.Y ~ ~ -.*.~ *.u.l.l.l.l.v.j.h.$.H j q p v S Y z.v.z.h.",
"r.l.l.r.l.$.I M x v Z L E @.[ E I E I E E E [ [ -.-.-.^ ^ ^ ~ ~ [ @.) ) ) ) @.) ) ) ) @.) ) ) ) -.Y -.-.| | | ~ ~ ~ ~ ~ 2.@.| R ^ Y Y E R I R R [ | I N z v A L R h.z.h.h.",
"l.r.r.l.z.r.$.I L L E E I L D A Z Z A Z Z Z A A S C S S S S S S A A A S S S A S S A S S S S S A S S C S A A A A S A S S D B A A A Z Z A Z Z A D J R [ I J L T [ r.h.h.r.h.",
"l.r.l.r.l.r.l.z.z.v.r.R J B v j h h j j j h j j h h h h h j h h j j g j h h h j h j j h h h h j j h h h h j h j h j j h j j h j h h h h j j j z B I 4.w.h.h.h.h.h.h.h.h.r.",
"r.l.r.l.r.r.l.z.v.B.v.E B g w 4 1 1 1 1 1 1 1 1 1 1 1 1 1 1 1 1 1 1 1 1 1 1 1 1 1 1 1 1 1 1 1 1 1 1 1 1 1 1 1 1 1 1 1 1 1 1 1 1 1 1 1 1 1 1 1 q f A [ j.v.v.h.h.h.r.r.h.h.",
"l.r.l.r.l.r.l.r.h.v.z.I n i 4 * $ % % % % % % % % % % % % & % & % % % % % & % % % & % & % % & & % & % % % % % % % % % % % % % % % % % % % & * < u B R q.h.h.q.h.h.h.r.h.r.",
"r.l.r.l.r.l.r.l.h.v.z.E V z i 0 5 6 8 8 7 7 8 8 8 7 8 7 7 7 7 7 7 8 9 9 7 7 8 7 7 7 7 7 7 7 7 7 7 7 7 7 8 9 7 7 9 9 7 7 8 8 7 7 7 8 7 7 7 8 q e z H ) h.h.h.h.h.r.h.r.h.h.",
"l.r.l.r.l.r.l.r.h.z.h.$.I F Z N M M N M M M M M B M N M M N N N M M M M B M M M M M M M M M M M N N N N N N N N N N N N N N N N N M M M M N B B D T q.w.h.h.h.h.h.r.h.h.h.",
"l.r.r.l.r.l.r.l.r.h.r.r.5.+.Q E I T R T R T R T R T R I R E E E T R T R T T T R T T R R E T E T Y Y E E E E T T T T T T T R T T R T R T R T T R [ 4.q.h.h.q.h.q.h.h.h.r.r.",
"h.h.h.h.h.r.r.h.h.r.r.h.r.q.q.q.4.w.w.w.4.q.q.q.q.q.q.q.q.4.q.q.4.q.q.4.4.q.q.q.q.4.q.q.4.q.q.4.q.q.q.q.q.q.q.q.q.q.q.q.q.q.q.q.4.4.r.4.4.4.r.r.r.r.h.h.h.h.h.r.r.r.h.h.h.",
"T T @.q.h.h.h.h.h.h.h.h.h.h.h.h.j.w.h.w.h.h.h.q.h.h.q.h.h.h.h.h.h.h.h.h.h.h.h.q.h.h.q.h.h.h.h.h.h.h.q.h.h.h.q.h.h.h.q.h.h.h.w.h.h.h.h.r.h.h.h.r.h.h.r.r.r.r.h.h.h.h.q.@.) ",
"n N J @.r.h.h.r.r.h.h.r.h.h.h.h.h.h.j.h.h.h.h.h.h.h.h.h.h.h.h.h.h.h.h.h.h.h.h.h.h.h.h.h.h.h.h.h.h.h.h.h.h.h.h.h.h.h.h.h.h.h.h.h.h.h.h.h.h.h.h.h.h.h.h.h.h.h.r.z.z.r.E K J ",
"u f N E r.h.h.r.r.h.h.r.h.h.h.q.h.w.h.h.h.q.h.h.h.q.h.h.h.h.h.q.q.h.h.h.q.h.h.h.q.h.h.h.q.h.h.h.q.h.h.h.q.h.h.h.q.h.h.h.q.h.h.h.r.h.h.h.r.h.h.h.h.r.r.h.h.r.h.h.z.q.L Z V ",
"0 u m T h.r.h.h.h.h.r.h.q.h.h.h.h.h.w.h.h.h.w.h.h.h.h.q.q.h.h.h.h.h.h.q.q.h.h.h.h.h.h.q.h.h.h.q.h.h.h.q.h.h.h.q.h.h.h.q.w.h.h.w.h.h.r.h.r.h.h.r.h.r.h.h.h.r.h.h.z.5.J V m "
};
