/* XPM */
static char *xpm_[] = {
/* columns rows colors chars-per-pixel */
"85 85 238 2 ",
"   c #151727",
".  c #171929",
"X  c #1A1C2C",
"o  c #181827",
"O  c #1B1F33",
"+  c #181D36",
"@  c #261D36",
"#  c #241E2E",
"$  c #1D2134",
"%  c #1D223B",
"&  c #1E202F",
"*  c #242535",
"=  c #262837",
"-  c #22263A",
";  c #2A2739",
":  c #24293C",
">  c #2B2736",
",  c #322733",
"<  c #482D34",
"1  c #553636",
"2  c #4E3335",
"3  c #6E353E",
"4  c #78443D",
"5  c #3A1F45",
"6  c #1E2442",
"7  c #1F284A",
"8  c #1E2952",
"9  c #282E45",
"0  c #212A4C",
"q  c #252B44",
"w  c #3A2245",
"e  c #2D344D",
"r  c #2A3046",
"t  c #393948",
"y  c #232C53",
"u  c #232F5A",
"i  c #2D3552",
"p  c #2F3854",
"a  c #25315E",
"s  c #2A345A",
"d  c #333C57",
"f  c #353E58",
"g  c #3B3E52",
"h  c #253364",
"j  c #27356A",
"k  c #2A3869",
"l  c #293A74",
"z  c #2A3D7B",
"x  c #273874",
"c  c #313D69",
"v  c #571F57",
"b  c #46294B",
"n  c #4E2653",
"m  c #5B255B",
"M  c #572858",
"N  c #503656",
"B  c #6E364E",
"V  c #622F63",
"C  c #663366",
"Z  c #693869",
"A  c #3E404E",
"S  c #37405A",
"D  c #3A435D",
"F  c #3D4054",
"G  c #3E4660",
"H  c #3D4765",
"J  c #364476",
"K  c #2D4C63",
"L  c #424451",
"P  c #494A5A",
"I  c #514B5B",
"U  c #5A4950",
"Y  c #7B4C47",
"T  c #444C65",
"R  c #474F68",
"E  c #4D556C",
"W  c #495168",
"Q  c #55586A",
"!  c #4B5476",
"~  c #545B72",
"^  c #575D75",
"/  c #744C76",
"(  c #5D6378",
")  c #5D616D",
"_  c #636A7E",
"`  c #6D6E78",
"'  c #656877",
"]  c #73747E",
"[  c #6C6772",
"{  c #81493D",
"}  c #8F3D48",
"|  c #965445",
" . c #914C4A",
".. c #AE524E",
"X. c #B8644D",
"o. c #B56555",
"O. c #9F7872",
"+. c #CA5955",
"@. c #C66A4F",
"#. c #CA6B51",
"$. c #D76755",
"%. c #DC7455",
"&. c #E37555",
"*. c #EC7B58",
"=. c #EA7457",
"-. c #D97E62",
";. c #F68158",
":. c #CB8571",
">. c #E68D71",
",. c #2B3F82",
"<. c #2D4183",
"1. c #2E448B",
"2. c #334888",
"3. c #2E4797",
"4. c #314996",
"5. c #314A9C",
"6. c #334993",
"7. c #3B5397",
"8. c #334DA3",
"9. c #324EAA",
"0. c #3552AB",
"q. c #3753A6",
"w. c #3653B3",
"e. c #3756B9",
"r. c #3958BB",
"t. c #3C64AA",
"y. c #4A598D",
"u. c #4D6998",
"i. c #666D82",
"p. c #6C7285",
"a. c #6E7588",
"s. c #717789",
"d. c #767B8D",
"f. c #787A87",
"g. c #777D93",
"h. c #6F799E",
"j. c #405CB6",
"k. c #465DA6",
"l. c #526AB2",
"z. c #6C7AAB",
"x. c #3A5BC3",
"c. c #3A5CCA",
"v. c #3659C8",
"b. c #3C5FD1",
"n. c #3E65CA",
"m. c #3C60D1",
"M. c #4465CB",
"N. c #456AC9",
"B. c #5A74CA",
"V. c #4577D2",
"C. c #5E7AD2",
"Z. c #5A76D2",
"A. c #476DD0",
"S. c #627DD2",
"D. c #6379C2",
"F. c #835A83",
"G. c #815781",
"H. c #8C708E",
"J. c #7C8192",
"K. c #7C8298",
"L. c #7F818A",
"P. c #7B87B1",
"I. c #498AAB",
"U. c #4F90DD",
"Y. c #4F90D9",
"T. c #7D93D7",
"R. c #7087CF",
"E. c #59AECC",
"W. c #57A5E2",
"Q. c #5EB8E7",
"!. c #60BDEC",
"~. c #4F92E0",
"^. c #65CAEA",
"/. c #68D2EE",
"(. c #6AD8F1",
"). c #878A98",
"_. c #8D919D",
"`. c #8D8A91",
"'. c #A78799",
"]. c #9296A3",
"[. c #969AA6",
"{. c #9B9EAA",
"}. c #9998A7",
"|. c #8B93AC",
" X c #A48AA5",
".X c #A184A1",
"XX c #A398AA",
"oX c #AB9EB1",
"OX c #9DA2AD",
"+X c #9FA0A7",
"@X c #9DA3B5",
"#X c #A3A5AC",
"$X c #ABABAE",
"%X c #ACADB3",
"&X c #A5A9B5",
"*X c #B7A9BA",
"=X c #AEB1BA",
"-X c #B2B5BD",
";X c #B7B8BC",
":X c #CBBAB7",
">X c #DCA291",
",X c #8297D9",
"<X c #889BD7",
"1X c #8C99C7",
"2X c #9BA6C9",
"3X c #95A4D7",
"4X c #8FA1DC",
"5X c #B9BAC5",
"6X c #B5BCD6",
"7X c #A9B3D1",
"8X c #90A3E3",
"9X c #B1BEE3",
"0X c #AEBBE2",
"qX c #C9B9C9",
"wX c #C3B5C4",
"eX c #BDC3D8",
"rX c #BDC0CA",
"tX c #B6C1E6",
"yX c #B9C4E6",
"uX c #C6C6CC",
"iX c #CCCED3",
"pX c #C5C9D5",
"aX c #CED0D7",
"sX c #D1D2D5",
"dX c #D3D5DA",
"fX c #D6D8DC",
"gX c #DBDBDE",
"hX c #D8D3DA",
"jX c #D5CBD1",
"kX c #C2CBE7",
"lX c #D7DAE5",
"zX c #CED5EC",
"xX c #E3DEE4",
"cX c #DDE0EB",
"vX c #DDE2F0",
"bX c #E5E4E8",
"nX c #E1E6F3",
"mX c #E7D3CC",
/* pixels */
"d d d d d d d d d S d d d d d d d d d S d d d d d d d d d d d d d d d d d d d d d d d d d d d d d d d S d d d d d d d d d d d d p S p S p S p S p S p S S p S p S p p S p ",
"d d d d d d d d d d d d d d d d d d d d d d d d d d d d d d d d d d d d d d d d d d d d d d d d d d d d d d d d d d d d d d d d S p S p S p S p S p S p p S p S p S S p S ",
"d d d d d d d d d d d d d d d d d d d d d d d d d d d d d d d d d d d d f d d d d d d d d d d d d d d d d d d d d d d d d d d d p S p S p S p S p S p S S p S p S S p S p ",
"d d d d d d d d d d d d d d d d d d d d d d d d d d d d d d d d d d d d d d d d d d d g d d d d d d d d d d d S d d S d d d d d S p S p S p S p S p S p p S p S e S S p S ",
"d d d d d d d d d d d d d d d d d d d d d d d d d d d d d d d d d d d d d d d p d p d p d p d d d d d p p d p p d d d d d d d d p S p S e S p S p S S p S p S p p S p S p ",
"d d d d d d d d d d d d d d d d d d d d d d d d d d d d d d d d i d e d d p p p p p p p i d i d p p p d p p p p p d d d d d d d S p S p K p S p p p p S p S p S S p S p S ",
"d d d d d d d d d d d d d d S d d d d d d d d d d d d d d d d d d S S S S S f S S S S S d S f S S S S S S F S S S d S p d d d d p S p S e p p S S p S p S p S p p S p S e ",
"d d d d d d d d d d d d d d d d d d d d d d d d d S d d d d f D G P T T R R T R R T W T R R R T T T T W T T R T D F S d d d d d S p S p S p S p p S p S p S p S S p S p S ",
"d d d d d d d d d d d S d d d d d d d d d d d d d d d d d d d T E ( ( i.i._ _ _ _ i._ _ i.i._ i._ i._ i.i.i.i.^ E R S d d d d d S i S S S e p S S p S p e S p S p S p S S ",
"f d d d d d d d d d d d d d d d d d d d d d d d d d d d p p d E p.K.[.OXOX#X{.OXOX{.OXOX{.{.{.{.{.{.{.#X@XXX}._.p.( P d p d d d i S S e S S S p p S p S S p S p S p S p S ",
"d d d d f d d d d d d d d d d d d d d d d d d d d d d d d i D _ _.-XiXgXlXgXhXlXfXfXfXfXfXfXfXfXfXfXfXfXhXlXjXwX].a.E S p d d d i S S e e e S S S e S p S p p S p S p S e ",
"d d d d d d d d d d d d d d d d d d d d d d d d d d d D D G E s.{.5XhXbXxXxXxXxXxXxXxXxXxXxXxXxXxXxXxXxXxXxXxXqXOXJ.( T D S S d S S i S S S S p S S p S p S S p S p S p S ",
"d d d d d d d d d d d d d d d d d d d d d d d d d d D T ~ ( a.).XX*XwXqXqXqXqXqXqXqXqXqXqXqXqXqXqXqXqXqXqXqXqXwXXX_.g.i.~ H D S S i S S p S p p p S p S p S p S p S S p S ",
"d d d d d d d d d d S d d d d d d d d d d d d d d d G ~ i.K.].}.}. X X X X.X X X X X X X X X X X X X X XoXH.H.*X X}.].).a.~ G S i S S i S p S S S p S p S p S p S p p S p ",
"d d d d d d d d d d d d d d d d d d d d d d d d d d T ( J.&X;X*X XH.H.G.G.F.F.F.G.F.F.F.F.F.F.F.F.F.G.F.F.F.F.H. XoX-X%X_.( T S S i p S p S S p e S p S p S S p e p S p S ",
"d d d f d d d d d d d d d d d d d d d d d d d d d d E i.].uXfXqX.XF./ V V C C C C C C C C C C C C C C C C C Z i..X*XuXiX@Xp.W D S e S p S p p S S p S p S p p S S S p S p ",
"d d d d d d d d d d d d f d d f d d f d d d d d i S W p.OXiXbXjX.XF.C v v m m m m m m m m m m m m m m m v v V  .H.9XhXhX*Xs.R N S i S p S p S p S p S p S p S p p S p S S ",
"d d d d d d d d d d d d d d d d d d d d d d d d p p W p.OXaXbXqX.XF.C v v m m m m m m m m m m m m m m m m m m / H.wXhXhX2Xs.R G S p p S p S p S e S p S p S p S S p S p S ",
"d d d d d d d f d d d f d d d d d d d d d d d d S S E p.].iXcXuX.XF.Z m v m m m m m m m m m m m m m m m m m V G.H.*XjXzX&Xa.R G S e S p S p S p S p S p e S p S e S p S p ",
"d d d f d d d d d d d d d d d d d d d d d d f f S G ~ s.[.rXsX;XH.G.C m v V m m m m m M m m m m m m m V V V Z F.oXqXqXjX@Xi.R D S p p S p S p S p S p S S p S p p S S p S ",
"d d d d d d d d d d d d d d d d d d d d d d D G W ~ _ J.[.;X;XXXH./ Z m m m m m M v n n v v v n n n M V C / F.H..XoX5X5X].( W D S e S p p S p S S p S p S p p S S p S p e ",
"d d f d d d d d d d d d d d d d d d d d d f D R ( J.).)._._.`.H./ / V m m V m m n b 5 < 5 5 5 5 5 5 b N / p.H. XXX}.].).s.~ G S p S p S S p S p p S p S p S S p p S p S S ",
"d d d d d d f d d d d d d d d d d d d d d d G ^ ).=X%X#X`.' I I N M m V m m M n b 5 @ @ @ @ @ @ @ @ , I [ XX:X5XOX).p.) W D S S S p p S p S p S S p S p S S p S p S p S p ",
"d d d d d d d d d d d d d d d d d d d d d d G _ +XuXiX;X_.) t t N n M m m B m v b w , , @ @ @ @ # # w I H.%XgXiX#Xg.~ S S S p S S e S p S p S p p S p S e S S p S p S p S ",
"d d d d d d d d d f d d d d d d d d d d d S G ( OXiXdXuX#XH.) I N N M M B B B } Y B 2 2 < < < < < 2 4 [ `.uXbXsX&Xd.E f p p d d p S p S e S p S p S p S p S p S p S p S e ",
"d d d f d d d d d d d d d d d d d d d d d S T _ OXiXfXsXuX#X`.` Q N b n B  ... . .|  .4 4 B 3 3 3 4 4 O.:.:XbXsX#Xg.~ f p d d d S p S p p S S p S p S p S p S p S p S p S ",
"d d d d d d d d d d d d d d d d d d d d p S T ( OXiXbXgXgXjX;X`.[ I b < B  .o.o.X.X.X... . .} } { ..X.:.>XmXbXsX#Xg.E d p p d d p S p S S S p S p S p S p S p S p S p S S ",
"d d d d d f d d d d d d d d d d d d d d S D R _ {.iXbXbXnXbXhX$Xp.I , 2  .o.$.-.%.%.%.$.+.......+.$.:.>.>XmXxXiX@Xg.~ D d d f d S p S p p p S p S p S p S p S p S p S p p ",
"d d d d d d d d d d d d d d d d d d d T E ^ i.h.@X6XkXzXzXzXkX@X] W , < Y @.%.=.;.;.;.=.$.+.+.+.+.=.*.>.>X>XrX-X[.).i.^ W T f p p S p S p S p S e p S p p S e p S p S p S ",
"d d d d d d d d f d d d d f d d d p D ^ s._.{.@X2X3X3X3X8X8X<Xh.! D , < { X.&.*.;.;.;.*.=.&.$.$.&.=.*.%.:.`.`.L._.].]._.s.~ T f S p S p S p S S S S p S S p S S e S p S p ",
"d d d d d d d d d d d d d d d d d d T i.].5X5X6X3XR.R.S.S.S.S.k.J S > 2 4 X.%.=.*.*.*.=.=.=.&.&.&.;.%.#.o.Y U ) L.[.-X-X]._ R f S e p S p S S e S p S p p S p S S S S p S ",
"d f d d f d d d d d d d d d D D D D E d.@XrXkXeX<XS.A.A.A.A.M.k.J y , < 4 X.#.%.&.&.&.%.%.%.%.%.%.%.%.X.| 1 t P ] [.;X5XXXp.~ R S S S p S p p S p S p S S p S p S p p S p ",
"d d d d d d d d d d d d d d D H T ! i.K.2X6XkX0X,XZ.M.M.c.m.x.8.x y = < 4 | X.@.#.@.@.@.@.@.@.@.#.#.X.| { 1 > A [ `.#X;X+XL._ ~ E D S p S p p S p S p S S p S p S p p S p ",
"d d d d d d d d d d d d d d G E ( a.).@X2X7X3X4XR.A.n.c.c.c.x.5.x y = , 2 4 | { | | | | | | | | | | { { 1 < # r I ` `.[.[._.J.L.i.~ D S p S S p S p S p p S p S p S S S S ",
"d d d d d d d d d d d d d S W ( ).#X5X2X1X,XR.S.Z.M.M.c.c.c.x.5.x y $ # , < 2 1 1 1 1 1 1 1 1 1 1 1 1 2 , # X * r L Q ` `.#X=X&X_.i.D p p S p S p S p S S p S p S p S e p ",
"d d d d d d d d d d d d p S E a.[.uXlX6X<XS.A.n.c.c.c.x.x.c.e.3.k y $ & # * = = ; ; = = = = > > > > > = * * X X & = > P f.-XiXrX&XJ.T p S p S p S p S p p S p S p S p S S ",
"d d d d d d d d d d d d p S E a.{.iXcXtX,XS.M.c.c.c.x.r.e.0.5.,.h 7 $ $ % 0 0 y y y y 8 u 8 8 8 y u y 0 6 $ X X o & = A ] ;XsXiX=XJ.H p e S p S p S p S p S S p S p S S p ",
"d d d d d d d d d d d d p S E d.OXsXcXtX,XC.M.c.c.x.x.w.q.1.,.j 8 6 $ % 0 h x J z z l J z x J J l z x h u 6 O o o & = A f.;XsXiX-XJ.W S S p S p S p S p S p p S p S p e S ",
"d d d d d d d d d d d d p S E s.OXdXcXyX,XS.M.c.c.c.r.9.3.x h 0 6 % $ 6 h J 1.3.5.3.3.3.3.3.3.4.5.5.1.,.j y O . o o & A ] ;XsXsX5XJ.H i i K e S p S p S p S p p S p p S p ",
"S d d d d d d d d d d d p D E s.OXsXcXtX,XC.M.c.c.c.e.8.,.a q $ O + $ 7 x 3.0.w.e.e.e.e.e.e.e.e.r.r.0.5.z y + o o & * A L.;XsXiX-XJ.W i i e S S S p S p S p p S p S S p S ",
"d d d d d d d d d d d d i d ~ s.OXsXlX6X1XB.j.0.w.w.8.1.j 0 + O $ % 0 h <.9.r.n.n.n.V.V.V.V.n.V.V.n.t.t.K K & & = > A Q L.$XrX;XOXa.H i S S S e S p S p e S p S S p S p p ",
"d d d d d d d d d d d d p D E s.OXsXbX7XP.y.2.z z ,.x h u + + @ 8 h l 1.8.w.n.N.Y.U.~.W.W.W.W.W.W.W.E.I.t.K : : P ) ] `._._._._.J.) D S S i S i p S p S S p S p p S S p S ",
"d d d d d d d d d d d d p S E s.#XsXlX=Xs.! s y y u 0 0 q O O 0 j <.5.0.w.x.n.V.U.W.^.^.^.^.^.^.(./.^.E.I.K : t ) `.+X%XOXJ.a._ ~ H S i i i S S S e S p S p p S p S p S p ",
"d d d d d d d d d d d d p S ~ a.OXdXlX=Xs.T e 6 + % % $ + o O y J 4.w.r.v.v.n.V.~.Q.^.(.(.(.(.(.(.(.E.E.I.K : A ` `.$X;XOXJ.( ~ W D S S S S i S S S p S p S S p S p S p S ",
"d d d d d d d d d d d d p S E s.#XsXlX*Xs.W e 6 + $ O O X X $ y ,.8.r.c.c.c.n.Y.Y.Q.^.^././././.(.(.^.E.I.K & t ' `.#X;XOXJ._ ) E G S p S p S p p S p S p S p S p S S p S ",
"d d d d d d d S d d d d p d ~ s.OXsXlX7Xh.y.c y 6 + X o o   O y <.9.r.m.b.c.n.V.Y.W.Q.Q.Q.Q.Q.^.!.!.Q.I.u.K : r Q ] `.+X+X).J.a._ E D S e S p S S p S p S p S p S p p S p ",
"d d d d d d d d d d d d p S ~ s.OXsXlX6X|.u.6.l u % & o o o $ a <.9.v.m.m.c.m.N.V.Y.Y.Y.U.Y.U.U.~.~.V.I.7.K * = t L ) ` ).+X&XOX)._ D p S p S p S p p S p S p S p S e p S ",
"d d d d d d d d d d d d p S E s.OXsXxX0XT.B.j.3.j 0 % & X o $ y ,.5.w.v.c.x.x.n.n.n.n.n.n.n.n.n.n.n.x.9.2.p & & = = t P L.=XrXrXOXL.T p p S p S p S p p S p S p S p S S p ",
"d d d d d d d d d d d d p S ~ a.OXsXcXtX,XB.r.9.,.j y 6 % & $ 7 l 1.5.9.0.8.9.8.8.q.0.9.q.q.0.0.t.0.8.1.x 8 $ . X & : A f.;XiXiX=XJ.H p S p S p S p S p p S p S d d d d d ",
"d d d d d d d d d d d d p S E a.OXsXcXtX,XS.M.w.5.,.x h 7 % $ 6 u j z <.<.,.<.,.<.<.<.,.,.,.,.,.,.<.z x a 6 $ . . & = A f.;XsXiX=XJ.W p p S p S p S p S S p S p d d d d d ",
"d S d d d d d d d d d d p S ~ a.OXsXcXtX,XC.M.e.w.5.1.x h 6 + $ 0 y u h h h u h h a h u h a a a h h u 8 7 % X . . X $ A ] ;XsXiX5XJ.W p p p S p S p S p p S S p d d d d d ",
"d d d d S d d d d d d d p S E s.OXsXcXtX,XC.M.x.x.e.8.1.j 7 $ $ $ $ % 6 6 - 6 6 6 % 6 6 @ q 6 6 % 6 % % % $ X . . X = A L.;XsXiX-XJ.T p p S p S p S p S p S p S d d d d d ",
"d d d d d d d d d d d d p S ~ a.OXsXcXtX,XC.M.c.v.c.w.5.z 0 $ X + X X O + - q % q % 6 % 6 6 6 6 % 6 % % % + . + + - r D L.rXsXiX-XJ.H p p S p S S p S p S p S p d d d d d ",
"d d d d d d d d d d d d p S E s.OXdXnXtXT.C.M.v.v.v.e.5.z y $ X o X O $ 0 u h h h j h j h h h h j K h u 8 % $ + 6 y K ! K.rXfXsX-XJ.T p p p S p p S p S p S p S d d d d d ",
"d d d d d d d d d d d d p S ~ a.OXsXcXtX,XC.M.c.c.c.e.5.z y $ X o + + q u z 1.1.3.3.3.3.4.4.4.4.3.5.1.,.h 7 + % y x 2.l.1XeXfXaX-XJ.T p p S p S S p S p S p S p d d d d S ",
"d d d d d d d d d d d d p S E p.[.uXlX9X<XS.A.M.M.M.r.7.z 0 $ o X X O 6 k 1.8.8.w.w.w.w.w.0.w.w.w.9.8.1.J 8 $ 6 h ,.q.l.<XyXlXaX-XJ.T e S p S p p S p S p S p S d d d d d ",
"d d d d d d d d d d d d p S E i.).-XpX7X<XR.R.V.B.B.l.k.J i $ X X X O 6 j 1.5.0.e.r.x.x.x.x.x.r.r.w.8.1.x y + 6 j 1.w.B.4XkXlXaX-XJ.R p p S p S d d d d d d d d S d d d d ",
"d d d d d d d d d d d d d d T ( J.[.=X2X3X<XT.T.T.T.R.l.y.d $ o o X + 6 a z 1.8.9.x.c.c.c.c.v.x.w.9.1.z h 0 $ 0 j 5.j.Z.8XkXzXaX=XJ.T p p p S p d d S d d d d d d d d d d ",
"d d d d d d d d d d d d d d D E ( i.K.|.2X7XtXyXyX9X2X|.i.g @   o o   + 6 8 h x 3.9.v.c.v.c.v.w.5.,.j u 0 $ O 8 x 5.j.Z.8XkXlXlX-XJ.T p p S p S d d d d d d d d d d d d d ",
"d d d d d d d S d d d d d d S D H R ( K.&XeXzXvXnXvXpX&Xd.P @ O X O O # + 6 8 j ,.8.x.c.b.c.x.0.1.j y 6 $ O O 0 j 4.j.B.8XyXlXaX-XJ.T p S p S p d d d d d d d d d d d d d ",
"d d d d d d d d d d d d d d d S d f R i.[.=XpXgXnXbXaX5X).! i 0 e g L L L L T ! y.l.C.S.S.C.B.l.y.l s 0 % O O 6 h ,.q.l.<XkXlXiX=XJ.T p d d d d d d d d d d d d d d d d d ",
"d d d d d d d d d d d d d d d d d d G ( J.].&X5XhXbXdX6X|.i.c ! ~ ( ] ] f.] f.g.P.|.<X<X<X<X,XR.l.y.c h y + O % y k ,.u.1X6XlXiX5XJ.T p p d d d d d d d d d d d d d d d d ",
"d d S d d d d d d d d d d d d d p p S W ( a.J.+XuXlXdX6X1Xl.y.u.h._.XX$X#X#X#X&X7X7X0X9X0X0X7X3XP.l.7.z h 7 O O 6 y k ! |.5XdXiX-XJ.R p d d d d d d d d d d d d d d d d d ",
"d d d d d d d d d d d d d d d d d d d G T E ( J.%XiXzXeX3XD.j.l.1X7XuXsXsXaXsXfXzXlXlXvXlXzXzX9X4XD.k.6.z y + O O @ q G g.5XsXiX=XJ.T p p d d d d d d d d d d d S d d d d ",
"d d d d d d d d d d d d d d d d d d d d d f H ( [.rXeX7X<Xl.l.D.<X6XsXgXcXgXgXgXgXgXgXxXxXfXdXeX<Xz.k.5.J u % X X $ = A ` %XrXrX#Xd.T p d d d d d d d d d d d d d d d d d ",
"d d d d d d d d d d d d d d d d d d d d d d S E d.[.|.|.P.k.k.u.K.|.#X%X%X$X$X$X$X$X$X$X$X$X#X[.P.k.7.2.x y q % - : 9 g ) ).+X[.)._ G p d d d d d d d d d d d d d d d d d ",
"d d d d d d d d d d d d d d d d d d d d d f S T ( a.a.i.^ J k c E ( ' ` ] ` ` ` ` ` ` ` ` ` ' ( E J c s s y r r r r r g E _ a.p._ E D p d d d d d d d d d d d d d d d d d ",
"d d d d S d d d d S d d d d d d d d d d d d f G T E E R c p 0 i e A L L L L L L L L L L L A A A p r 9 0 r e i e e i p g D E ~ E W G S d d d d d d d d d S d d d d d d d d ",
"d d d d d d d d d d d d d d d d d d d d d d f S D D S d t q - - % : = = = = = = = = = = = = = = : : % 9 q e p p d d d d S S D S D S d d d d d d d d d d d d d d d d d d d ",
"d d d d d d d d d d d d d d d d d d d d d d d d d d e e r q - @ & X . . .   X   . . .   . . . X X $ : : r i p S d d d d d d d d p d d d d d d d d d d d d d d d d d d S d ",
"d d d d d d d d d d d d d d d d d d d d d d d d d d e e e r q - $ X                         . X $ : : r r p S S d d d d d d d d d d d d d d d d d d d d d d d d d d d d d ",
"d d d d d d d d d d d d d d d d d d d d d d f d d d d d d d e 9 : $ X X X X X X X X X X X X & $ - r e p p p S p d d d d d d d d d d d d d S d d d d d d d S d d d d d d d ",
"d d d d d d d d d d d d d d d d d d d d d d d d d d d d d d d r 9 % $ & & $ $ & $ O $ $ & $ $ - q r d d d d d d d d d d d d d d d d d d d d d S d d d d d d d d d d d d d ",
"d d S d d d d d d d d d d d S d f d d d d d d d d d d d d d d e r : : : : : : : - : : = - - : q r e p d d d d d d d d S d d d d d d d d d d d d d d d d d d d d d d d d d ",
"d d d d d d d d d d d d d d d d d d d d d d d d d d d d d d d p e r 9 q q : 9 : q 9 9 : 9 q r r e e d d d d d d d d d d d d d d d d d d d d d d d d d d d d d d d d d d d ",
"d d d d d d d d d d d d d d d d d d d d d d d d d d d d d d d d p p e e e p p p p e p e p e i p p d d d d d d d d d d d d d d d d d d d d d d d d d d d d d d d d d d d d ",
"d d d d d d S d d d d d d d d d d d d d d d d d d d d d d d d d p p S S S p S p d p d p d d d d d d d d d d d d d d d d d d d d d d d d d d d d d d d d d d d d d d S d d ",
"d d d d d d d d d d d d d d d d d d d d d d d d d d d d d d d d S S S p S S p d d g S S f f f d d d d d d d d d d d d d d d S d d d d d d d d d d d d d d d d d d d d d d ",
"d d d d d d d d d d d d d d d d d d d d d d d d d d d d d d d d S p p S p S p S p S p S d d d d d d d d d d d d d d d d d d d d d S d d d d d d d d d d d d d d d d d d d ",
"d d d d d d d d S d d d d d d d d d f d d d d d d d d d d d d d p S p p S p S p S p S p d d d d d d d d d d d d d d d d d d d d d d d d d d d d d d d d d S d d d d d d d ",
"d d d d d d d d d d d d d d d d d d d d d d d d d d d d d f d d d d d d d d d d d d f d d d d d d d d d d d d d d d d d d d d d d d d d d d d d d d d d d d d d d d d d d ",
"d d d d d d d d d f d d d f d d d d d d d d d d f d d d d d d d d d d d d d d d d d d d d d f d d d d d d d d d d f d d d f d d d d d d d d d d d d d d d d d d d d d d d ",
"d d d d d d d d d d d d d d d d d d d d d d d d d d d d d d d d d d d d f d d d d d d d d d d d d d d d d d d d d d d d d d d d d d d d d d d d d d d d d d d d d d d d d ",
"d d d f d d d f d d d d d d d d d d f d d d f d d d d d d d d d d f d d d d d d d d d d d d d d d d d f d d d f d d d d d d d d d d d d d d d d d d d d d d d d d d d d d ",
"f d d d d d d d d d d d d d d d d d d d d d d d d d d f d d d d d d d d d d d d d d d d f d d d f d d d d d d d d d d d d d d d d d d d d S d d d d d d d d S d d d d d d "
};
