/* XPM */
static char *xpm_[] = {
/* columns rows colors chars-per-pixel */
"85 85 244 2 ",
"   c #1A1D2D",
".  c #171929",
"X  c #1C1E31",
"o  c #231D32",
"O  c #251E29",
"+  c #1E2234",
"@  c #1D233C",
"#  c #1E202F",
"$  c #232435",
"%  c #21263A",
"&  c #24293D",
"*  c #2A2B3B",
"=  c #2D2130",
"-  c #332634",
";  c #332A36",
":  c #472C37",
">  c #523438",
",  c #653B36",
"<  c #79463D",
"1  c #341F41",
"2  c #1E2542",
"3  c #1E274B",
"4  c #262C42",
"5  c #2A2E43",
"6  c #222A4B",
"7  c #372443",
"8  c #2A3046",
"9  c #2C334B",
"0  c #2C3847",
"q  c #383949",
"w  c #232D55",
"e  c #2D3552",
"r  c #2F3853",
"t  c #29355B",
"y  c #333C57",
"u  c #353E59",
"i  c #303752",
"p  c #253363",
"a  c #263469",
"s  c #293768",
"d  c #2A3B78",
"f  c #333D6B",
"g  c #571E57",
"h  c #473848",
"j  c #4C2551",
"k  c #562658",
"l  c #5B255C",
"z  c #5E2A5E",
"x  c #532854",
"c  c #492E4E",
"v  c #6D354D",
"b  c #673567",
"n  c #602D60",
"m  c #5D3661",
"M  c #37405A",
"N  c #3B445D",
"B  c #3F4255",
"V  c #3E4660",
"C  c #3D4564",
"Z  c #344E71",
"A  c #474957",
"S  c #4F505D",
"D  c #53525D",
"F  c #51445A",
"G  c #744748",
"H  c #434B64",
"J  c #454E6C",
"K  c #4C546B",
"L  c #4A5166",
"P  c #555769",
"I  c #545C72",
"U  c #595C76",
"Y  c #4C4E73",
"T  c #774A77",
"R  c #764876",
"E  c #6D5372",
"W  c #5A6176",
"Q  c #5D6479",
"!  c #516573",
"~  c #62636E",
"^  c #636A7E",
"/  c #666877",
"(  c #726A76",
")  c #933D4A",
"_  c #93544B",
"`  c #8F4E4E",
"'  c #AA5B4A",
"]  c #B15352",
"[  c #B96752",
"{  c #977177",
"}  c #C85653",
"|  c #C96B52",
" . c #D76655",
".. c #D57356",
"X. c #CE7159",
"o. c #E77858",
"O. c #EB7757",
"+. c #D27767",
"@. c #CA7D65",
"#. c #AE877E",
"$. c #F68058",
"%. c #E68869",
"&. c #2B3F81",
"*. c #2D4286",
"=. c #2D438C",
"-. c #364787",
";. c #2F4693",
":. c #2F489B",
">. c #324998",
",. c #39529A",
"<. c #334EA5",
"1. c #324EA9",
"2. c #3551AB",
"3. c #3853A6",
"4. c #3553B2",
"5. c #3958B1",
"6. c #3959BE",
"7. c #3756B9",
"8. c #2F4BA4",
"9. c #3D68AD",
"0. c #4B5891",
"q. c #705A8D",
"w. c #59698F",
"e. c #666D81",
"r. c #696F85",
"t. c #6B7285",
"y. c #6D7489",
"u. c #757B8D",
"i. c #787E8E",
"p. c #767885",
"a. c #787E91",
"s. c #687398",
"d. c #445BAF",
"f. c #5168B3",
"g. c #666EAD",
"h. c #3A5BC4",
"j. c #3B5DCA",
"k. c #3759C7",
"l. c #3D62CB",
"z. c #445EC2",
"x. c #466BC9",
"c. c #516FCE",
"v. c #5873CA",
"b. c #4578D2",
"n. c #4A72CF",
"m. c #637DCD",
"M. c #926E91",
"N. c #977697",
"B. c #997B9A",
"V. c #8D6D8B",
"C. c #A06F89",
"Z. c #825C84",
"A. c #7C8293",
"S. c #7E859A",
"D. c #7F808A",
"F. c #7889B3",
"G. c #5BA2BB",
"H. c #4B91AC",
"J. c #4F91DA",
"K. c #5195DD",
"L. c #4C87D5",
"P. c #7289D5",
"I. c #798FD4",
"U. c #7A92D3",
"Y. c #6F87CD",
"T. c #58A5DC",
"R. c #56A5E0",
"E. c #5EBAE7",
"W. c #60BEE8",
"Q. c #62BBDE",
"!. c #62C3EA",
"~. c #65CBE1",
"^. c #6BDBF1",
"/. c #69D5EE",
"(. c #64CBDF",
"). c #848A9A",
"_. c #8A8D9C",
"`. c #878993",
"'. c #8B909F",
"]. c #93949B",
"[. c #98989C",
"{. c #86828F",
"}. c #8D93A4",
"|. c #9295A3",
" X c #9599A6",
".X c #999BA7",
"XX c #949CB7",
"oX c #8E8AA6",
"OX c #A799AC",
"+X c #B39EB4",
"@X c #AE9CB1",
"#X c #9DA1AC",
"$X c #9DA3B8",
"%X c #A2A4AE",
"&X c #A2A6B1",
"*X c #ABAEB8",
"=X c #A8ABB6",
"-X c #B9A4B9",
";X c #B9A3B9",
":X c #AEB1BB",
">X c #B5B6BD",
",X c #D3A799",
"<X c #DFC3BB",
"1X c #899AD3",
"2X c #8C9BCB",
"3X c #97A3C9",
"4X c #98A8D8",
"5X c #A3ACC7",
"6X c #BABDC4",
"7X c #B6B8C3",
"8X c #A8B4D7",
"9X c #B6BED6",
"0X c #A9B1CB",
"qX c #9BACE1",
"wX c #8CA0E0",
"eX c #A8B7E4",
"rX c #C4BDC8",
"tX c #BEC1C9",
"yX c #BCC2D5",
"uX c #BBC4E1",
"iX c #C3C4CB",
"pX c #C7C8CD",
"aX c #CAC9CC",
"sX c #CBCDD2",
"dX c #C6C9D4",
"fX c #D4CAD5",
"gX c #D1D2D4",
"hX c #D3D5DB",
"jX c #DCD3DB",
"kX c #D9DBDE",
"lX c #D7D8DC",
"zX c #CDD1DA",
"xX c #E3D8D5",
"cX c #CDD5ED",
"vX c #CED3E5",
"bX c #DCDDE1",
"nX c #D6DBEA",
"mX c #C8D0EA",
"MX c #E2DCE2",
"NX c #DFE1E6",
"BX c #E3E2E5",
"VX c #E2E4EA",
"CX c #E8E6E8",
"ZX c #ECEDF3",
/* pixels */
"y y y y y y y y y y y y M y y y y y y y y y y y y y y y M H K Q p.i.i.i.i.i.u.i.i.i.u.u.u.u.u.a.u.i.i.i.u.t.^ K N M y y y y y y y y y y u y y y y y y y y y y r u u u y y ",
"y y y y y y y y y y y y y y y y u y y y y y y y u y y r M H I y.).}.'.'._.'.}._.'.oX'.'.'.'.'.'.oX'._.}._.A.t.U N M y y y y y y y y y y y y u y y y y y u u y u u r u r y ",
"y y y y y y M y y y y y y y y y y y y y y y y y y y r r M L ^ '.:X6XtX6X6X6X6X6X6X6X6X6X6X6X6X6X6X6X6XtX7X&X}.t.L y r y y y y y y y y y y y y y y y y u u r y u u y u u u ",
"y y y y y y y y y y y y y y y y y y y y u y y y y y y u H W i.=XhXCXBXBXBXBXBXBXBXCXMXCXVXBXBXBXBXBXCXCXbXpX=XA.U M M y y y y y y u y y y y y y y y y y u r u u y y r u r ",
"y y y y y y y y y y y y y y y y y y y y y y y y y N V K W y._.;XfXjXjXjXjXjXjXjXjXjXjXjXjXjXjXbXjXjXjXjXfXiX;XoXe.I K V M M y y r u y y y y u y y y y y y u u r u u u r u ",
"y y y y y y y y y y y y y y y y y y u y y y y y M H I y.A.).|.OX;X-X-X-X;X-X;X;X-X-X-X-X-X+X+X-X;X;X;X;X;X+XOX|._.A.Q K V M y r M y y y y y y y y y y y M r u r y r u u u ",
"y y y y y y y y y y y y y y y y y y y y y y y M N L t.}.%XOXOXoXB.N.N.N.N.N.N.N.N.N.N.B.N.N.N.N.N.N.N.N.N.B.OXOX&X#XA.Q L M r y M r f y y y y y y y y y r M r u y y y y r ",
"y y y y y y y y y y y y M y y y y y y y y r r u V I A.:XiX6X;XN.T R T T T T T T T T T T T T T T T T T R T V.M.@XiXtX Xy.K N r y r M r y y y y y u y y y M r u u r u y u u ",
"y u y y y y y y y y y y y y y u y y y y y r r M V W }.pXkXfX-XM.R l l z z z z l z l n l z z z l z z n l b Z.M.+XjXhX=Xi.U N r y u y y y y y y y y y y y y y y u u u u y u ",
"y y y y y y y y y y y y y y y y y y y y u y r y V W |.gXBXjX-XV.b g g k l l l l l l l l l l l l l l g g l b M.+XMXMX:XA.U N r r y y y y y y y y y y y y y y y y u r y y y ",
"y y y y y u y y y y y y y y y y u y y y y r r M V W }.sXMXfX-XN.b l g l l l l l l z l l l l l l l l l g z b M.+XjXbX:Xi.W N y r y y y y y y u y y y y u y y y y u u u r y ",
"y y y y y y u y y y u y y y y y y y y y y y M M H Q }.pXjXfX;XN.b l l l l z l l l l l l l l l l z l l l b Z.M.+XjXhX=Xi.I N r y y y y y y y y y y y y y y y y y y r u u y ",
"y y y u y y y y y u y y y y y y M r u y M M N H K ^ }.tXdXrXOXV.b l l n l l l k l k k k k k k k g k z b b Z.M.+XsXsX#Xy.I N r r y y u y y y y y y y y y y y y y y y r u u ",
"y y u u y y y y y y y y u y y y y y y y M A K ! e.A.].&X*XOXB.T b l l l z l k g j j j j j j j j g k m R Z.M.B.@X>X:X'.^ L N r y y y y y y y y y u y y y y y y y u y u y r ",
"y y u y y y y y y y y y y u y y y y M r M K t.S.]..X'.D.( ( E E n l l l l k j 7 1 7 1 1 1 1 1 1 1 q F M.OXOXOX.X'.A.e.I V M y y y y y y y u y y y y y y u y y y r r u y u ",
"y y u y u y y y y y y y y y y y y y r M N Q ).=XtX6X].~ A h 7 j l l n l l k j - o o o o o o o o o 7 ~ %XfXrX=X_.e.L V N M M y y y y y y y y y y u y y y y y y y u u u y u ",
"y y y y y y u y y y y y y y y y u r y y N ^  X6XgXaX%X~ A ; h c x l n b v n > - - = = = = = = - ; q ( >XkXgX>X_.! M r M r y y y y y y y y u y u y y y y y y y y y y u r y ",
"y y y y y y y y y u y y y y y y u y y r V ^  X6XhXhX>X{.~ P F m j x v b ) ` v < , , > : : : > > , G { rXBXlX>X).K M r y r M y y y y y y y y y y y y y y y u y y y u u y y ",
"y u y y y y y y y y y y u y y y y y u u V ^  X6XhXMXaX&X].{ / F c j v ` ` ] _ _ < ` ) < v , ) v _ _ #.<XbXgX>X).P M r y y r y y y y y y y y y y y u y y y y y y y y y y y ",
"y y y y y y y y y y y y y y y y y r r u N ^ |.6XbXCXBXzX>X%X{.P : : v ` ] [ | [ } ' ] ) ) ) ) ] ' [ ,X<XBXlX>X).! M r y y M y y y y u y y y y y y y y y y y y y y y y y y ",
"u y y y y y y y y y u y y y y y M M M N J r. X7XvXCXZXVXvX6X[.U 7 : < ' | ..$.o.o... .} } ] }  ...%.,X<XbXgX:X`.Q V M M M r M r y y y y y y u y y y y y y y y y y u u u y ",
"y y y y u y y y y y y y y y y u M V K W t.S.XX0X9XmXcXcXdX5X).I * : < ' | $.$.$.O.O. . .} }  . .o.$.%.,X>X=X#X`.A.Q I H N M M r y y y y y y y y y y y u y y y y y r y y y ",
"y y y y u y y y y y y y y y r r N K e.S.#X$X3X2X1XwXwXwX1XY.s.C ; ; < ' ..$.$.$.O.O.O.O. . . .o.o.$.%.#.#.D.`.]..X}.A.W J N r y y y y y y y y y y y y y y y y y r y y y u ",
"y y y y y y y y y y y u y y r y V ! A.#XyXyX4X1XP.m.m.m.v.f.0.f * : < ' | o.$.O.O.O.O.O. .o.O.o.o...' G A P p.].>X6X|.t.K N r r y u y y y y y y y y y y y y y u u y y y y ",
"y y y y u y y y y y y y y y e r H Q ).>XvXmX4XI.m.x.x.n.z.d.>.s * ; G ' X...o.%.O.O.+.O.O.+...o.$...' < > A / [.pXsX#Xu.! N r r u y y y y y y y y y y y y y u u u u y y y ",
"y y u y y y y y y y u y u y r r H ^ '.tXVXcXqXP.c.l.j.j.h.4.>.s 0 h G _ [ | ..+.+. .+.+.+.+.+.+.| [ < > * A / [.gXlX=XD.I N r r y y y y y y y y y y y y y y u r y y y y y ",
"y y y y y y y y y y y y u y r r H ^ '.tXZXcXqXP.c.j.k.j.h.4.4.&.Z f F G ` _ _ { C.C.C.C.C.C.{ ` _ < < O $ B ~ #XhXbX:XA.! C r r y y y y y y u y y y y u y y y y y y y y y ",
"y y y y y y y y y y y y u u r r H ^ '.tXVXcXqXP.c.j.k.k.k.h.h.4.<.-.C c h c Y q.f.g.g.g.g.q.R m A > ; O O q ~ [.gXkX:XA.U C r u y y y y y y y y y y y y y y y y y y y u y ",
"y y y y y u y y y y y y u y r r H ^ '.tXVXcXqXP.c.j.k.j.j.j.j.h.d.3.&.f e e f ,.d.z.z.z.d.d.-.f 8 * $ $ 0 A / [.pXsX#Xu.K N y y y u y y y y y y y y y y y y y y y y y y y ",
"y y y y y y u y y y y y y y r r A ^ '.tXVXcXqXP.c.j.k.j.j.j.j.j.k.2.;.d a a &.2.k.z.z.j.j.7.>.&.t e e A S ~ ( #X>X>X}.e.K N y r y y y y y y y y u y y y y u y y r y y y y ",
"u y y y y y y y u y y y y y e r H ^ '.tXVXcXqXP.c.j.k.j.j.j.j.j.j.7.<.&.&.d ;.4.k.j.j.z.j.7.8.&.Z d J Q p.D.`.].#X|.i.W H M r y y y y y y u y y y y y y y y y y u u u y y ",
"y y y y y y y y y y y y y y r r H e.'.iXZXcXqXP.c.j.k.j.j.j.j.j.h.h.4.<.8.8.1.7.k.k.k.k.k.k.4.8.8.,.f.oX&X%X#X).A.e.I L V M y y y y y y y y y y u y y y y y y y y u u u r ",
"y u y y y y y y y y y y y y r r V Q '.tXVXcXqXP.c.l.h.l.j.j.j.j.j.h.h.6.6.7.6.h.j.j.l.j.j.l.l.k.6.f.Y.8XsXpX=XS.t.! V N M M M M y y y y r u u u y y y y r u u y y y y y y ",
"y y y y y y y y y y y y y M r r V W A.=XdXyX4XU.Y.c.f.6.5.4.5.h.j.j.j.j.j.j.l.n.L.l.l.L.L.l.b.b.l.J.U.5XtX>X#XS./ ! S V N M M M y y y y u u u r y y y y y y u y y y y y y ",
"y y y y y u y y u y y y y y y y N K Q S. X$X3X3X1XU.g.,.-.=.:.2.h.j.j.j.j.l.b.J.R.R.R.R.R.R.R.R.T.T.T.F.].].].[.].A.t.! N M 0 M u u y y y y y y y y y u y y y u y u u y y ",
"y y y y y y u y y y y y y y r y M H K W y.S.$X3X0X3XS.Y f d *.:.6.j.j.j.l.b.L.R.W.!.!.!.!.!.!.!.(.Q.G.A.! / p.[.*X*XS.t.Z M M 0 u r y y y y y y y y y y y y y u y r u y u ",
"y y y u y y y y y y y y y y y y M M N H I y..X7XdX7X_.L e t d :.j.j.j.j.l.l.J.E./././.^.^.^.^.^.(.(.G.! N ! p.[.tXpX#Xy.! N y r u y y y y y y y y y y y y y r u u u y y y ",
"y y y y y y y y y y y y y u y y y y M M N ^  X6XsXiX].S 0 w p ;.k.j.j.j.l.b.J.W./.^.^.^.^.^.^.^.^.(.H.Z 0 0 / [.gXlX=Xu.! B r y u u y y u y y y y y y y u r y y y u r y y ",
"y y y y y y y y y y y u y y y y M r r r N ^ [.tXgXaX].S * 6 a ;.k.j.j.j.l.l.L.R.E.W.!.!.!.!.~.!.W.T.H.Z 0 0 ~ [.gXkX:XA.W N r y y r y y y y y y y u u y u y y y y y y y y ",
"y y y y u y y y y y y y y y y y r r M r N ^ .X>XaXiX].S 8 3 a ;.k.j.l.l.l.l.b.L.J.J.J.K.K.K.K.K.J.L.,.t & 0 ~ [.gXkX*XD.I N r y y y y y y y u u r u y y u y y y y y y y y ",
"y u r u u y u r y y y y y y y y M r M r N ^ .XtXsXaX].S * 8 p =.7.h.h.h.h.h.x.l.x.l.b.x.l.x.l.l.l.9.:.p 4 A / .XhXkX*XA.! N r r y y y y y y r u u u y y y y y y y y r u y ",
"M r u u y y u u y y y M y y y y M r y y N ^ |.6XsXaX].S * 6 t *.<.4.4.2.4.2.2.5.5.5.2.9.5.5.9.5.5.2.=.a t H ^ #XhXkX$XA.I N r y u u y y u r y y y u r y r y y y y y u u y ",
"r u u r y y r u y y y y y y y y r y y y N ^  X6XsXaX].S 8 4 w a =.>.;.;.;.;.;.;.;.;.=.;.;.;.;.;.:.=.&.a s Y s.=XhXkX:XD.U V r y r u y y u y y y y y y y u u u y y y y y y ",
"M r y u u y y u y y y y y y y y M r y y V Q  X6XaXpX].S * @ 2 w a s a a a p a a p a p p a a p a a a d Z >.0.g.5XlXlX*XA.I N r r y y y y u y y y y y y y y u u u y y y y y ",
"y u u u r r u u y y y y y r M r r M r r N ^ .X6XsXaX].S * $ + + 2 6 2 2 2 2 2 2 2 2 2 2 2 2 2 2 3 6 p =.3.f.I.8XnXbX=Xi.I N y r y y y y y y y y y y u y y y y r r u u u y ",
"y u r r u u y y y y y y M M r M M r M M H ^  X6XsXaX].S * +     X X + @ 2 2 2 2 2 2 2 2 2 @ @ 2 2 6 a :.z.v.I.eXnXlX:Xi.I N r y u y y y y y y y y y y y y y y y u u u r y ",
"y u y u u r y u y y y y r y M r r r M r V ^  X7XsXaX].S * #   .   @ 2 w w p p p p p p p p p p p a a *.8.x.c.U.eXnXnX:Xi.I V r y y y y y y r u u y y y y u y y y y y y y y ",
"u r y y u u u r y y y M y y r M r M M M N Q  X6XsXpX].S * #       @ w a d *.=.*.*.*.*.*.*.*.*.*.=.=.:.4.l.v.U.eXnXlX*Xi.I V r r y y y u u u u r y y y y u u r y y y y y y ",
"u u y y y y u u y y y y y u u r y y y y N ^  X6XsXpX].S * # . .   2 a &.;.<.1.<.1.2.1.1.1.<.1.1.<.<.4.6.x.v.I.eXnXbX*Xi.U N y r u y y y y y y y y u y y y y y y u r y y y ",
"r u u y y u r u y y u u u r u u y y y y N ^  X6XsXpX].S * #   . X 3 a &.<.4.6.h.h.h.k.j.h.h.6.7.7.7.7.7.7.v.Y.8XnXbX*Xi.I N r y y y y y y y y y y y y y u u y y u u y u y ",
"y u r u r u u y y u r r u u y y y r y r N ^ .X>XgXpX[.S * # . .   2 p d ;.<.4.k.j.j.j.j.j.k.7.4.8.8.:.:.:.f.F.8XnXkX*Xi.I V r y y y y y y u y y y y y y r u y y y y r u u ",
"y u r u u u r y y y u u r r u y y y r r N ^  XtXgXaX[.S * # . . . X 3 w a d ;.2.k.j.j.j.k.7.8.;.&.d a a Z 0.s.$XvXkX*Xi.I N r r y y y y y y y y y y y y y y y y y y u u r ",
"y u r u u y u y u y y u u y y y r u u M C e. X7XaXiX].S * X     X @ % 6 w s *.<.h.h.z.l.l.5.>.&.a w 3 w t J r.$XhXkX*Xi.I C r y y y y y y y y y u y y y y y y y y u r u y ",
"u r u y y y u r r y y u u y r u u M V C I y. X7XyX6X).A * $ $ * 5 8 8 q i u 0.d.x.c.c.c.n.f.0.Z C r 9 6 e V r.#XhXkX*Xi.I V r r y y u y y y y u y y u y y y y y y y r u u ",
"u y y y y y u u u u u r y u u r M V L I e.S..X0X0X5Xa.A * * * q S D P D P I w.g.P.m.m.P.Y.v.g.w.I L B t t Y r.#XhXlX*Xi.I V y r y y y y y y y y y y y y y y y y u y u u u ",
"y y y y y y r u u r u r u u r y V K Q A.}.$X3X2X3XF.w.i * 5 A ~ V.`.`.{.).'.XX3XwXqXqXqX4X4XXX}.).A.e.Y Z 0.g.5XnXbX*Xa.I N r y y y y u y y y y y y y y y y y u r y y y r ",
"u u y y y y y y u y y y y r r r V W i.=XtXuX4X1XY.f.-.w + B D `.>XsXaXpXaXaXgXvXcXcXcXcXcXvXzXsXdX6XXXg.d.f.F.4XnXkX:XA.I N r r y u r y y y y y y y y y y y r u u u u u y ",
"u r y y r y y y y y y y y u r y H Q `.:XzXmX4XI.g.d.-.t 0 S ( #XgXBXBXbXbXbXNXNXVXVXVXNXVXVXBXbXbXvX8XY.v.m.I.8XvXgX&Xu.I N r y y y u u y y y y y y y u y u u y y y r u y ",
"y y y y u u u y y r u y r y r y C ! A.#X6X9X4X1XY.g.w.I P ~ D.#XtXsXsXsXpXsXsXsXsXsXsXsXsXsXsXsXdXyX0X1XP.I.1X8XyX7X].e.K N r u y y u u y u r y y y r u y y y y y y y u y ",
"y y y y y u u u y u u y u y r y N K e.)..X5X3X2X1XU.F.S.D.D.`.].#X%X&X%X#X=X#X#X#X=X#X#X#X&X$X&X&X&X3X3X1X2X2X3X$X.XA.W L M u r y y y r y y u u r u u y y y y u y y u r u ",
"y y r u y y y r r u y y u y y r M C I Q A.S.XX5XyXyX9X:X=X#X#X`.A.A.y.D.A.D.y.D.y.u.u.u.u.u.p.u.u.A.}.3X8X8X5XXXS.y.W K V M r u y y y u y u u y u y y y u r u u y y r u r ",
"y y u u y y y y u u r y u y u r M M N V K t.}.7XuXNXNXbXzXtX#XA.K V V V V L V V L H H H H H H H L I A.0XsXyX:X).Q H N M M r r u y y y y y u r y u y y y y y u r y u u y u ",
"y y y y u y y y u u y y r u u u r r M r M ! A.&XtXzXlXlXdX:X Xe.N r t r r r M r r r r r r r i r y N ^ #XtX>X#Xi.L r r u r u u u u y y y y y y y y u y y u y u r y y y y u ",
"y y y y u u r y y y u u u u r y M r r r M J ^ A.].#X#X$X#X).u.! M r r r r r r r r r r r r r r r y M W A.}._.i.Q H r r r u u r u u r u y y y y y y u r u u r u u y y u u r ",
"r u u u y y y y y r u y y y y y y u y y u C I Q e.y.y.y.r.e.! J M y y y y y y y y y y y y y y y y N L W e.e.W K N M y y y y y u y y y y y y y y y y y y y u y y y y y y y ",
"u u u r y y y y y y u u y y y y y y y y u M C H L K I K L L H N M y y y y y y y y y y y y y y y y M N H K L H V M y y y y y y y y y y y y y u y y y y y y y u y y y y y y ",
"y y y y y y y r y y u u y r u y y y y y y y u u N M N N N u u u y y y y y y y y y y y y y y y y y y M M M M M M M y y y y y y y y y y u y y y y y y y y y y y y y y y u y ",
"y y y y y u u u y y y u y y u u y y y y y y y y r r r r y y y y y y y y y y y y y y y y y y y M y y y y y y r r y y y y y y y y y y y y y y y y u y y y y y y y y u u r y ",
"y y y y y y y r y y y r y y u y r u u y y y y y y y r y r y y y y M y y y y y y y y y y y y y y y y y y y r y y y y y y y M y y y y y y y y u y y y y y y y y y y y y u r ",
"y y y u y y u u y y y y y y y y u u y y y y y u y y y y y y y y y y y y y y y y y M y y y y y y y y y y y y y y u y y y y y y y y y y y y y y y u y y y y y y y y y y y u ",
"y y u u y y u y y y r y y y y y y y y y y y y y y y y y y y y y y y y y y y y y y y y y y y y y y y y y y y y y y y y y y y y y u y y y y y y y y y y y y u y y u u y y u ",
"y u r y y y y y u u u y y y y y y y y y y y y y y y y y y y y y y y y y y y y y y y y y y y y y y y y y u y y y y y y y y y y y y y y u y y y y y y y y y y y u r u y y y ",
"y y y y y r u y y y y y u u u y y u y y y y y y y y y y y y y y y y y y y y y y y y y y y y y y y y y y y y y y y y y y y y y y y y y y y y y y y y u y y y y y y y r u u ",
"y y y y y y u u y y y y r y y y y y y y y y y y y y y y y y y y y y y y M y y y y y y y y y y y y y y y y y y y y y y y y y y y y y y y y u y y y y y y y y y y y u u y u ",
"y u y y y y u u y y u y y y y y y y y y y u y y y y y y y y y r r i r r r r i r i i r i r i y y y y y y y y y y y y y y y y y y y y u y y y y y y y y y y y y y y y y y y ",
"y u u r y y y u y y y y y y y u y y y y y y y y y y y y y y r 9 8 8 8 0 8 8 8 8 8 8 8 8 8 9 0 r r y y u y y y y y M y y y y y y y y y y y y y y y y y y y u y y y y y y y ",
"y y y y y y y r y y y y y r u u y y y y y y y y y y y y r i 9 5 & & @ & & & & @ & & & & & 4 8 9 r y y y y y M y y y y y y y y y y y y y u y y y u y y y y y y y u u y y r ",
"y y y y r y y y y y y y u u r y y y y u y y y y y y y y y i 8 4 @ + + + + + + + + + + + + & 8 9 e y y y y y y y y y y y y y y y y y y y y y y u y y y u y y y y r u y y u ",
"y r u y u y y y r u y y u y y y y y y y y y y y y y y y y i 9 & + #     +   + # #   + # + + & 9 r y y y y y y y y y y y y y y M u y y y y y y y y y y y y y u y u u y y y ",
"y y u u u u y y u u y y y y y y y y y y y y y y y y y y y e 9 4 + + + #     .   .   # + + % 8 0 r i y y y y y y y y y y y y y y y y y y y y y y y y y y y y y y r r u y y ",
"y y y y y y y y y y y y y y y y y y y y y y y y y y y y y y e 9 8 & % + #     .   # + % 4 8 i i y y y y y y y y y y y y y y y y r u u y y y y y y u u u u r y y u y y y y ",
"y y y y y y M y y y y y y y y y y u y y y y y u y y y y u y y i r 9 & % #         + % 8 9 i r y y y y y y y y y y y y y y y y y u u r y u y y y y u r r u u y u u y r u u ",
"y y y y y y y y y y y y y y y y u y y y y y u y y y y y y y y y i 9 4 % + + #   + + & 8 r y y y y u M y y y y y M y y y y y y y u y y y r u u u y u y u y y r u y y u u u ",
"y y y y y y y y y y y y y y y y y y y y y y y y y y y u y y y y y r 8 4 % + + + + % 4 9 r y y y y y y y y y y y y y y y y y y y y y y y y u r u u r y y y y u u y y y y r ",
"y y y y y y y y y y y y y y y y y y y y y y y y y y y y y y y y y e 9 & % $ + + + & 8 0 r u u u y y y y y y y y y y y y y M y y u r u u y y y y u r u u y y u r y u r u u "
};
