/* XPM */
static char *xpm_[] = {
/* columns rows colors chars-per-pixel */
"35 35 235 2 ",
"   c #333C57",
".  c #333B56",
"X  c #333C56",
"o  c #344869",
"O  c #354D71",
"+  c #344B70",
"@  c #354C70",
"#  c #354A6D",
"$  c #333D58",
"%  c #344463",
"&  c #365B86",
"*  c #3F76A2",
"=  c #4686AD",
"-  c #427CA6",
";  c #37608E",
":  c #344768",
">  c #333E59",
",  c #333F5C",
"<  c #375E8A",
"1  c #3B6B9A",
"2  c #54A6C1",
"3  c #6ADAE4",
"4  c #6AD9E3",
"5  c #5CB9CE",
"6  c #3D709C",
"7  c #386391",
"8  c #38608C",
"9  c #5CBAD3",
"0  c #498B98",
"q  c #263847",
"w  c #273B4A",
"e  c #3C6D7B",
"r  c #62C8DB",
"t  c #3C6C99",
"y  c #344363",
"u  c #34415E",
"i  c #365781",
"p  c #376291",
"a  c #64CCE0",
"s  c #478691",
"d  c #171626",
"f  c #191A2A",
"g  c #171424",
"h  c #345A67",
"j  c #6BDCE9",
"k  c #3D6E9A",
"l  c #333B55",
"z  c #344261",
"x  c #36537B",
"c  c #396897",
"v  c #4F9CBC",
"b  c #4C93A4",
"n  c #30505D",
"m  c #1A1C2C",
"M  c #2E4C5A",
"N  c #4B8FA0",
"B  c #51A0BF",
"V  c #3A6996",
"C  c #344362",
"Z  c #333E5A",
"A  c #344667",
"S  c #344566",
"D  c #355177",
"F  c #3B6C9A",
"G  c #4B92B5",
"H  c #6DE2EE",
"J  c #468591",
"K  c #243443",
"L  c #1A1B2B",
"P  c #181828",
"I  c #478792",
"U  c #69D8E8",
"Y  c #4685AC",
"T  c #396594",
"R  c #344666",
"E  c #333D59",
"W  c #34486A",
"Q  c #386493",
"!  c #3E729E",
"~  c #3F749F",
"^  c #3E739F",
"/  c #4788AC",
"(  c #66D0DB",
")  c #69D7E0",
"_  c #3F7581",
"`  c #191929",
"'  c #407783",
"]  c #6ADAE3",
"[  c #62C6D5",
"{  c #427CA5",
"}  c #3E749F",
"|  c #3C6D9B",
" . c #375A85",
".. c #333C58",
"X. c #354A6C",
"o. c #376190",
"O. c #64CCDE",
"+. c #6BDDE9",
"@. c #6BDCE8",
"#. c #6CDEEA",
"$. c #5DBBC8",
"%. c #283C4B",
"&. c #243444",
"*. c #1F2837",
"=. c #243342",
"-. c #2F4E5C",
";. c #65CEDB",
":. c #54A7C3",
">. c #386494",
",. c #375C87",
"<. c #344B6E",
"1. c #427DA6",
"2. c #5DBBCE",
"3. c #396574",
"4. c #325562",
"5. c #325663",
"6. c #335764",
"7. c #2D4A58",
"8. c #1B1D2D",
"9. c #1D2333",
"0. c #30515F",
"q. c #335664",
"w. c #315461",
"e. c #498C9C",
"r. c #58B0CB",
"t. c #38618E",
"y. c #33405D",
"u. c #344A6E",
"i. c #6AD9E2",
"p. c #161323",
"a. c #171525",
"s. c #171526",
"d. c #151021",
"f. c #437C87",
"g. c #66D0E2",
"h. c #38628E",
"j. c #344B6F",
"k. c #417BA5",
"l. c #5BB6CB",
"z. c #3C6E7C",
"x. c #365F6C",
"c. c #37606D",
"v. c #23303F",
"b. c #191B2B",
"n. c #37606E",
"m. c #365E6B",
"M. c #4A8F9F",
"N. c #56ABC8",
"B. c #3D719D",
"V. c #63CADD",
"C. c #6ADBE9",
"Z. c #6ADAE8",
"A. c #6BDBE9",
"S. c #71E9F2",
"D. c #355C69",
"F. c #45828E",
"G. c #71EBF5",
"H. c #53A5C3",
"J. c #376392",
"K. c #386392",
"L. c #3C6E9A",
"P. c #3D6F9B",
"I. c #417AA4",
"U. c #355D6A",
"Y. c #468490",
"T. c #64CCDF",
"R. c #3D719E",
"E. c #3B6A98",
"W. c #375A84",
"Q. c #33405C",
"!. c #344564",
"~. c #344464",
"^. c #344A6D",
"/. c #69D8E6",
"(. c #468590",
"). c #63C9DD",
"_. c #344565",
"`. c #344361",
"'. c #333F5B",
"]. c #365D6A",
"[. c #181727",
"{. c #19192A",
"}. c #181728",
"|. c #69D9E7",
" X c #212C3B",
".X c #2B4452",
"XX c #2B4352",
"oX c #2A4351",
"OX c #1E2534",
"+X c #46848F",
"@X c #63CADE",
"#X c #3C6D99",
"$X c #66D2E2",
"%X c #45818E",
"&X c #6CDEE9",
"*X c #6BDBE6",
"=X c #6ADBE5",
"-X c #60C3D9",
";X c #5AB4C6",
":X c #53A4BD",
">X c #437EA7",
",X c #437FA8",
"<X c #59B2C5",
"1X c #54A7BE",
"2X c #375F8C",
"3X c #37618F",
"4X c #488CB2",
"5X c #4380AA",
"6X c #365A87",
"7X c #34496D",
"8X c #488AB1",
"9X c #4482AB",
"0X c #365C89",
"qX c #35496B",
"wX c #355075",
"eX c #35527A",
"rX c #35537B",
"tX c #354C6F",
"yX c #354F74",
"uX c #323B55",
"iX c #313953",
"pX c #323B56",
"aX c #282E44",
"sX c #1D2032",
"dX c #1E2132",
"fX c #1E2133",
"gX c #2C334B",
"hX c #2F3750",
"jX c #252A3F",
"kX c #1A1D2D",
"lX c #303953",
"zX c #262B40",
"xX c #272C42",
"cX c #313A54",
"vX c white",
/* pixels */
"                                                                      ",
"                                                                      ",
"                                                                      ",
"                                                                      ",
"                                                                      ",
"                          . . . . . . . . . .                         ",
"                        X o O + + + + + + @ # $                       ",
"                      $ % & * = = = = = = - ; : >                     ",
"                      , < 1 2 3 4 4 4 4 3 5 6 7 % .                   ",
"                      , 8 9 0 q w w w w q e r t y .                   ",
"                  . u i p a s d f f f f g h j k y .                   ",
"          . . . l z x c v b n f m m m f M N B V C l . X               ",
"        Z A A A S D F G H J K L m m m P I U Y T @ R : %               ",
"      E W Q ! ~ ~ ^ / ( ) ) _ ` m m m ` ' ] [ { } ~ |  .u ..          ",
"    . X.o.! O.+.@.#.$.%.K &.*.m m m m m *.=.-.;.+.#.:.>.,.,           ",
"    . <.1.2.3.4.5.6.7.8.f f L m m m m m L f 9.0.q.w.e.r.t.y.          ",
"    . u.= i.=.p.a.a.s.P P L m m m m m m f P P a.a.d.f.g.h.y.          ",
"    . j.k.l.z.x.c.c.c.c.x.v.b.m m m m b.%.n.c.c.c.m.M.N.t.y.          ",
"    . X.; B.V.C.Z.Z.Z.A.S.D.P m m m m P F.G.Z.Z.Z.j H.J. .,           ",
"      $ : K.L.P.P.P.P.I.Z.U.P m m m m P Y.T.R.P.P.P.E.W.Q.            ",
"        Z !.!.~.~.~.^.L./.U.P m m m m P (.).t.: ~.~._.`.              ",
"          . . . . l C L./.U.P m m m m P (.).8 '.. . . X               ",
"                  . y L./.].[.{.{.{.{.}.(.).8 ,                       ",
"                  . y L.|.D. X.XXXXXoXOX+X@X8 ,                       ",
"                  . y #X$Xn.%X&X*X*X=Xn.Y.-X8 ,                       ",
"                  . % T k.;X:X>X,X,X,X<X1X* 2X,                       ",
"                    '.@ 3X4X5X6X7Xj.; 8X9X0XqXE                       ",
"                      E wXeXrXtX. $ yXeXrX@ X                         ",
"                        X X X         X X                             ",
"                            uXiXiXiXiXpX                              ",
"                          ..aXsXdXdXfXgX$                             ",
"                            hXjXb.kXaXlX                              ",
"                            $ hXzXxXcX..                              ",
"                                $ ..                                  ",
"                                                                      "
};
