/* XPM */
static char *xpm_[] = {
/* columns rows colors chars-per-pixel */
"35 35 174 2 ",
"   c #585459",
".  c #EEE8F8",
"X  c #F5EEFF",
"o  c #F8F1FF",
"O  c #ADA8B3",
"+  c #D3CCDB",
"@  c #F4EDFD",
"#  c #F6EFFF",
"$  c #E5DFEE",
"%  c #F7F0FF",
"&  c #F7EFFF",
"*  c #A9A3AE",
"=  c #68646A",
"-  c #6A666D",
";  c #69656B",
":  c #7E7A82",
">  c #E9E2F2",
",  c #F9F1FF",
"<  c #AAA4B0",
"1  c #6A666C",
"2  c #6C686F",
"3  c #6B676E",
"4  c #807C84",
"5  c #EAE3F3",
"6  c #F9F2FF",
"7  c #F0E9FA",
"8  c #B8B2BF",
"9  c #DDD7E6",
"0  c #FBF4FF",
"q  c #F1EAFA",
"w  c #E7E0F0",
"e  c #363336",
"r  c #ABA5B1",
"t  c #EEE7F7",
"y  c #C6C0CE",
"u  c #C2BCC9",
"i  c #C1BBC8",
"p  c #DED8E7",
"a  c #353235",
"s  c #AAA5B0",
"d  c #D8D2E1",
"f  c #413E41",
"g  c #2F2C2E",
"h  c #302D2F",
"j  c #2D2B2C",
"k  c #9C97A2",
"l  c #F0E9F9",
"z  c #ECE5F5",
"x  c #F1EAFB",
"c  c #DBD4E3",
"v  c #DAD4E3",
"b  c #E9E3F3",
"n  c #EBE5F5",
"m  c #FDF6FF",
"M  c #A6A0AB",
"N  c #666269",
"B  c #F4EDFE",
"V  c #FAF2FF",
"C  c #F2EBFC",
"Z  c #FEF7FF",
"A  c #928D96",
"S  c #423F42",
"D  c #99949E",
"F  c #4A474B",
"G  c #4D4A4E",
"H  c #4C484C",
"J  c #666268",
"K  c #FAF3FF",
"L  c #938E97",
"P  c #444145",
"I  c #BCB6C3",
"U  c #8B8790",
"Y  c #8D8992",
"T  c #8C8891",
"R  c #ECE6F6",
"E  c #EFE8F8",
"W  c #9F99A4",
"Q  c #D3CDDB",
"!  c #FEF6FF",
"~  c #FCF4FF",
"^  c #EFE8F9",
"/  c #D3CDDC",
"(  c #333032",
")  c #A9A4AF",
"_  c #ACA6B2",
"`  c #A7A1AD",
"'  c #A59FAA",
"]  c #D1CBD9",
"[  c #E6E0F0",
"{  c #49464A",
"}  c #110F0E",
"|  c #2A2728",
" . c #A39EA9",
".. c #DFD9E8",
"X. c #E0D9E9",
"o. c #ADA7B3",
"O. c #DFD8E8",
"+. c #9D98A2",
"@. c #534F54",
"#. c #E5DEEE",
"$. c #F3ECFD",
"%. c #E1DBEA",
"&. c #948F99",
"*. c #575358",
"=. c #95909A",
"-. c #100E0D",
";. c #524F53",
":. c #8E8992",
">. c #1D1B1B",
",. c #454145",
"<. c #938E98",
"1. c #2F2D2E",
"2. c #B4AFBB",
"3. c #434043",
"4. c #CDC6D4",
"5. c #858089",
"6. c #CCC6D4",
"7. c #CFC9D7",
"8. c #ACA7B2",
"9. c #868189",
"0. c #181616",
"q. c #59555A",
"w. c #C4BECC",
"e. c #DED7E6",
"r. c #635F65",
"t. c #545055",
"y. c #E6E0EF",
"u. c #605C62",
"i. c #BBB5C2",
"p. c #F3ECFC",
"a. c #E4DDED",
"s. c #D4CEDD",
"d. c #D5CFDD",
"f. c #D5CEDD",
"g. c #DAD3E2",
"h. c #EEE7F8",
"j. c #444144",
"k. c #88838C",
"l. c #2B282A",
"z. c #2D2A2C",
"x. c #474447",
"c. c #DDD6E6",
"v. c #C9C2D0",
"b. c #C9C3D1",
"n. c #C9C3D0",
"m. c #D0C9D8",
"M. c #FBF3FF",
"N. c #D9D3E2",
"B. c #C3BDCA",
"V. c #706C73",
"C. c #646066",
"Z. c #625E64",
"A. c #B4AEBA",
"S. c #322F31",
"D. c #E2DCEB",
"F. c #7F7A82",
"G. c #736E75",
"H. c #736F76",
"J. c #726D74",
"K. c #BBB5C1",
"L. c #77737B",
"P. c #C4BECB",
"I. c #FCF5FF",
"U. c #D6CFDE",
"Y. c #BCB6C2",
"T. c #8A858E",
"R. c #2E2B2D",
"E. c #4E4B4F",
"W. c #E4DEED",
"Q. c #DFD8E7",
"!. c #E2DBEB",
"~. c #827D85",
"^. c #C0BAC7",
"/. c white",
/* pixels */
"  . X X X X X X X X X X X X X X X X X X X X X X X X X X X X X X X o O ",
"+ @ X X X X X X X X X X X X X X X X X X X X X X X X X X X X X X X # $ ",
"% X X X X & o o o o o o o o o o o o o o o o o o o o o o o % X X X X # ",
"X X X X % * = - - - - - - - - - - - - - - - - - - - - - ; : > # X X X ",
"X X X , o < 1 2 2 2 2 2 2 2 2 2 2 2 2 2 2 2 2 2 2 2 2 2 3 4 5 6 # X X ",
"X X 7 8 9 o o o o 0 0 0 0 0 0 0 0 0 0 0 0 0 0 0 0 0 6 o o o q 8 9 # X ",
"X # w e r 6 X X t y u u u u u u u u u u u u u u u i p # X # w e r 6 X ",
"X # w a s 6 X % d f g h h h h h h h h h h h h h h j k 6 # # w a s 6 X ",
"X # w a s 6 l z x 9 c c c c c c c c c c c c c c c v b 7 n # w a s 6 X ",
"X # w a s m M N x % % % X B B B B B B B B B X % % % V M N C w a s 6 X ",
"X # w a s Z A S l X X % D F G G G G G G G H J w # X K A S q w a s 6 X ",
"X # w a s Z L P 7 X , o I U Y Y Y Y Y Y Y T k R 6 # V L P q w a s 6 X ",
"X # w a s Z L P 7 E W Q 6 K V K ! Z Z ~ 6 K 6 ^ W / ~ L P q w a s 6 X ",
"X # w a s Z L P q w ( ) 6 X # b _ ` ' ] & X # [ ( ) Z L P q w a s 6 X ",
"X # w a s Z L P q w a s 6 # o v { } |  .6 & # w a s Z L P q w a s 6 X ",
"X # w a s Z L P q w a s K > ..B X.H o.X b O.X w a s Z L P q w a s 6 X ",
"X # w a s Z L P q w a s m +.@.#.$.%.t C &.*.x w a s Z L P q w a s 6 X ",
"X # w a s Z L P q w a s Z =.-.;.#.% o :.>.,.q w a s Z L P q w a s 6 X ",
"X # w a s Z L P q w a s Z <.1.2.^ % % ] J 3.q w a s Z L P q w a s 6 X ",
"X # w a s Z L P q w a s 0 4.O % q 5.6.Z 7.8.B w a s Z L P q w a s 6 X ",
"X # w a s Z L P q w a s 6 % V $ 9.0.q.w.6 o # w a s Z L P q w a s 6 X ",
"X # w a s Z L P q [ ( ) 6 X % e.r.*.t.o.o X # y.( ) Z L P q w a s 6 X ",
"X # w a s Z L P q 5 u.i.6 % % % % % % % % % % 5 u.i.m L P q w a s 6 X ",
"X # w a s Z L P 7 X t p.a.s.d.d.d.d.d.d.d.f.g.C h.C K L P q w a s 6 X ",
"X # w a s Z L j.7 X X o k.l.g g g g g g g z.H a.& X K L j.q w a s 6 X ",
"X # w a s Z &.x.7 X X # c.v.b.b.b.b.b.b.b.n.m.x X X V &.x.x w a s 6 X ",
"X # w a s M.N.B.B % % % , K K K K K K K K K 6 % % % % N.B.B w a s 6 X ",
"X # w a s 6 % 6 X.V.r.C.C.C.C.C.C.C.C.C.C.C.C.C.C.Z.A.6 o # w a s 6 X ",
"X # y.S.) 6 X # D.F.G.H.H.H.H.H.H.H.H.H.H.H.H.H.H.J.K.% X # y.S.) 6 X ",
"X # z L.P.K o o 6 ~ I.I.I.I.I.I.I.I.I.I.I.I.I.I.I.I.K o o , z L.P.o X ",
"X X X X # U.i.I I I I I I I I I I I I I I I I I I I I I Y.w.7 X X X X ",
"X X X X o T.R.S.S.S.S.S.S.S.S.S.S.S.S.S.S.S.S.S.S.S.S.S.h E.W.# X X X ",
"X X X X X > p O.O.O.O.O.O.O.O.O.O.O.O.O.O.O.O.O.O.O.O.O.Q.!.$.X X X X ",
"x X X X X # # # # # # # # # # # # # # # # # # # # # # # # # X X X X $.",
"~.7 X X X X X X X X X X X X X X X X X X X X X X X X X X X X X X X % ^."
};
