/* XPM */
static char *xpm_[] = {
/* columns rows colors chars-per-pixel */
"35 35 164 2 ",
"   c #171829",
".  c #1A1C2C",
"X  c #1B1E31",
"o  c #1D2032",
"O  c #1D233C",
"+  c #25212E",
"@  c #29232E",
"#  c #32252D",
"$  c #222433",
"%  c #252A3F",
"&  c #272A3C",
"*  c #69313F",
"=  c #7C433D",
"-  c #1E2544",
";  c #1E274B",
":  c #262C41",
">  c #202748",
",  c #212A4F",
"<  c #2B324A",
"1  c #373946",
"2  c #3A3C4B",
"3  c #222C55",
"4  c #24305D",
"5  c #2B3557",
"6  c #333C57",
"7  c #343D58",
"8  c #253364",
"9  c #26356C",
"0  c #323E69",
"q  c #2A3C7A",
"w  c #2A3B77",
"e  c #47254D",
"r  c #482545",
"t  c #4F2453",
"y  c #502554",
"u  c #5C265C",
"i  c #5F295F",
"p  c #723A40",
"a  c #5E3361",
"s  c #39425C",
"d  c #37405B",
"f  c #464754",
"g  c #454C65",
"h  c #564760",
"j  c #4D556C",
"k  c #5A5B67",
"l  c #50586F",
"z  c #525565",
"x  c #555C74",
"c  c #7B507B",
"v  c #5E657A",
"b  c #5A6176",
"n  c #62697D",
"m  c #666773",
"M  c #864D42",
"N  c #9B5151",
"B  c #934956",
"V  c #BB4854",
"C  c #A35A48",
"Z  c #B46A55",
"A  c #CC5A55",
"S  c #C3694E",
"D  c #C96B4F",
"F  c #E46F53",
"G  c #EF7D57",
"H  c #E87557",
"J  c #F27E57",
"K  c #F37F58",
"L  c #2B4086",
"P  c #2E448E",
"I  c #324481",
"U  c #2F4590",
"Y  c #304893",
"T  c #324B9E",
"R  c #335096",
"E  c #324DA4",
"W  c #3551AD",
"Q  c #3653B3",
"!  c #405290",
"~  c #4B5C96",
"^  c #46568B",
"/  c #676D85",
"(  c #686F82",
")  c #666D8A",
"_  c #6F7587",
"`  c #707587",
"'  c #7C7D86",
"]  c #74798B",
"[  c #797F90",
"{  c #4D63AC",
"}  c #3759C4",
"|  c #3C5BC4",
" . c #375AC8",
".. c #3B5DCB",
"X. c #3657C1",
"o. c #3D61CB",
"O. c #406BCF",
"+. c #4465CB",
"@. c #5270CF",
"#. c #5B76CC",
"$. c #416DD2",
"%. c #5875D3",
"&. c #607CD3",
"*. c #977597",
"=. c #866487",
"-. c #7A8091",
";. c #4C91AA",
":. c #4B87D7",
">. c #778CCF",
",. c #6781D4",
"<. c #798FD6",
"1. c #788FD8",
"2. c #7289D2",
"3. c #7990D8",
"4. c #7D93D6",
"5. c #66CDEC",
"6. c #67D0EE",
"7. c #69D4F2",
"8. c #8B8C93",
"9. c #868B9A",
"0. c #898D9D",
"q. c #828796",
"w. c #94969E",
"e. c #AC8780",
"r. c #8D93A1",
"t. c #9797A9",
"y. c #AA8FAA",
"u. c #AA90AA",
"i. c #A795AC",
"p. c #B49CB3",
"a. c #9CA0AC",
"s. c #A2A5AD",
"d. c #AAADB7",
"f. c #B2B5BE",
"g. c #EEA48B",
"h. c #899AD2",
"j. c #99A9DD",
"k. c #ABB2C8",
"l. c #BCBEC5",
"z. c #B3B7C3",
"x. c #AAB6DD",
"c. c #9BACE1",
"v. c #BEC0C7",
"b. c #BEC1C8",
"n. c #C3C5CB",
"m. c #C9CACD",
"M. c #C7C8CB",
"N. c #CECFD2",
"B. c #C6CAD7",
"V. c #CFD0D3",
"C. c #CED0D9",
"Z. c #D2D2D5",
"A. c #D5D6DB",
"S. c #C0CAEA",
"D. c #D6DAE4",
"F. c #D8DDF0",
"G. c #DEE0E2",
"H. c #E3E3E5",
"J. c #ECECED",
"K. c #E8E6E9",
"L. c #E6E9F3",
"P. c #EFEFF1",
"I. c #EFF0F0",
"U. c #F1F1F2",
/* pixels */
"6 6 6 6 6 7 6 6 6 6 7 6 6 6 6 6 6 6 6 6 6 6 6 6 6 6 6 6 6 6 6 6 6 7 6 ",
"6 6 6 6 6 6 6 6 6 6 6 6 6 6 6 6 6 6 6 6 6 6 6 6 6 6 6 6 6 6 6 6 6 6 6 ",
"6 6 6 6 6 7 6 6 6 6 7 6 6 6 6 5 6 6 6 5 6 6 6 6 6 6 6 6 6 6 6 6 6 6 6 ",
"6 6 7 6 6 6 6 6 6 6 6 7 6 j v v b v v v v v b g 6 6 6 6 6 6 6 6 6 6 6 ",
"6 6 6 6 6 6 6 6 6 6 6 7 6 d.U.J.I.I.I.I.I.U.J.q.6 6 6 6 6 6 6 6 6 6 6 ",
"7 6 6 6 6 6 7 6 6 6 6 k 0.i.u.y.u.u.u.u.u.u.u.i.q.g 6 6 6 6 6 6 6 6 7 ",
"6 6 6 6 6 6 6 6 6 6 6 -.I.*.u u u u u u u u i p.G.l 6 6 6 6 6 6 6 6 6 ",
"6 6 7 6 6 6 6 6 6 6 5 -.U.*.u u u u i u u u i p.G.b 6 6 6 6 6 6 6 6 7 ",
"6 6 6 7 6 6 6 6 6 s x q.m.=.u i u y y y y a c i.v.j 6 6 6 6 6 6 6 6 6 ",
"6 6 6 6 6 6 6 6 6 g N.s.& e i i e . + + . m K.0.d d 6 6 6 6 6 6 6 6 6 ",
"6 6 6 6 6 6 6 6 7 g A.N.0.h r B N M * * = e.U.0.6 6 6 6 6 6 6 6 6 6 6 ",
"7 6 6 6 6 6 6 6 s l C.P.U.m # D J G A V F g.H.8.d 6 6 6 6 6 6 6 7 6 6 ",
"6 6 6 6 6 6 6 6 a.B.2.#.&.0 # D K G H H K Z f w.v.j 6 6 6 6 6 6 6 7 6 ",
"6 6 6 6 6 7 g b k.S.@.} ..9 # C S S S S D M X -.f._ j 6 6 6 6 6 6 6 6 ",
"6 6 6 6 6 6 ] H.4.+.......8 . @ @ @ @ @ @ $ . @ f m.f.d 6 6 6 6 7 6 6 ",
"6 6 7 6 6 6 [ J.1. ...W q > o 9 q q q q q 4 .   1 Z.v.6 6 6 6 6 6 6 6 ",
"6 6 6 6 6 6 -.J.<. . .P o . - W o.o.o.o.o.Y .   d N.v.6 6 6 6 6 6 6 7 ",
"6 6 6 6 6 6 -.P.( ; ; - . w W  .:.5.6.5.7.;.o -.v.m z d 6 6 6 6 6 6 6 ",
"6 6 6 6 6 6 -.J./ - . . . U ....:.7.6.6.7.;.X -.l.n k d 6 6 6 6 6 7 7 ",
"6 6 6 6 6 5 -.J.>.W - . . U o. .o.o.$.o.$.R . o f M.f.s 6 6 6 6 6 6 6 ",
"6 6 6 6 6 5 ] J.1.X.P 4 . 4 q w q q w w w 8 .   1 Z.v.6 6 d 6 6 6 6 6 ",
"6 6 6 6 6 6 -.I.1. .o.P o . . o o o X o X . . . 1 Z.v.6 6 6 6 6 7 6 6 ",
"6 6 6 6 6 6 -.I.1. . .U o . O P T T T T E w . 9 { D.v.6 6 6 6 6 6 6 6 ",
"6 6 6 6 7 7 ( b.h.,.,.~ o   O P Q o.o...Q w o L %.F.v.6 6 6 6 6 6 7 6 ",
"6 6 6 6 7 6 s g z.L.L.a.o     o 9 X. .Q 3 o . L %.F.v.6 6 6 6 6 7 6 6 ",
"6 6 6 6 6 6 7 7 ] a.K.k.q ) 8.8.t.j.c.h.R 4 . 3 ^ D.v.6 6 6 6 6 6 6 6 ",
"6 6 6 6 6 6 6 6 7 g N.x.+.x.I.J.L.K.J.D.#.P . . 1 m.z.6 6 6 6 6 6 6 6 ",
"6 7 6 6 6 6 6 6 d s v l 4 f k k k k k z 5 5 < < 6 v b d 6 6 6 6 7 6 6 ",
"6 6 6 6 7 6 6 6 6 6 < < o .   .         X & d d 6 5 6 6 6 6 6 6 6 6 7 ",
"6 6 6 7 6 6 6 6 6 6 d 6 d O . . . . . . : 6 6 6 6 6 6 6 6 6 6 6 6 6 6 ",
"6 6 6 6 6 6 6 6 d 6 6 6 6 < O : : % % : 6 6 6 6 6 6 6 d 6 6 6 6 6 7 7 ",
"6 7 6 6 6 6 6 7 6 6 6 6 6 6 7 7 7 7 7 d d 6 6 6 6 6 6 6 6 6 6 6 6 6 6 ",
"6 6 6 6 7 6 6 6 6 6 6 6 6 6 6 6 6 6 6 6 6 6 6 6 6 6 6 6 6 6 6 6 6 6 7 ",
"6 6 6 6 6 6 6 6 6 6 6 6 6 7 6 6 6 6 6 7 6 6 6 7 6 6 6 7 6 6 6 7 6 6 6 ",
"6 6 7 6 6 6 6 6 7 6 6 6 6 6 6 6 6 6 6 7 6 6 6 6 6 6 6 6 6 7 6 6 6 6 6 "
};
