/* XPM */
static char *xpm_[] = {
/* columns rows colors chars-per-pixel */
"35 35 152 2 ",
"   c #1A1C2C",
".  c #17192A",
"X  c #1B1E32",
"o  c #191E39",
"O  c #221F2D",
"+  c #211D31",
"@  c #1E2135",
"#  c #1D273A",
"$  c #2B232E",
"%  c #22263A",
"&  c #23283C",
"*  c #2C2E3C",
"=  c #33223E",
"-  c #32333E",
";  c #602C3E",
":  c #713E3F",
">  c #1C2341",
",  c #1F2950",
"<  c #262C41",
"1  c #262B45",
"2  c #332D42",
"3  c #2C344C",
"4  c #323442",
"5  c #363846",
"6  c #232C51",
"7  c #2F3750",
"8  c #2F3853",
"9  c #23305E",
"0  c #333C57",
"q  c #353E58",
"w  c #243262",
"e  c #2D3A6A",
"r  c #353861",
"t  c #283A79",
"y  c #422348",
"u  c #4F2553",
"i  c #522655",
"p  c #5C265C",
"a  c #532957",
"s  c #7D3E53",
"d  c #3A435D",
"f  c #3F4861",
"g  c #35416C",
"h  c #4D4E5B",
"j  c #52535E",
"k  c #7E4942",
"l  c #62585F",
"z  c #444C65",
"x  c #4B536A",
"c  c #595B6B",
"v  c #545B72",
"b  c #685F71",
"n  c #774C78",
"m  c #5A6177",
"M  c #5D6379",
"N  c #666771",
"B  c #626A7C",
"V  c #64697A",
"C  c #92554B",
"Z  c #9B4E57",
"A  c #875951",
"S  c #A25A47",
"D  c #B64353",
"F  c #C2684E",
"G  c #DB6856",
"H  c #D77457",
"J  c #E06D55",
"K  c #ED7A57",
"L  c #E57957",
"P  c #F17E57",
"I  c #D97964",
"U  c #EF8865",
"Y  c #2B3F81",
"T  c #2C4082",
"R  c #2D438B",
"E  c #2F4594",
"W  c #304795",
"Q  c #30499B",
"!  c #3B57AF",
"~  c #3654B3",
"^  c #3756BD",
"/  c #3958BE",
"(  c #50629C",
")  c #5B6487",
"_  c #686F82",
"`  c #676E81",
"'  c #6B7185",
"]  c #6B728B",
"[  c #707789",
"{  c #757B8C",
"}  c #7B7E8C",
"|  c #797B86",
" . c #6D7694",
".. c #4B5DB6",
"X. c #4D60BE",
"o. c #395BC4",
"O. c #3B5DCA",
"+. c #375AC7",
"@. c #3D62CC",
"#. c #456AC7",
"$. c #4270CF",
"%. c #4679D3",
"&. c #4576D3",
"*. c #926E92",
"=. c #997D9B",
"-. c #7C8192",
";. c #6980CA",
":. c #7A8ECF",
">. c #6B84D4",
",. c #798ED1",
"<. c #7E94D9",
"1. c #7B90D3",
"2. c #61B8DD",
"3. c #5EB8E6",
"4. c #65CEDF",
"5. c #61C1E9",
"6. c #69D6EF",
"7. c #6EE2F3",
"8. c #84868F",
"9. c #898A93",
"0. c #8C92A0",
"q. c #9A99A8",
"w. c #A589A5",
"e. c #A391A7",
"r. c #A2A7B4",
"t. c #A5A8B3",
"y. c #ABAEBA",
"u. c #AEB1BB",
"i. c #B1B4BD",
"p. c #8596CD",
"a. c #889BD6",
"s. c #93A1CE",
"d. c #A2AAC5",
"f. c #A9B0CA",
"g. c #BDBFC5",
"h. c #A0ABD0",
"j. c #C5B2C3",
"k. c #BFC3CC",
"l. c #CCCCD1",
"z. c #D3D2D4",
"x. c #DCDCDF",
"c. c #EDE2DE",
"v. c #D6D9E4",
"b. c #DEE1EB",
"n. c #E3E4E6",
"m. c #E8E7E8",
"M. c #ECECED",
"N. c #E8E6E8",
"B. c #ECEDF2",
"V. c #F0EFF0",
"C. c #EFF0F4",
"Z. c #F0F1F3",
/* pixels */
"0 0 0 0 0 0 0 0 d 8 8 8 x -.-.-.-.-.-.-.-.-.B 0 0 0 0 0 0 0 0 0 0 0 0 ",
"0 0 0 0 0 0 0 0 8 d d 8 { M.V.V.V.V.V.V.B.M.i.d 0 0 0 0 0 0 0 0 0 0 0 ",
"0 0 0 0 0 0 0 0 8 8 d 0.q.w.w.w.w.w.w.w.w.w.e.q.v 0 0 0 0 0 0 0 0 0 0 ",
"0 0 0 0 0 0 0 0 d 8 m n.j.a p p p p p p p p *.V.{ 0 0 0 0 0 0 0 0 0 0 ",
"0 0 0 0 0 0 0 0 d 3 x n.j.p p p p p p p p p *.V.{ 0 0 0 0 0 0 0 0 0 0 ",
"0 0 0 0 0 0 0 0 d x [ k.e.p p p u u u i i n =.l._ 0 0 0 0 0 0 0 0 0 0 ",
"0 0 0 0 0 0 0 0 d i.z.y = p p i O       2 x.i.d 0 0 0 0 0 0 0 0 0 0 0 ",
"0 0 0 0 0 0 0 0 d i.m.9.N y s Z k : ; : A N.i.d 0 0 0 0 0 0 0 0 8 d 0 ",
"0 0 0 0 0 0 0 0 z u.C.Z.t.O S P P G D G U c.u.f 0 0 0 0 0 0 0 0 0 0 0 ",
"0 0 0 d 0 0 0 ` k.a.>.>.( O S P P K H L U l | g.` 0 0 0 0 0 0 0 0 0 0 ",
"0 0 0 0 0 0 8 -.Z.<.+.O.Q < C H I I H H F O N V.{ 0 0 0 0 0 0 0 0 0 0 ",
"0 0 0 0 0 0 8 -.C.<.O.O.o.~ r 2 ......d $ . N V.{ 0 0 0 0 0 0 0 0 0 0 ",
"0 0 0 0 0 0 8 -.C.<.+.O.O.O.R t o.O.o.R g B -.t.M 0 0 0 0 0 0 0 0 0 0 ",
"0 0 0 0 0 0 8 -.B.a.+.#.O.O.+.o.o.O.O.o.#.b.u.d 0 0 0 0 0 0 0 0 0 0 0 ",
"0 0 0 0 0 0 0 x { s.h.g Y O.O.#.3.5.5.5.2.B *.i.B 0 0 0 0 0 0 0 0 0 0 ",
"0 0 0 0 0 0 0 0 d u.z.- 9 O.O.$.6.7.7.7.4.# N B.{ 0 0 0 0 0 0 0 0 8 d ",
"0 0 0 0 0 0 0 8 d i.z.4 w O.O.#.&.%.%.%.#.> N M.{ 0 0 0 0 0 0 0 0 0 0 ",
"0 0 0 0 0 0 0 0 d u.z.4 6 E Q W E E E E Y w  .B.{ 8 0 0 0 0 0 0 0 0 0 ",
"0 0 0 0 0 0 0 0 d i.z.4   o X X X X X X 1 ~ 1.B.{ 0 0 0 0 0 0 0 0 0 0 ",
"0 0 0 0 0 0 0 0 d i.z.4     w Y T T T T Y o.<.B.{ 8 0 0 0 0 0 0 0 0 0 ",
"0 q 0 0 0 0 0 0 f i.z.4     R o.O.O.+.+./ ^ :.B.{ 0 0 0 0 0 0 0 0 0 0 ",
"0 0 0 0 0 0 0 0 q i.z.4 . . # w +.O.+.t 6 6 ] M.{ 0 0 0 0 0 0 0 0 0 0 ",
"0 0 0 0 0 0 0 z ' s.f.2 * j j v %.>.>.` h 6 ] B.{ 0 0 q 0 0 0 0 0 0 d ",
"0 0 0 0 0 0 8 -.m.a.! o c N.N.N.V.V.V.M.v.X.,.B.{ 0 0 0 0 0 0 0 0 0 8 ",
"0 q 0 0 q 0 0 M t.s.p.} 8.t.r.t.t.r.t.r.r.a.s.r.v 0 0 0 0 0 0 0 0 0 0 ",
"0 0 0 0 0 0 0 0 d t.V.M.u.0 0 8 0 0 0 8 z x.y.q 0 0 0 0 0 0 q 0 0 8 0 ",
"0 0 0 0 0 0 0 0 0 v [ [ M 0 0 0 0 0 0 0 d ' M 0 0 0 0 0 0 0 0 0 8 d 8 ",
"0 0 0 0 0 0 0 0 0 0 0 0 0 0 0 0 0 0 0 0 0 0 0 0 0 0 0 0 0 0 0 0 8 d 8 ",
"0 0 0 0 0 0 0 0 0 0 0 0 0 0 0 0 0 0 0 0 0 0 0 q 0 0 0 0 0 0 0 q 0 0 0 ",
"0 0 0 0 0 0 0 0 0 0 0 0 0 0 0 0 0 0 0 0 0 0 0 0 0 0 0 0 0 0 0 0 0 0 d ",
"0 q 0 0 0 0 0 0 0 0 0 0 0 0 0 0 0 0 0 0 0 0 0 q 0 0 0 q 0 0 0 0 0 0 0 ",
"0 0 0 0 0 0 0 0 0 0 0 0 3 & & & & & & 3 0 0 0 0 0 0 0 0 0 0 0 0 0 0 0 ",
"0 0 0 0 0 0 0 0 0 0 0 0 3           X < d 8 0 0 d 0 0 0 0 0 0 0 0 8 d ",
"0 0 0 0 0 0 0 0 0 q 0 0 0 7 %     % 7 d 0 0 0 0 8 0 0 0 0 0 0 0 d 8 8 ",
"q 0 0 0 0 0 0 0 0 0 0 0 0 0 < @ @ < 0 0 0 0 0 0 0 0 0 0 0 0 0 0 0 0 0 "
};
