/* XPM */
static char *xpm_[] = {
/* columns rows colors chars-per-pixel */
"35 35 22 1 ",
"  c #333C57",
". c #323B56",
"X c #38435E",
"o c #546983",
"O c #566C86",
"+ c #333B56",
"@ c #3B4762",
"# c #465671",
"$ c #556A84",
"% c #353E59",
"& c #475872",
"* c #576E88",
"= c #50647E",
"- c #536882",
"; c #566D87",
": c #576D87",
"> c #42506B",
", c #4D607A",
"< c #323A55",
"1 c #43526C",
"2 c #3C4863",
"3 c white",
/* pixels */
" .XoOOOOOOOOOOOOOOOOOOOOOOOOOOOoX. ",
"+@#$OOOOOOOOOOOOOOOOOOOOOOOOOOO$#@+",
"%&*OOOOOOOOOOOOOOOOOOOOOOOOOOOOO*&%",
"=-OOOOOOOOOOOOOOOOOOOOOOOOOOOOOOO-=",
";OOOOOOOOOOOOOOOOOOOOOOOOOOOOOOOOO;",
"OOOOOOOOOOOOOOOOOOOOOOOOOOOOOOOOOOO",
"OOOOOOOOOOOOOOOOOOOOOOOOOOOOOOOOOOO",
"OOOOOOOOOOOOOOOOOOOOOOOOOOOOOOOOOOO",
"OOOOOOOOOOOOOOOOOOOOOOOOOOOOOOOOOOO",
"OOOOOOOOOOOOOOOOOOOOOOOOOOOOOOOOOOO",
"OOOOOOOOOOOOOOOOOOOOOOOOOOOOOOOOOOO",
"OOOOOOOOOOOOOOOOOOOOOOOOOOOOOOOOOOO",
"OOOOOOOOOOOOOOOOOOOOOOOOOOOOOOOOOOO",
"OOOOOOOOOOOOOOOOOOOOOOOOOOOOOOOOOOO",
"OOOOOOOOOOOOOOOOOOOOOOOOOOOOOOOOOOO",
"OOOOOOOOOOOOOOOOOOOOOOOOOOOOOOOOOOO",
"OOOOOOOOOOOOOOOOOOOOOOOOOOOOOOOOOOO",
"OOOOOOOOOOOOOOOOOOOOOOOOOOOOOOOOOOO",
"OOOOOOOOOOOOOOOOOOOOOOOOOOOOOOOOOOO",
"OOOOOOOOOOOOOOOOOOOOOOOOOOOOOOOOOOO",
"OOOOOOOOOOOOOOOOOOOOOOOOOOOOOOOOOOO",
"OOOOOOOOOOOOOOOOOOOOOOOOOOOOOOOOOOO",
"OOOOOOOOOOOOOOOOOOOOOOOOOOOOOOOOOOO",
"OOOOOOOOOOOOOOOOOOOOOOOOOOOOOOOOOOO",
"OOOOOOOOOOOOOOOOOOOOOOOOOOOOOOOOOOO",
"OOOOOOOOOOOOOOOOOOOOOOOOOOOOOOOOOOO",
"OOOOOOOOOOOOOOOOOOOOOOOOOOOOOOOOOOO",
"OOOOOOOOOOOOOOOOOOOOOOOOOOOOOOOOOOO",
"OOOOOOOOOOOOOOOOOOOOOOOOOOOOOOOOOOO",
"OOOOOOOOOOOOOOOOOOOOOOOOOOOOOOOOOOO",
"OOOOOOOOOOOOOOOOOOOOOOOOOOOOOOOOOOO",
":OOOOOOOOOOOOOOOOOOOOOOOOOOOOOOOOO:",
">,:OOOOOOOOOOOOOOOOOOOOOOOOOOOOO:,>",
"<1-OOOOOOOOOOOOOOOOOOOOOOOOOOOOO-1<",
" %2oOOOOOOOOOOOOOOOOOOOOOOOOOOOo2% "
};
